<svg width="161" height="39" viewBox="0 0 161 39" fill="none" xmlns="http://www.w3.org/2000/svg">
<circle cx="19.2257" cy="19.2247" r="19.2247" fill="white"/>
<path d="M50.5116 27.0469V10.2182H61.8764V13.3994H54.2998V16.702H61.0264V19.8103H54.2998V23.8657H62.4349V27.0469H50.5116ZM73.8291 17.1391C74.5091 15.9896 75.1567 14.8402 75.7718 13.6908C76.387 12.5413 76.9537 11.3838 77.4717 10.2182H81.6485C80.7257 12.0314 79.7706 13.7879 78.783 15.4878C77.7955 17.1876 76.7513 18.8956 75.6504 20.6117V27.0469H71.8622V20.6602C70.7613 18.9442 69.709 17.2281 68.7053 15.5121C67.7177 13.796 66.7625 12.0314 65.8398 10.2182H70.2351C70.7532 11.3838 71.3117 12.5413 71.9107 13.6908C72.5097 14.8402 73.1492 15.9896 73.8291 17.1391ZM85.9014 27.0469V10.2182H97.2663V13.3994H89.6897V16.702H96.4163V19.8103H89.6897V23.8657H97.8248V27.0469H85.9014ZM102.814 27.0469V10.2182H114.081V13.3994H106.602V16.9205H113.256V20.1017H106.602V27.0469H102.814ZM118.944 10.2182H122.732V27.0469H118.944V10.2182ZM133.742 10.0239C136.268 10.0239 138.202 10.4772 139.546 11.3838C140.89 12.2742 141.562 13.6665 141.562 15.5606C141.562 16.7424 141.286 17.7057 140.736 18.4504C140.202 19.1789 139.425 19.7536 138.405 20.1746C138.745 20.5955 139.101 21.0812 139.473 21.6316C139.846 22.1658 140.21 22.7324 140.566 23.3315C140.938 23.9143 141.295 24.5295 141.634 25.177C141.974 25.8084 142.29 26.4317 142.582 27.0469H138.332C138.024 26.4964 137.709 25.9379 137.385 25.3713C137.077 24.8047 136.753 24.2542 136.413 23.72C136.09 23.1857 135.766 22.6839 135.442 22.2144C135.118 21.7287 134.795 21.2916 134.471 20.9031H132.601V27.0469H128.813V10.461C129.638 10.2991 130.488 10.1858 131.362 10.1211C132.253 10.0563 133.046 10.0239 133.742 10.0239ZM133.961 13.2537C133.686 13.2537 133.435 13.2618 133.208 13.2779C132.998 13.2941 132.795 13.3103 132.601 13.3265V17.8919H133.669C135.094 17.8919 136.114 17.7138 136.729 17.3576C137.344 17.0015 137.652 16.3944 137.652 15.5363C137.652 14.7107 137.336 14.1279 136.705 13.7879C136.09 13.4317 135.175 13.2537 133.961 13.2537ZM147.195 27.0469V10.2182H158.56V13.3994H150.984V16.702H157.71V19.8103H150.984V23.8657H159.119V27.0469H147.195Z" fill="white"/>
<ellipse cx="19.1697" cy="19.2735" rx="15.0086" ry="14.984" fill="white"/>
<path fill-rule="evenodd" clip-rule="evenodd" d="M29.3084 22.9058L26.875 25.1577C26.9057 25.265 26.9241 25.3783 26.9241 25.4978C26.9241 26.178 26.3717 26.7295 25.6905 26.7295C25.0093 26.7295 24.4569 26.178 24.4569 25.4978C24.4569 24.8176 25.0093 24.2661 25.6905 24.2661C25.7672 24.2661 25.8439 24.2753 25.9176 24.2876L28.8021 21.6189H33.9942C34.1139 20.856 34.1783 20.0747 34.1783 19.2781C34.1783 18.2793 34.077 17.305 33.8929 16.3613H29.3422L25.5708 13.0308H16.6442C16.4202 13.2637 16.1072 13.4077 15.7574 13.4077C15.0762 13.4077 14.5238 12.8562 14.5238 12.176C14.5238 11.4958 15.0762 10.9443 15.7574 10.9443C16.2852 10.9443 16.7363 11.2783 16.9112 11.744H26.0587L29.8301 15.0745H33.5738C31.7541 8.8425 25.9974 4.28955 19.1728 4.28955C12.4249 4.28955 6.72036 8.73526 4.83009 14.8539H8.29148L11.0716 12.3844C11.0594 12.3139 11.0502 12.2404 11.0502 12.1668C11.0502 11.4866 11.6025 10.9351 12.2837 10.9351C12.965 10.9351 13.5173 11.4866 13.5173 12.1668C13.5173 12.847 12.965 13.3985 12.2837 13.3985C12.161 13.3985 12.0413 13.3801 11.9278 13.3464L8.77939 16.1438H4.49254C4.27774 17.1518 4.16113 18.1996 4.16113 19.272C4.16113 26.0983 8.73643 31.8554 14.9903 33.6631V28.7302L9.36857 23.4665C9.28878 23.4818 9.20286 23.491 9.11694 23.491C8.43571 23.491 7.88336 22.9395 7.88336 22.2593C7.88336 21.5791 8.43571 21.0276 9.11694 21.0276C9.79817 21.0276 10.3505 21.5791 10.3505 22.2593C10.3505 22.3696 10.3352 22.4768 10.3076 22.5779L16.2822 28.1726V33.9787C17.215 34.1595 18.1786 34.2575 19.1666 34.2575C19.9829 34.2575 20.7869 34.1901 21.5694 34.0645L21.6277 29.7383C21.2778 29.5207 21.0446 29.1347 21.0446 28.6904C21.0446 28.0102 21.597 27.4587 22.2782 27.4587C22.9594 27.4587 23.5118 28.0102 23.5118 28.6904C23.5118 29.1347 23.2755 29.5238 22.9196 29.7413L22.8705 33.7949C28.2068 32.4437 32.4046 28.24 33.7333 22.9027H29.3084V22.9058ZM19.184 22.9943C17.1181 22.9943 15.4433 21.3221 15.4433 19.2593C15.4433 17.1965 17.1181 15.5243 19.184 15.5243C21.25 15.5243 22.9248 17.1965 22.9248 19.2593C22.9248 21.3221 21.25 22.9943 19.184 22.9943Z" fill="black"/>
<path fill-rule="evenodd" clip-rule="evenodd" d="M29.3084 22.9058L26.875 25.1577C26.9057 25.265 26.9241 25.3783 26.9241 25.4978C26.9241 26.178 26.3717 26.7295 25.6905 26.7295C25.0093 26.7295 24.4569 26.178 24.4569 25.4978C24.4569 24.8176 25.0093 24.2661 25.6905 24.2661C25.7672 24.2661 25.8439 24.2753 25.9176 24.2876L28.8021 21.6189H33.9942C34.1139 20.856 34.1783 20.0747 34.1783 19.2781C34.1783 18.2793 34.077 17.305 33.8929 16.3613H29.3422L25.5708 13.0308H16.6442C16.4202 13.2637 16.1072 13.4077 15.7574 13.4077C15.0762 13.4077 14.5238 12.8562 14.5238 12.176C14.5238 11.4958 15.0762 10.9443 15.7574 10.9443C16.2852 10.9443 16.7363 11.2783 16.9112 11.744H26.0587L29.8301 15.0745H33.5738C31.7541 8.8425 25.9974 4.28955 19.1728 4.28955C12.4249 4.28955 6.72036 8.73526 4.83009 14.8539H8.29148L11.0716 12.3844C11.0594 12.3139 11.0502 12.2404 11.0502 12.1668C11.0502 11.4866 11.6025 10.9351 12.2837 10.9351C12.965 10.9351 13.5173 11.4866 13.5173 12.1668C13.5173 12.847 12.965 13.3985 12.2837 13.3985C12.161 13.3985 12.0413 13.3801 11.9278 13.3464L8.77939 16.1438H4.49254C4.27774 17.1518 4.16113 18.1996 4.16113 19.272C4.16113 26.0983 8.73643 31.8554 14.9903 33.6631V28.7302L9.36857 23.4665C9.28878 23.4818 9.20286 23.491 9.11694 23.491C8.43571 23.491 7.88336 22.9395 7.88336 22.2593C7.88336 21.5791 8.43571 21.0276 9.11694 21.0276C9.79817 21.0276 10.3505 21.5791 10.3505 22.2593C10.3505 22.3696 10.3352 22.4768 10.3076 22.5779L16.2822 28.1726V33.9787C17.215 34.1595 18.1786 34.2575 19.1666 34.2575C19.9829 34.2575 20.7869 34.1901 21.5694 34.0645L21.6277 29.7383C21.2778 29.5207 21.0446 29.1347 21.0446 28.6904C21.0446 28.0102 21.597 27.4587 22.2782 27.4587C22.9594 27.4587 23.5118 28.0102 23.5118 28.6904C23.5118 29.1347 23.2755 29.5238 22.9196 29.7413L22.8705 33.7949C28.2068 32.4437 32.4046 28.24 33.7333 22.9027H29.3084V22.9058ZM19.184 22.9943C17.1181 22.9943 15.4433 21.3221 15.4433 19.2593C15.4433 17.1965 17.1181 15.5243 19.184 15.5243C21.25 15.5243 22.9248 17.1965 22.9248 19.2593C22.9248 21.3221 21.25 22.9943 19.184 22.9943Z" fill="url(#paint0_radial_394_25626)"/>
<path d="M2.71558 9.37384C4.38935 6.56747 6.75081 4.23403 9.57696 2.59388C12.4031 0.953734 15.6007 0.0610064 18.8677 0L18.8996 1.70922C15.9231 1.7648 13.0099 2.57815 10.435 4.07245C7.8602 5.56675 5.70873 7.69269 4.18379 10.2495L2.71558 9.37384Z" fill="#FF0000"/>
<path d="M35.6802 29.1625C33.9902 31.9591 31.6153 34.2789 28.7798 35.9027C25.9442 37.5265 22.7415 38.4007 19.4742 38.4429L19.4521 36.7335C22.4289 36.6951 25.3468 35.8986 27.9302 34.4192C30.5137 32.9398 32.6774 30.8263 34.217 28.2783L35.6802 29.1625Z" fill="#FF0000"/>
<path d="M20.8141 0.0634766C23.9255 0.321475 26.9273 1.33337 29.5599 3.0117C32.1926 4.69002 34.3768 6.98426 35.9239 9.6961C37.471 12.4079 38.3343 15.4558 38.4393 18.5761C38.5443 21.6964 37.8877 24.7954 36.5263 27.605L34.9879 26.8596C36.2282 24.2998 36.8264 21.4764 36.7307 18.6336C36.6351 15.7907 35.8485 13.0139 34.439 10.5432C33.0295 8.07252 31.0395 5.98228 28.641 4.4532C26.2424 2.92412 23.5076 2.0022 20.6729 1.76715L20.8141 0.0634766Z" fill="#FF0000"/>
<path d="M17.753 38.3899C14.6401 38.1509 11.6322 37.1574 8.98938 35.4952C6.34656 33.833 4.14833 31.5521 2.58472 28.8497C1.02112 26.1474 0.139189 23.1049 0.0151742 19.9853C-0.10884 16.8657 0.528793 13.7628 1.87295 10.9448L3.41592 11.6808C2.19129 14.2482 1.61036 17.0752 1.72334 19.9174C1.83633 22.7596 2.63984 25.5316 4.0644 27.9936C5.48897 30.4556 7.49172 32.5337 9.89954 34.0481C12.3074 35.5625 15.0478 36.4677 17.8839 36.6854L17.753 38.3899Z" fill="#FF0000"/>
<defs>
<radialGradient id="paint0_radial_394_25626" cx="0" cy="0" r="1" gradientUnits="userSpaceOnUse" gradientTransform="translate(19.1711 19.2765) rotate(-155.486) scale(16.497 16.4821)">
<stop offset="0.0104167" stop-color="#00FFFC"/>
<stop offset="0.208333" stop-color="#0464AC"/>
<stop offset="0.5" stop-color="#0B3471"/>
<stop offset="0.864583" stop-color="#EC2828"/>
<stop offset="0.994792" stop-color="#FF0000"/>
</radialGradient>
</defs>
</svg>
