<svg width="26" height="26" viewBox="0 0 26 26" fill="none" xmlns="http://www.w3.org/2000/svg">
<path d="M13 25C6.37237 25 1 19.6276 1 13C1 6.37236 6.37237 1 13 1C19.6276 1 25 6.37236 25 13C25 19.6276 19.6276 25 13 25Z" stroke="white" stroke-width="0.4321" stroke-miterlimit="10"/>
<path d="M7.33203 17.0472C8.36001 17.7084 9.58429 18.0907 10.8964 18.0907C15.2149 18.0907 17.6532 14.4437 17.5085 11.1686C17.9631 10.8431 18.3557 10.4299 18.6708 9.96497C18.2524 10.1509 17.803 10.2749 17.3329 10.3317C17.8133 10.0425 18.1801 9.58787 18.3557 9.04547C17.9063 9.31409 17.4104 9.50522 16.8783 9.60853C16.4547 9.15395 15.8503 8.875 15.1788 8.875C13.6756 8.875 12.5753 10.2749 12.911 11.7316C10.979 11.6335 9.26401 10.7088 8.11722 9.29859C7.50766 10.3421 7.80211 11.711 8.83525 12.4032C8.45299 12.3929 8.09656 12.2844 7.78145 12.1139C7.75562 13.1936 8.53048 14.2009 9.64628 14.423C9.32084 14.5108 8.95924 14.5315 8.59763 14.4643C8.89208 15.389 9.75475 16.0605 10.7724 16.0812C9.79608 16.8509 8.56664 17.1918 7.33203 17.0472Z" fill="white"/>
</svg>
