<svg width="26" height="26" viewBox="0 0 26 26" fill="none" xmlns="http://www.w3.org/2000/svg">
<path d="M13 25C6.37237 25 1 19.6276 1 13C1 6.37236 6.37237 1 13 1C19.6276 1 25 6.37236 25 13C25 19.6276 19.6276 25 13 25Z" stroke="white" stroke-width="0.4321" stroke-miterlimit="10"/>
<path d="M10.0756 10.6172H7.875V17.7304H10.0756V10.6172Z" fill="white"/>
<path d="M8.96584 9.68669C9.68387 9.68669 10.2676 9.0978 10.2676 8.3746C10.2676 7.6514 9.68387 7.0625 8.96584 7.0625C8.2478 7.0625 7.66406 7.6514 7.66406 8.3746C7.66406 9.0978 8.2478 9.68669 8.96584 9.68669Z" fill="white"/>
<path d="M13.6011 14.0016C13.6011 12.9994 14.0608 12.4054 14.9442 12.4054C15.7552 12.4054 16.1426 12.9788 16.1426 14.0016C16.1426 15.0244 16.1426 17.7364 16.1426 17.7364H18.3329C18.3329 17.7364 18.3329 15.1381 18.3329 13.2319C18.3329 11.3258 17.2533 10.4062 15.7449 10.4062C14.2365 10.4062 13.6011 11.584 13.6011 11.584V10.6232H11.4883V17.7364H13.6011C13.6011 17.7364 13.6011 15.0967 13.6011 14.0016Z" fill="white"/>
</svg>
