<svg width="349" height="84" viewBox="0 0 349 84" fill="none" xmlns="http://www.w3.org/2000/svg">
<circle cx="41.9118" cy="41.9118" r="41.9118" fill="white"/>
<path d="M110.118 58.8242V22.136H134.895V29.0713H118.377V36.2713H133.042V43.0477H118.377V51.8889H136.112V58.8242H110.118ZM160.953 37.2242C162.435 34.7183 163.847 32.2125 165.188 29.7066C166.529 27.2007 167.765 24.6772 168.894 22.136H178C175.988 26.0889 173.906 29.9183 171.753 33.6242C169.6 37.3301 167.323 41.0536 164.923 44.7948V58.8242H156.665V44.9007C154.265 41.1595 151.97 37.4183 149.782 33.6772C147.629 29.936 145.547 26.0889 143.535 22.136H153.118C154.247 24.6772 155.465 27.2007 156.77 29.7066C158.076 32.2125 159.47 34.7183 160.953 37.2242ZM187.272 58.8242V22.136H212.048V29.0713H195.53V36.2713H210.195V43.0477H195.53V51.8889H213.266V58.8242H187.272ZM224.142 58.8242V22.136H248.707V29.0713H232.401V36.7477H246.907V43.683H232.401V58.8242H224.142ZM259.307 22.136H267.566V58.8242H259.307V22.136ZM291.569 21.7125C297.075 21.7125 301.293 22.7007 304.222 24.6772C307.152 26.6183 308.617 29.6536 308.617 33.783C308.617 36.3595 308.017 38.4595 306.817 40.083C305.652 41.6713 303.958 42.9242 301.734 43.8419C302.475 44.7595 303.252 45.8183 304.064 47.0183C304.875 48.183 305.669 49.4183 306.446 50.7242C307.258 51.9948 308.034 53.336 308.775 54.7477C309.517 56.1242 310.205 57.483 310.84 58.8242H301.575C300.905 57.6242 300.217 56.4066 299.511 55.1713C298.84 53.936 298.134 52.736 297.393 51.5713C296.687 50.4066 295.981 49.3125 295.275 48.2889C294.569 47.2301 293.864 46.2772 293.158 45.4301H289.081V58.8242H280.822V22.6654C282.622 22.3125 284.475 22.0654 286.381 21.9242C288.322 21.783 290.052 21.7125 291.569 21.7125ZM292.046 28.7536C291.446 28.7536 290.899 28.7713 290.405 28.8066C289.946 28.8419 289.505 28.8772 289.081 28.9125V38.8654H291.411C294.517 38.8654 296.74 38.4772 298.081 37.7007C299.422 36.9242 300.093 35.6007 300.093 33.7301C300.093 31.9301 299.405 30.6595 298.028 29.9183C296.687 29.1419 294.693 28.7536 292.046 28.7536ZM320.898 58.8242V22.136H345.675V29.0713H329.157V36.2713H343.822V43.0477H329.157V51.8889H346.893V58.8242H320.898Z" fill="white"/>
<ellipse cx="41.7944" cy="42.0181" rx="32.7202" ry="32.6666" fill="white"/>
<path fill-rule="evenodd" clip-rule="evenodd" d="M63.8978 49.9368L58.5927 54.8463C58.6596 55.0801 58.6998 55.3273 58.6998 55.5878C58.6998 57.0706 57.4956 58.2729 56.0104 58.2729C54.5253 58.2729 53.3211 57.0706 53.3211 55.5878C53.3211 54.1049 54.5253 52.9025 56.0104 52.9025C56.1777 52.9025 56.3449 52.9226 56.5055 52.9493L62.794 47.1314H74.1133C74.3742 45.4682 74.5147 43.7649 74.5147 42.0282C74.5147 39.8506 74.2939 37.7265 73.8925 35.6692H63.9714L55.7495 28.4085H36.2887C35.8003 28.9161 35.1179 29.2301 34.3553 29.2301C32.8701 29.2301 31.666 28.0277 31.666 26.5449C31.666 25.062 32.8701 23.8597 34.3553 23.8597C35.5059 23.8597 36.4894 24.5877 36.8707 25.603H56.8132L65.0351 32.8638H73.1968C69.2297 19.2774 56.6794 9.35156 41.8011 9.35156C27.0901 9.35156 14.6536 19.0437 10.5326 32.3828H18.0788L24.1398 26.9991C24.1131 26.8454 24.093 26.6851 24.093 26.5248C24.093 25.0419 25.2972 23.8396 26.7823 23.8396C28.2675 23.8396 29.4717 25.0419 29.4717 26.5248C29.4717 28.0077 28.2675 29.21 26.7823 29.21C26.5147 29.21 26.2538 29.1699 26.0063 29.0965L19.1425 35.1949H9.79673C9.32844 37.3925 9.07422 39.6769 9.07422 42.0148C9.07422 56.8969 19.0488 69.4479 32.6828 73.3889V62.6347L20.427 51.1592C20.253 51.1926 20.0657 51.2126 19.8784 51.2126C18.3932 51.2126 17.1891 50.0103 17.1891 48.5274C17.1891 47.0445 18.3932 45.8422 19.8784 45.8422C21.3635 45.8422 22.5677 47.0445 22.5677 48.5274C22.5677 48.7679 22.5343 49.0017 22.4741 49.2221L35.4993 61.419V74.0769C37.533 74.471 39.6336 74.6847 41.7878 74.6847C43.5673 74.6847 45.32 74.5378 47.0259 74.2639L47.153 64.8323C46.3904 64.3581 45.882 63.5164 45.882 62.5479C45.882 61.065 47.0861 59.8627 48.5713 59.8627C50.0564 59.8627 51.2606 61.065 51.2606 62.5479C51.2606 63.5164 50.7455 64.3647 49.9695 64.839L49.8624 73.6761C61.4962 70.7304 70.6479 61.566 73.5446 49.9301H63.8978V49.9368ZM41.8257 50.1299C37.3216 50.1299 33.6704 46.4843 33.6704 41.9872C33.6704 37.4901 37.3216 33.8445 41.8257 33.8445C46.3297 33.8445 49.9809 37.4901 49.9809 41.9872C49.9809 46.4843 46.3297 50.1299 41.8257 50.1299Z" fill="black"/>
<path fill-rule="evenodd" clip-rule="evenodd" d="M63.8978 49.9368L58.5927 54.8463C58.6596 55.0801 58.6998 55.3273 58.6998 55.5878C58.6998 57.0706 57.4956 58.2729 56.0104 58.2729C54.5253 58.2729 53.3211 57.0706 53.3211 55.5878C53.3211 54.1049 54.5253 52.9025 56.0104 52.9025C56.1777 52.9025 56.3449 52.9226 56.5055 52.9493L62.794 47.1314H74.1133C74.3742 45.4682 74.5147 43.7649 74.5147 42.0282C74.5147 39.8506 74.2939 37.7265 73.8925 35.6692H63.9714L55.7495 28.4085H36.2887C35.8003 28.9161 35.1179 29.2301 34.3553 29.2301C32.8701 29.2301 31.666 28.0277 31.666 26.5449C31.666 25.062 32.8701 23.8597 34.3553 23.8597C35.5059 23.8597 36.4894 24.5877 36.8707 25.603H56.8132L65.0351 32.8638H73.1968C69.2297 19.2774 56.6794 9.35156 41.8011 9.35156C27.0901 9.35156 14.6536 19.0437 10.5326 32.3828H18.0788L24.1398 26.9991C24.1131 26.8454 24.093 26.6851 24.093 26.5248C24.093 25.0419 25.2972 23.8396 26.7823 23.8396C28.2675 23.8396 29.4717 25.0419 29.4717 26.5248C29.4717 28.0077 28.2675 29.21 26.7823 29.21C26.5147 29.21 26.2538 29.1699 26.0063 29.0965L19.1425 35.1949H9.79673C9.32844 37.3925 9.07422 39.6769 9.07422 42.0148C9.07422 56.8969 19.0488 69.4479 32.6828 73.3889V62.6347L20.427 51.1592C20.253 51.1926 20.0657 51.2126 19.8784 51.2126C18.3932 51.2126 17.1891 50.0103 17.1891 48.5274C17.1891 47.0445 18.3932 45.8422 19.8784 45.8422C21.3635 45.8422 22.5677 47.0445 22.5677 48.5274C22.5677 48.7679 22.5343 49.0017 22.4741 49.2221L35.4993 61.419V74.0769C37.533 74.471 39.6336 74.6847 41.7878 74.6847C43.5673 74.6847 45.32 74.5378 47.0259 74.2639L47.153 64.8323C46.3904 64.3581 45.882 63.5164 45.882 62.5479C45.882 61.065 47.0861 59.8627 48.5713 59.8627C50.0564 59.8627 51.2606 61.065 51.2606 62.5479C51.2606 63.5164 50.7455 64.3647 49.9695 64.839L49.8624 73.6761C61.4962 70.7304 70.6479 61.566 73.5446 49.9301H63.8978V49.9368ZM41.8257 50.1299C37.3216 50.1299 33.6704 46.4843 33.6704 41.9872C33.6704 37.4901 37.3216 33.8445 41.8257 33.8445C46.3297 33.8445 49.9809 37.4901 49.9809 41.9872C49.9809 46.4843 46.3297 50.1299 41.8257 50.1299Z" fill="url(#paint0_radial_364_140303)"/>
<path d="M5.91797 20.4359C9.56696 14.3177 14.7152 9.23061 20.8765 5.65493C27.0378 2.07924 34.0088 0.133 41.1313 0L41.2009 3.72627C34.7118 3.84744 28.3606 5.62062 22.7472 8.87834C17.1338 12.1361 12.4433 16.7708 9.11882 22.345L5.91797 20.4359Z" fill="#FF0000"/>
<path d="M77.785 63.5799C74.1007 69.6768 68.9232 74.7341 62.7414 78.2742C56.5596 81.8142 49.5774 83.7202 42.4543 83.812L42.4062 80.0854C48.8959 80.0017 55.2572 78.2653 60.8893 75.04C66.5215 71.8148 71.2386 67.2072 74.5952 61.6523L77.785 63.5799Z" fill="#FF0000"/>
<path d="M45.3744 0.132812C52.1576 0.695275 58.7018 2.90132 64.4412 6.56023C70.1806 10.2191 74.9425 15.2208 78.3153 21.1329C81.6881 27.045 83.5702 33.6895 83.7991 40.4922C84.0279 47.2948 82.5965 54.0508 79.6286 60.1762L76.2747 58.5511C78.9786 52.9705 80.2827 46.8152 80.0742 40.6175C79.8657 34.4197 78.1509 28.366 75.0781 22.9797C72.0052 17.5933 67.6667 13.0364 62.4377 9.70286C57.2087 6.36931 51.2464 4.35944 45.0664 3.84699L45.3744 0.132812Z" fill="#FF0000"/>
<path d="M38.7034 83.6925C31.9169 83.1715 25.3594 81.0054 19.5978 77.3816C13.8361 73.7578 9.04378 68.7853 5.63496 62.8939C2.22614 57.0026 0.303445 50.3696 0.0330814 43.5685C-0.237282 36.7674 1.15282 30.0027 4.08323 23.8594L7.44706 25.4639C4.77723 31.061 3.51074 37.2241 3.75706 43.4205C4.00338 49.6168 5.75511 55.6599 8.86081 61.0274C11.9665 66.3949 16.3327 70.9252 21.582 74.2268C26.8313 77.5284 32.8057 79.5018 38.9887 79.9765L38.7034 83.6925Z" fill="#FF0000"/>
<defs>
<radialGradient id="paint0_radial_364_140303" cx="0" cy="0" r="1" gradientUnits="userSpaceOnUse" gradientTransform="translate(41.7975 42.0245) rotate(-155.486) scale(35.9652 35.9326)">
<stop offset="0.0104167" stop-color="#00FFFC"/>
<stop offset="0.208333" stop-color="#0464AC"/>
<stop offset="0.5" stop-color="#0B3471"/>
<stop offset="0.864583" stop-color="#EC2828"/>
<stop offset="0.994792" stop-color="#FF0000"/>
</radialGradient>
</defs>
</svg>
