<svg width="100" height="52" viewBox="0 0 100 52" fill="none" xmlns="http://www.w3.org/2000/svg">
<g opacity="0.16">
<path fill-rule="evenodd" clip-rule="evenodd" d="M75.473 11.9827L69.2066 17.7818C69.2856 18.058 69.333 18.3499 69.333 18.6576C69.333 20.4092 67.9107 21.8294 66.1564 21.8294C64.4021 21.8294 62.9797 20.4092 62.9797 18.6576C62.9797 16.906 64.4021 15.4858 66.1564 15.4858C66.3539 15.4858 66.5515 15.5095 66.7411 15.541L74.1692 8.66886H87.5396C87.8478 6.70424 88.0137 4.69229 88.0137 2.64089C88.0137 0.0687447 87.753 -2.44028 87.2788 -4.8704H75.5599L65.8482 -13.4468H42.8608C42.284 -12.8472 41.4779 -12.4764 40.5771 -12.4764C38.8228 -12.4764 37.4004 -13.8966 37.4004 -15.6481C37.4004 -17.3997 38.8228 -18.8199 40.5771 -18.8199C41.9363 -18.8199 43.0979 -17.9599 43.5483 -16.7606H67.1046L76.8164 -8.1842H86.457C81.771 -24.2325 66.9466 -35.957 49.3722 -35.957C31.9953 -35.957 17.3052 -24.5086 12.4375 -8.75229H21.3511L28.5105 -15.1116C28.4789 -15.2931 28.4552 -15.4825 28.4552 -15.6718C28.4552 -17.4234 29.8776 -18.8436 31.6319 -18.8436C33.3861 -18.8436 34.8085 -17.4234 34.8085 -15.6718C34.8085 -13.9202 33.3861 -12.5 31.6319 -12.5C31.3158 -12.5 31.0076 -12.5474 30.7152 -12.6342L22.6076 -5.43059H11.5683C11.0151 -2.83477 10.7148 -0.136395 10.7148 2.62511C10.7148 20.204 22.497 35.0294 38.6015 39.6845V26.9816L24.1248 13.4265C23.9193 13.466 23.6981 13.4897 23.4768 13.4897C21.7225 13.4897 20.3002 12.0694 20.3002 10.3179C20.3002 8.56629 21.7225 7.14608 23.4768 7.14608C25.2311 7.14608 26.6535 8.56629 26.6535 10.3179C26.6535 10.6019 26.614 10.8781 26.5429 11.1384L41.9284 25.5456V40.4971C44.3306 40.9627 46.8119 41.2151 49.3564 41.2151C51.4584 41.2151 53.5287 41.0416 55.5438 40.7181L55.6939 29.5774C54.7931 29.0172 54.1925 28.0231 54.1925 26.879C54.1925 25.1274 55.6149 23.7072 57.3692 23.7072C59.1235 23.7072 60.5458 25.1274 60.5458 26.879C60.5458 28.0231 59.9374 29.0251 59.0207 29.5853L58.8943 40.0238C72.6361 36.5443 83.4463 25.7192 86.8679 11.9748H75.473V11.9827ZM49.4012 12.2107C44.081 12.2107 39.7681 7.90451 39.7681 2.59249C39.7681 -2.71952 44.081 -7.02575 49.4012 -7.02575C54.7214 -7.02575 59.0342 -2.71952 59.0342 2.59249C59.0342 7.90451 54.7214 12.2107 49.4012 12.2107Z" fill="black"/>
<path fill-rule="evenodd" clip-rule="evenodd" d="M75.473 11.9827L69.2066 17.7818C69.2856 18.058 69.333 18.3499 69.333 18.6576C69.333 20.4092 67.9107 21.8294 66.1564 21.8294C64.4021 21.8294 62.9797 20.4092 62.9797 18.6576C62.9797 16.906 64.4021 15.4858 66.1564 15.4858C66.3539 15.4858 66.5515 15.5095 66.7411 15.541L74.1692 8.66886H87.5396C87.8478 6.70424 88.0137 4.69229 88.0137 2.64089C88.0137 0.0687447 87.753 -2.44028 87.2788 -4.8704H75.5599L65.8482 -13.4468H42.8608C42.284 -12.8472 41.4779 -12.4764 40.5771 -12.4764C38.8228 -12.4764 37.4004 -13.8966 37.4004 -15.6481C37.4004 -17.3997 38.8228 -18.8199 40.5771 -18.8199C41.9363 -18.8199 43.0979 -17.9599 43.5483 -16.7606H67.1046L76.8164 -8.1842H86.457C81.771 -24.2325 66.9466 -35.957 49.3722 -35.957C31.9953 -35.957 17.3052 -24.5086 12.4375 -8.75229H21.3511L28.5105 -15.1116C28.4789 -15.2931 28.4552 -15.4825 28.4552 -15.6718C28.4552 -17.4234 29.8776 -18.8436 31.6319 -18.8436C33.3861 -18.8436 34.8085 -17.4234 34.8085 -15.6718C34.8085 -13.9202 33.3861 -12.5 31.6319 -12.5C31.3158 -12.5 31.0076 -12.5474 30.7152 -12.6342L22.6076 -5.43059H11.5683C11.0151 -2.83477 10.7148 -0.136395 10.7148 2.62511C10.7148 20.204 22.497 35.0294 38.6015 39.6845V26.9816L24.1248 13.4265C23.9193 13.466 23.6981 13.4897 23.4768 13.4897C21.7225 13.4897 20.3002 12.0694 20.3002 10.3179C20.3002 8.56629 21.7225 7.14608 23.4768 7.14608C25.2311 7.14608 26.6535 8.56629 26.6535 10.3179C26.6535 10.6019 26.614 10.8781 26.5429 11.1384L41.9284 25.5456V40.4971C44.3306 40.9627 46.8119 41.2151 49.3564 41.2151C51.4584 41.2151 53.5287 41.0416 55.5438 40.7181L55.6939 29.5774C54.7931 29.0172 54.1925 28.0231 54.1925 26.879C54.1925 25.1274 55.6149 23.7072 57.3692 23.7072C59.1235 23.7072 60.5458 25.1274 60.5458 26.879C60.5458 28.0231 59.9374 29.0251 59.0207 29.5853L58.8943 40.0238C72.6361 36.5443 83.4463 25.7192 86.8679 11.9748H75.473V11.9827ZM49.4012 12.2107C44.081 12.2107 39.7681 7.90451 39.7681 2.59249C39.7681 -2.71952 44.081 -7.02575 49.4012 -7.02575C54.7214 -7.02575 59.0342 -2.71952 59.0342 2.59249C59.0342 7.90451 54.7214 12.2107 49.4012 12.2107Z" fill="url(#paint0_radial_431_33403)"/>
<path d="M91.8796 28.101C87.5277 35.3028 81.412 41.2766 74.1099 45.4581C66.8079 49.6396 58.5605 51.8909 50.1466 51.9995L50.0898 47.5976C57.7555 47.4987 65.2695 45.4476 71.9222 41.6379C78.575 37.8282 84.1469 32.3856 88.1118 25.8242L91.8796 28.101Z" fill="#FF0000"/>
<path d="M53.5982 -46.8398C61.6106 -46.1755 69.3406 -43.5697 76.12 -39.2477C82.8994 -34.9258 88.5243 -29.0177 92.5082 -22.0343C96.4922 -15.0509 98.7154 -7.20232 98.9857 0.833023C99.256 8.86837 97.5653 16.8487 94.0596 24.084L90.0979 22.1645C93.2918 15.5725 94.8322 8.30185 94.586 0.98103C94.3397 -6.33979 92.3141 -13.4905 88.6844 -19.8529C85.0547 -26.2153 79.9301 -31.598 73.7535 -35.5356C67.5769 -39.4732 60.5343 -41.8473 53.2344 -42.4526L53.5982 -46.8398Z" fill="#FF0000"/>
<path d="M45.7168 51.8591C37.7005 51.2436 29.9548 48.6851 23.1491 44.4046C16.3434 40.1241 10.6826 34.2505 6.65607 27.2916C2.62954 20.3326 0.358432 12.4977 0.039076 4.4642C-0.28028 -3.56935 1.36172 -11.5598 4.82314 -18.8164L8.79653 -16.9211C5.64291 -10.3098 4.14692 -3.02985 4.43788 4.28933C4.72884 11.6085 6.79799 18.7467 10.4665 25.0868C14.1349 31.427 19.2924 36.7783 25.4929 40.6781C31.6934 44.5779 38.7504 46.909 46.0538 47.4697L45.7168 51.8591Z" fill="#FF0000"/>
</g>
<defs>
<radialGradient id="paint0_radial_431_33403" cx="0" cy="0" r="1" gradientUnits="userSpaceOnUse" gradientTransform="translate(49.3679 2.63661) rotate(-155.486) scale(42.4824 42.4439)">
<stop offset="0.0104167" stop-color="#00FFFC"/>
<stop offset="0.208333" stop-color="#0464AC"/>
<stop offset="0.5" stop-color="#0B3471"/>
<stop offset="0.864583" stop-color="#EC2828"/>
<stop offset="0.994792" stop-color="#FF0000"/>
</radialGradient>
</defs>
</svg>
