<svg width="26" height="26" viewBox="0 0 26 26" fill="none" xmlns="http://www.w3.org/2000/svg">
<path d="M13 25C6.37237 25 1 19.6276 1 13C1 6.37236 6.37237 1 13 1C19.6276 1 25 6.37236 25 13C25 19.6276 19.6276 25 13 25Z" stroke="white" stroke-width="0.4321" stroke-miterlimit="10"/>
<path d="M11.3795 19.4317H13.9675V12.9436H15.7755L15.9667 10.774H13.9675C13.9675 10.774 13.9675 9.96294 13.9675 9.53935C13.9675 9.02794 14.0709 8.82648 14.5668 8.82648C14.9645 8.82648 15.9667 8.82648 15.9667 8.82648V6.57422C15.9667 6.57422 14.4893 6.57422 14.1742 6.57422C12.2473 6.57422 11.3795 7.4214 11.3795 9.04861C11.3795 10.464 11.3795 10.7791 11.3795 10.7791H10.0312V12.9797H11.3795V19.4317Z" fill="white"/>
</svg>
