<svg width="183" height="28" viewBox="0 0 183 28" fill="none" xmlns="http://www.w3.org/2000/svg">
<path d="M0.297451 18.5501C0.0991502 18.3518 0 18.094 0 17.7569V7.95093C0 7.62374 0.0892352 7.37586 0.277621 7.19739C0.466006 7.01892 0.713881 6.92969 1.04108 6.92969H5.16572C6.42493 6.92969 7.40652 7.24697 8.11049 7.88153C8.81445 8.51609 9.17139 9.39853 9.17139 10.5388C9.17139 11.679 8.81445 12.5614 8.11049 13.2059C7.40652 13.8405 6.42493 14.1577 5.16572 14.1577H2.16147V17.7569C2.16147 18.094 2.06232 18.3617 1.86402 18.5501C1.66572 18.7385 1.40793 18.8475 1.07082 18.8475C0.733711 18.8475 0.485836 18.7484 0.287536 18.5501H0.297451ZM4.89802 12.492C6.38527 12.492 7.1289 11.8475 7.1289 10.5487C7.1289 9.2498 6.38527 8.60533 4.89802 8.60533H2.16147V12.492H4.8881H4.89802Z" fill="white"/>
<path d="M12.4127 18.353C11.7781 18.006 11.2923 17.5102 10.9453 16.8657C10.5982 16.2213 10.4297 15.4677 10.4297 14.6051C10.4297 13.7425 10.5982 12.9989 10.9453 12.3544C11.2923 11.7099 11.7781 11.2142 12.4127 10.8671C13.0473 10.5201 13.781 10.3516 14.6138 10.3516C15.4467 10.3516 16.1903 10.5201 16.815 10.8671C17.4495 11.2142 17.9354 11.7099 18.2725 12.3544C18.6096 12.9989 18.788 13.7524 18.788 14.6051C18.788 15.4578 18.6195 16.2213 18.2725 16.8657C17.9254 17.5102 17.4495 18.0159 16.815 18.353C16.1804 18.7 15.4467 18.8686 14.6138 18.8686C13.781 18.8686 13.0373 18.7 12.4127 18.353ZM16.1606 16.5782C16.5175 16.132 16.696 15.4677 16.696 14.5952C16.696 13.7227 16.5175 13.0782 16.1606 12.6221C15.8036 12.166 15.288 11.9479 14.6237 11.9479C13.9594 11.9479 13.4339 12.1759 13.077 12.6221C12.7101 13.0782 12.5317 13.7326 12.5317 14.5952C12.5317 15.4578 12.7101 16.1221 13.0671 16.5782C13.424 17.0244 13.9396 17.2524 14.6039 17.2524C15.2682 17.2524 15.8036 17.0244 16.1606 16.5782Z" fill="white"/>
<path d="M31.9371 10.5475C32.0858 10.4483 32.2543 10.3987 32.4328 10.3987C32.6906 10.3987 32.9186 10.488 33.1269 10.6565C33.3351 10.8251 33.4342 11.0432 33.4342 11.301C33.4342 11.4497 33.4045 11.5786 33.3549 11.6877L30.5886 18.1721C30.4994 18.3803 30.3606 18.5489 30.1821 18.6579C29.9937 18.767 29.7954 18.8265 29.5674 18.8265C29.3592 18.8265 29.1609 18.767 28.9725 18.6579C28.7841 18.5489 28.6552 18.3803 28.566 18.1721L26.573 13.3832L24.6495 18.1721C24.5603 18.3803 24.4215 18.5489 24.243 18.6579C24.0546 18.767 23.8563 18.8265 23.6283 18.8265C23.4201 18.8265 23.2118 18.767 23.0235 18.6579C22.8351 18.5489 22.6963 18.3803 22.607 18.1721L19.8606 11.6877C19.8011 11.539 19.7812 11.42 19.7812 11.3208C19.7812 11.063 19.8903 10.8449 20.1184 10.6565C20.3464 10.4681 20.5844 10.3789 20.8521 10.3789C21.0405 10.3789 21.2189 10.4285 21.3677 10.5276C21.5263 10.6268 21.6453 10.7755 21.7246 10.9837L23.6977 16.0999L25.7203 11.0432C25.8096 10.835 25.9385 10.6664 26.107 10.5673C26.2756 10.4582 26.464 10.4087 26.6623 10.4087C26.8606 10.4087 27.049 10.4582 27.2175 10.5673C27.3861 10.6764 27.515 10.835 27.6042 11.0432L29.6467 16.1197L31.6099 11.0036C31.6892 10.8053 31.7983 10.6565 31.9569 10.5475H31.9371Z" fill="white"/>
<path d="M41.8011 16.717C41.92 16.8657 41.9795 17.0541 41.9795 17.302C41.9795 17.649 41.7713 17.9366 41.3549 18.1745C40.9781 18.3827 40.5418 18.5612 40.0659 18.6901C39.5801 18.819 39.124 18.8785 38.6877 18.8785C37.369 18.8785 36.328 18.5017 35.5546 17.7383C34.7812 16.9748 34.3945 15.9436 34.3945 14.6249C34.3945 13.7822 34.5631 13.0484 34.9002 12.3941C35.2373 11.7397 35.7033 11.2439 36.318 10.887C36.9328 10.53 37.6169 10.3516 38.3903 10.3516C39.1637 10.3516 39.7685 10.5102 40.3138 10.8374C40.8591 11.1646 41.2855 11.6207 41.5928 12.2156C41.8903 12.8105 42.0489 13.5045 42.0489 14.3077C42.0489 14.7836 41.8407 15.0315 41.4144 15.0315H36.4668C36.5362 15.8048 36.7543 16.37 37.1212 16.7368C37.488 17.1037 38.0234 17.2822 38.7274 17.2822C39.0843 17.2822 39.4016 17.2425 39.6792 17.1533C39.9569 17.064 40.2642 16.945 40.6112 16.7864C40.9484 16.6079 41.1962 16.5187 41.345 16.5187C41.5333 16.5187 41.692 16.5881 41.8011 16.7368V16.717ZM37.0716 12.3643C36.7345 12.7213 36.5263 13.2368 36.4569 13.9011H40.2444C40.2246 13.217 40.056 12.7014 39.7387 12.3544C39.4214 12.0074 38.9951 11.8289 38.4299 11.8289C37.8648 11.8289 37.4087 12.0074 37.0617 12.3643H37.0716Z" fill="white"/>
<path d="M49.0206 10.559C49.1891 10.7077 49.2685 10.9258 49.2685 11.2134C49.2685 11.5009 49.1991 11.7389 49.0503 11.8876C48.9016 12.0363 48.6438 12.1255 48.267 12.1751L47.7614 12.2247C47.0971 12.2941 46.6212 12.5122 46.3138 12.8989C46.0064 13.2757 45.8577 13.7516 45.8577 14.3267V17.8465C45.8577 18.1737 45.7585 18.4216 45.5602 18.5901C45.3619 18.7587 45.1042 18.8479 44.8067 18.8479C44.5093 18.8479 44.2614 18.7587 44.0631 18.5901C43.8648 18.4216 43.7656 18.1638 43.7656 17.8465V11.3621C43.7656 11.0448 43.8648 10.8068 44.0631 10.6383C44.2614 10.4697 44.4993 10.3904 44.7968 10.3904C45.0942 10.3904 45.3223 10.4697 45.5008 10.6383C45.6792 10.7969 45.7685 11.0349 45.7685 11.3323V12.0066C45.9767 11.5108 46.294 11.134 46.7104 10.8663C47.1268 10.5986 47.5928 10.4499 48.1084 10.4102L48.3464 10.3904C48.6339 10.3706 48.8619 10.4301 49.0305 10.5788L49.0206 10.559Z" fill="white"/>
<path d="M57.1214 16.717C57.2403 16.8657 57.2998 17.0541 57.2998 17.302C57.2998 17.649 57.0916 17.9366 56.6752 18.1745C56.2984 18.3827 55.8622 18.5612 55.3862 18.6901C54.9004 18.819 54.4443 18.8785 54.008 18.8785C52.6894 18.8785 51.6483 18.5017 50.8749 17.7383C50.1015 16.9748 49.7148 15.9436 49.7148 14.6249C49.7148 13.7822 49.8834 13.0484 50.2205 12.3941C50.5576 11.7397 51.0236 11.2439 51.6384 10.887C52.2531 10.53 52.9372 10.3516 53.7106 10.3516C54.484 10.3516 55.0888 10.5102 55.6341 10.8374C56.1794 11.1646 56.6058 11.6207 56.9131 12.2156C57.2106 12.8105 57.3692 13.5045 57.3692 14.3077C57.3692 14.7836 57.161 15.0315 56.7347 15.0315H51.7871C51.8565 15.8048 52.0746 16.37 52.4415 16.7368C52.8083 17.1037 53.3437 17.2822 54.0477 17.2822C54.4046 17.2822 54.7219 17.2425 54.9996 17.1533C55.2772 17.064 55.5845 16.945 55.9316 16.7864C56.2687 16.6079 56.5165 16.5187 56.6653 16.5187C56.8537 16.5187 57.0123 16.5881 57.1214 16.7368V16.717ZM52.3919 12.3643C52.0548 12.7213 51.8466 13.2368 51.7772 13.9011H55.5647C55.5449 13.217 55.3763 12.7014 55.059 12.3544C54.7418 12.0074 54.3154 11.8289 53.7503 11.8289C53.1851 11.8289 52.729 12.0074 52.382 12.3643H52.3919Z" fill="white"/>
<path d="M66.6781 7.10935C66.8764 7.28782 66.9756 7.52578 66.9756 7.81332V17.8374C66.9756 18.1349 66.8764 18.3827 66.688 18.5612C66.4996 18.7397 66.2418 18.8289 65.9345 18.8289C65.6271 18.8289 65.3693 18.7397 65.1809 18.5612C64.9925 18.3827 64.8934 18.1448 64.8934 17.8374V17.421C64.6455 17.8771 64.2886 18.234 63.8325 18.4918C63.3665 18.7496 62.841 18.8785 62.2461 18.8785C61.5421 18.8785 60.9175 18.7 60.3622 18.3431C59.807 17.9861 59.3806 17.4805 59.0733 16.8261C58.7659 16.1717 58.6172 15.4181 58.6172 14.5754C58.6172 13.7326 58.7659 12.979 59.0733 12.3445C59.3806 11.7099 59.807 11.2142 60.3523 10.8671C60.8976 10.5201 61.5322 10.3516 62.2461 10.3516C62.841 10.3516 63.3665 10.4705 63.8226 10.7184C64.2787 10.9663 64.6356 11.3133 64.8835 11.7595V7.78357C64.8835 7.50595 64.9727 7.27791 65.1611 7.10935C65.3495 6.9408 65.5974 6.85156 65.9047 6.85156C66.2121 6.85156 66.4798 6.9408 66.6781 7.11927V7.10935ZM64.358 16.5584C64.7248 16.1023 64.9033 15.4479 64.9033 14.5952C64.9033 13.7425 64.7248 13.098 64.358 12.6419C63.9911 12.1858 63.4855 11.9677 62.8212 11.9677C62.1569 11.9677 61.6314 12.1958 61.2645 12.6419C60.8976 13.0881 60.7093 13.7326 60.7093 14.5654C60.7093 15.3983 60.8976 16.0725 61.2645 16.5385C61.6314 17.0045 62.1469 17.2425 62.8112 17.2425C63.4755 17.2425 64.001 17.0145 64.358 16.5584Z" fill="white"/>
<path d="M80.2909 10.8653C80.8362 11.2124 81.2626 11.6982 81.5699 12.3427C81.8773 12.9772 82.026 13.7209 82.026 14.5736C82.026 15.4263 81.8674 16.1699 81.5699 16.8243C81.2725 17.4787 80.8362 17.9843 80.281 18.3413C79.7257 18.6982 79.1011 18.8767 78.3971 18.8767C77.8022 18.8767 77.2767 18.7478 76.8107 18.49C76.3447 18.2322 75.9878 17.8753 75.7498 17.4192V17.8356C75.7498 18.133 75.6507 18.3809 75.4623 18.5594C75.2739 18.7379 75.0161 18.8271 74.7087 18.8271C74.4014 18.8271 74.1436 18.7379 73.9651 18.5594C73.7767 18.3809 73.6875 18.143 73.6875 17.8356V7.81152C73.6875 7.52398 73.7867 7.28602 73.985 7.10755C74.1833 6.92908 74.4311 6.83984 74.7484 6.83984C75.0657 6.83984 75.3136 6.91916 75.502 7.08772C75.6903 7.25627 75.7895 7.48432 75.7895 7.77186V11.7279C76.0374 11.2818 76.3844 10.9347 76.8504 10.6968C77.3065 10.4588 77.832 10.3398 78.4071 10.3398C79.1209 10.3398 79.7555 10.5084 80.3008 10.8554L80.2909 10.8653ZM79.3886 16.5466C79.7555 16.0806 79.9439 15.4163 79.9439 14.5736C79.9439 13.7308 79.7654 13.0962 79.3986 12.65C79.0317 12.2039 78.5161 11.9758 77.8518 11.9758C77.1875 11.9758 76.662 12.2039 76.3051 12.65C75.9481 13.0962 75.7597 13.7506 75.7597 14.6033C75.7597 15.456 75.9382 16.1104 76.3051 16.5665C76.6719 17.0226 77.1875 17.2506 77.8518 17.2506C78.5161 17.2506 79.0218 17.0127 79.3986 16.5466H79.3886Z" fill="white"/>
<path d="M89.8299 10.5357C89.9787 10.4366 90.1472 10.3969 90.3257 10.3969C90.5835 10.3969 90.8115 10.4862 91.0197 10.6547C91.2279 10.8233 91.3271 11.0414 91.3271 11.2992C91.3271 11.4182 91.2974 11.5471 91.2279 11.6859L86.6571 21.2737C86.4687 21.6505 86.1713 21.8389 85.7648 21.8389C85.507 21.8389 85.2789 21.7595 85.0905 21.591C84.9022 21.4224 84.7931 21.2241 84.7931 20.9763C84.7931 20.8573 84.8228 20.7185 84.8923 20.5598L86.0325 18.1604L82.9192 11.676C82.8597 11.5669 82.8398 11.438 82.8398 11.2893C82.8398 11.0315 82.9489 10.8134 83.167 10.6349C83.3852 10.4564 83.633 10.3672 83.9107 10.3672C84.099 10.3672 84.2775 10.4168 84.4262 10.506C84.5849 10.6051 84.7039 10.7539 84.7931 10.9522L87.143 16.1278L89.473 10.9621C89.5622 10.7638 89.6812 10.6151 89.8299 10.5159V10.5357Z" fill="white"/>
<path d="M107.233 11.7281C107.739 11.4307 108.284 11.1828 108.849 11.0043C109.573 10.7763 110.346 10.6474 111.149 10.6474C111.953 10.6474 112.657 10.7565 113.351 10.9647C113.44 10.4887 113.489 10.0029 113.489 9.49724C113.489 9.39809 113.489 9.29894 113.489 9.19979C112.746 9.01141 111.962 8.90234 111.159 8.90234C110.356 8.90234 109.494 9.01141 108.72 9.21962C108.115 9.37826 107.53 9.60631 106.985 9.87402C104.516 11.1035 102.662 13.3839 102.008 16.1304C102.513 16.4179 103.069 16.6559 103.634 16.8244C104.05 14.6531 105.399 12.7989 107.233 11.7083" fill="#0B64B0"/>
<path d="M120.556 17.9446C120.537 17.3101 120.447 16.6953 120.309 16.1004C119.644 13.3341 117.75 11.0339 115.232 9.82422C115.212 10.4489 115.123 11.0636 114.984 11.6585C116.878 12.7491 118.256 14.6132 118.682 16.8242C118.772 17.3001 118.821 17.7959 118.821 18.3016C118.821 18.4007 118.821 18.4999 118.821 18.5891C118.673 22.684 115.301 25.9659 111.167 25.9659C107.032 25.9659 103.661 22.6939 103.512 18.599C102.908 18.4404 102.323 18.2322 101.777 17.9644C101.777 18.0735 101.777 18.1925 101.777 18.3016C101.777 23.497 105.981 27.701 111.177 27.701C116.372 27.701 120.576 23.497 120.576 18.3016C120.576 18.1727 120.576 18.0537 120.576 17.9347" fill="#0B64B0"/>
<path d="M105.835 17.1611C105.071 17.1611 104.338 17.052 103.634 16.8438C103.059 16.6753 102.513 16.4373 102.008 16.1498C99.7074 14.8212 98.1705 12.3424 98.1705 9.50671C98.1705 5.273 101.601 1.8424 105.835 1.8424C107.253 1.8424 108.581 2.22909 109.722 2.90331C110.148 2.46705 110.624 2.08036 111.129 1.74325C109.622 0.712089 107.808 0.117188 105.845 0.117188C100.649 0.117188 96.4453 4.33107 96.4453 9.51662C96.4453 13.2546 98.6266 16.477 101.78 17.994C102.325 18.2617 102.91 18.4699 103.515 18.6285C104.258 18.8169 105.042 18.926 105.845 18.926C107.788 18.926 109.603 18.3311 111.1 17.3197C110.594 16.9727 110.128 16.586 109.702 16.1498C108.571 16.8042 107.253 17.1908 105.855 17.1908" fill="#EE3432"/>
<path d="M112.524 2.89273C112.018 3.19018 111.542 3.54712 111.116 3.94372C112.514 5.28225 113.416 7.13636 113.495 9.19868C113.495 9.29783 113.495 9.39698 113.495 9.49613C113.495 9.99188 113.446 10.4876 113.356 10.9636C113.049 12.5698 112.236 13.9975 111.086 15.0684C111.512 15.4749 111.978 15.8318 112.484 16.1293C113.694 14.9196 114.566 13.3828 114.973 11.6576C115.111 11.0627 115.201 10.4579 115.22 9.82333C115.22 9.71426 115.22 9.6052 115.22 9.48622C115.22 6.90831 114.179 4.57828 112.504 2.88281" fill="#EE3432"/>
<path d="M116.372 17.193C114.954 17.193 113.636 16.8063 112.485 16.1321C111.98 15.8346 111.504 15.4777 111.087 15.0712C109.957 14.0003 109.164 12.5825 108.847 10.9961C108.281 11.1746 107.736 11.4224 107.23 11.7199C107.637 13.4154 108.5 14.9224 109.679 16.1222C110.106 16.5584 110.572 16.9451 111.077 17.2921C112.585 18.3134 114.409 18.9182 116.362 18.9182C117.205 18.9182 118.028 18.8091 118.801 18.591C118.801 18.5018 118.801 18.4026 118.801 18.3035C118.801 17.7978 118.752 17.302 118.662 16.8261C117.939 17.0542 117.165 17.1831 116.362 17.1831" fill="#FEE71A"/>
<path d="M116.37 0.128906C114.427 0.128906 112.613 0.723807 111.115 1.73514C110.61 2.07225 110.134 2.46885 109.707 2.8952C108.012 4.60058 106.961 6.94052 106.961 9.52834C106.961 9.65724 106.961 9.77622 106.961 9.8952C107.506 9.61758 108.091 9.39945 108.696 9.24081C108.775 7.15865 109.678 5.29463 111.096 3.9561C111.522 3.54959 111.998 3.20256 112.503 2.90511C113.634 2.24081 114.952 1.86403 116.35 1.86403C120.584 1.86403 124.015 5.29463 124.015 9.52834C124.015 12.3343 122.518 14.7734 120.277 16.1119C120.416 16.7068 120.505 17.3215 120.525 17.9561C123.628 16.4193 125.75 13.2167 125.75 9.52834C125.78 4.33287 121.566 0.128906 116.37 0.128906Z" fill="#FEE71A"/>
<path d="M128.242 0.179688H138.326V1.93465H134.935V20.2477H131.623V1.93465H128.242V0.179688Z" fill="white"/>
<path d="M150.353 6.46581H146.992V1.93465H143.68V18.4531H146.992V13.9913H150.353V17.2236C150.353 18.3539 149.649 19.2165 148.241 19.8313C147.596 20.1089 146.922 20.2477 146.218 20.2477H144.245C143.135 20.2477 142.193 19.9106 141.409 19.2364C140.666 18.5919 140.289 17.8482 140.289 17.0154V3.2236C140.289 2.12303 140.983 1.25051 142.381 0.606033C143.006 0.318498 143.66 0.179688 144.344 0.179688H146.288C147.755 0.179688 148.915 0.725013 149.778 1.82558C150.154 2.31142 150.343 2.80717 150.343 3.30292V6.46581H150.353Z" fill="white"/>
<path d="M152.77 17.0142V3.18273C152.77 2.09208 153.493 1.21956 154.941 0.565167C155.585 0.277632 156.24 0.128906 156.904 0.128906H158.768C160.265 0.128906 161.445 0.674232 162.318 1.7748C162.704 2.27055 162.893 2.7663 162.893 3.28188V17.2323C162.893 18.3825 162.199 19.255 160.821 19.84C160.176 20.1176 159.492 20.2465 158.768 20.2465H156.755C155.278 20.2465 154.138 19.6813 153.325 18.551C152.958 18.0553 152.77 17.5397 152.77 17.0142ZM156.151 18.4618H159.472V1.93344H156.151V18.4618Z" fill="white"/>
<path d="M181.98 20.2477H178.599V1.93465H175.198V20.1981H171.857V1.93465H168.545V20.1981H165.164V3.35249C165.164 2.2321 165.838 1.32983 167.187 0.645693C167.801 0.338328 168.466 0.179688 169.18 0.179688H177.855C179.313 0.179688 180.493 0.705183 181.385 1.76609C181.782 2.24201 181.98 2.72785 181.98 3.2236V20.2477Z" fill="white"/>
<path d="M131.573 24.3302H130.373V27.6616H129.887V24.3302H128.688V23.9336H131.573V24.3302Z" fill="white"/>
<path d="M135.729 25.9364H134.113V27.265H135.987V27.6616H133.617V23.9336H135.967V24.3302H134.113V25.5398H135.729V25.9364Z" fill="white"/>
<path d="M140.831 26.4805C140.781 26.8771 140.632 27.1845 140.394 27.3927C140.146 27.6109 139.819 27.71 139.413 27.71C138.976 27.71 138.62 27.5514 138.352 27.2341C138.084 26.9168 137.945 26.4905 137.945 25.965V25.608C137.945 25.261 138.005 24.9536 138.134 24.6958C138.263 24.4281 138.431 24.2298 138.659 24.091C138.887 23.9522 139.145 23.8828 139.452 23.8828C139.849 23.8828 140.166 23.9919 140.404 24.21C140.642 24.4381 140.781 24.7355 140.821 25.1321H140.325C140.275 24.8347 140.186 24.6165 140.047 24.4876C139.908 24.3488 139.71 24.2893 139.452 24.2893C139.135 24.2893 138.887 24.4083 138.709 24.6364C138.53 24.8644 138.441 25.2015 138.441 25.6279V25.9947C138.441 26.4012 138.53 26.7185 138.699 26.9565C138.867 27.1944 139.105 27.3134 139.413 27.3134C139.68 27.3134 139.899 27.2539 140.047 27.125C140.186 27.006 140.285 26.7879 140.335 26.4805H140.831Z" fill="white"/>
<path d="M145.858 27.6598H145.362V25.9346H143.478V27.6598H142.992V23.9219H143.478V25.538H145.362V23.9219H145.858V27.6598Z" fill="white"/>
<path d="M153.068 26.0178H151.501V27.6637H151.016V23.9258H153.326V24.3323H151.501V25.6113H153.068V26.0178Z" fill="white"/>
<path d="M158.274 25.9175C158.274 26.2844 158.214 26.6016 158.085 26.8793C157.956 27.1569 157.788 27.3651 157.56 27.5039C157.342 27.6427 157.074 27.722 156.767 27.722C156.459 27.722 156.211 27.6526 155.983 27.5039C155.755 27.3552 155.577 27.1569 155.458 26.8793C155.329 26.6115 155.27 26.3042 155.27 25.9472V25.6795C155.27 25.3226 155.329 25.0053 155.458 24.7277C155.587 24.4501 155.755 24.2419 155.983 24.0931C156.211 23.9444 156.469 23.875 156.767 23.875C157.064 23.875 157.332 23.9543 157.56 24.0931C157.788 24.2419 157.966 24.4501 158.085 24.7178C158.204 24.9954 158.274 25.3127 158.274 25.6795V25.9175ZM157.788 25.6795C157.788 25.2334 157.699 24.8962 157.52 24.6583C157.342 24.4203 157.094 24.3013 156.767 24.3013C156.439 24.3013 156.211 24.4203 156.033 24.6583C155.855 24.8962 155.765 25.2234 155.755 25.6399V25.9175C155.755 26.3438 155.845 26.681 156.023 26.9288C156.202 27.1767 156.449 27.2957 156.767 27.2957C157.084 27.2957 157.332 27.1767 157.51 26.9487C157.689 26.7206 157.778 26.3835 157.778 25.9572V25.6795H157.788Z" fill="white"/>
<path d="M161.872 26.1546H161V27.6616H160.504V23.9336H161.743C162.16 23.9336 162.487 24.0228 162.715 24.2211C162.943 24.4095 163.052 24.6871 163.052 25.054C163.052 25.282 162.993 25.4903 162.864 25.6588C162.735 25.8274 162.566 25.9662 162.338 26.0455L163.221 27.6319V27.6616H162.695L161.882 26.1546H161.872ZM161 25.748H161.753C162.001 25.748 162.189 25.6886 162.338 25.5597C162.487 25.4308 162.556 25.2622 162.556 25.0441C162.556 24.816 162.487 24.6376 162.348 24.5186C162.209 24.3996 162.011 24.3302 161.753 24.3302H161V25.748Z" fill="white"/>
<path d="M168.507 27.2632H170.272V27.6598H168.012V23.9219H168.507V27.2632Z" fill="white"/>
<path d="M172.847 23.9219H172.352V27.6598H172.847V23.9219Z" fill="white"/>
<path d="M177.291 26.0139H175.724V27.6598H175.238V23.9219H177.548V24.3284H175.724V25.6074H177.291V26.0139Z" fill="white"/>
<path d="M181.745 25.9364H180.119V27.265H182.003V27.6616H179.633V23.9336H181.973V24.3302H180.119V25.5398H181.745V25.9364Z" fill="white"/>
</svg>
