<svg width="24" height="19" viewBox="0 0 24 19" fill="none" xmlns="http://www.w3.org/2000/svg">
<path d="M22.7987 0.343838C22.6965 0.333304 22.5935 0.333304 22.4912 0.343838H1.49125C1.35666 0.345912 1.22296 0.366093 1.09375 0.403838L11.9312 11.1963L22.7987 0.343838Z" fill="white"/>
<path d="M23.91 1.38672L12.99 12.2617C12.709 12.5411 12.3288 12.6979 11.9325 12.6979C11.5362 12.6979 11.156 12.5411 10.875 12.2617L0.0525 1.46922C0.0192296 1.5915 0.00158901 1.7175 0 1.84422V16.8442C0 17.242 0.158035 17.6236 0.43934 17.9049C0.720644 18.1862 1.10218 18.3442 1.5 18.3442H22.5C22.8978 18.3442 23.2794 18.1862 23.5607 17.9049C23.842 17.6236 24 17.242 24 16.8442V1.84422C23.994 1.68796 23.9637 1.5336 23.91 1.38672ZM2.5275 16.8442H1.485V15.7717L6.9375 10.3642L7.995 11.4217L2.5275 16.8442ZM22.485 16.8442H21.435L15.9675 11.4217L17.025 10.3642L22.4775 15.7717L22.485 16.8442Z" fill="white"/>
</svg>
