<svg width="34" height="24" viewBox="0 0 34 24" fill="none" xmlns="http://www.w3.org/2000/svg">
<path d="M0 1.66667C0 1.22464 0.175595 0.800716 0.488155 0.488156C0.800716 0.175595 1.22464 0 1.66667 0H31.6667C32.1087 0 32.5326 0.175595 32.8452 0.488156C33.1577 0.800716 33.3333 1.22464 33.3333 1.66667C33.3333 2.10869 33.1577 2.53262 32.8452 2.84518C32.5326 3.15774 32.1087 3.33333 31.6667 3.33333H1.66667C1.22464 3.33333 0.800716 3.15774 0.488155 2.84518C0.175595 2.53262 0 2.10869 0 1.66667Z" fill="white"/>
<path d="M0 11.7199C0 11.2779 0.175595 10.8539 0.488155 10.5414C0.800716 10.2288 1.22464 10.0532 1.66667 10.0532H31.6667C32.1087 10.0532 32.5326 10.2288 32.8452 10.5414C33.1577 10.8539 33.3333 11.2779 33.3333 11.7199C33.3333 12.1619 33.1577 12.5858 32.8452 12.8984C32.5326 13.211 32.1087 13.3866 31.6667 13.3866H1.66667C1.22464 13.3866 0.800716 13.211 0.488155 12.8984C0.175595 12.5858 0 12.1619 0 11.7199Z" fill="white"/>
<path d="M1.66667 20.1064C1.22464 20.1064 0.800716 20.282 0.488155 20.5946C0.175595 20.9072 0 21.3311 0 21.7731C0 22.2151 0.175595 22.6391 0.488155 22.9516C0.800716 23.2642 1.22464 23.4398 1.66667 23.4398H31.6667C32.1087 23.4398 32.5326 23.2642 32.8452 22.9516C33.1577 22.6391 33.3333 22.2151 33.3333 21.7731C33.3333 21.3311 33.1577 20.9072 32.8452 20.5946C32.5326 20.282 32.1087 20.1064 31.6667 20.1064H1.66667Z" fill="white"/>
</svg>
