<svg width="15" height="17" viewBox="0 0 15 17" fill="none" xmlns="http://www.w3.org/2000/svg">
<path d="M13.883 7.73237C14.0004 7.85087 14.0662 8.0109 14.0662 8.17768C14.0662 8.34446 14.0004 8.5045 13.883 8.623L7.46897 15.0214C6.64846 15.8419 5.5356 16.3029 4.37522 16.3029C3.21484 16.3029 2.10199 15.8419 1.28147 15.0214C0.46096 14.2009 0 13.0881 0 11.9277C0 10.7673 0.46096 9.65445 1.28147 8.83393L9.03928 0.974558C9.32631 0.671913 9.67103 0.429791 10.0531 0.262466C10.4352 0.0951406 10.8469 0.00599786 11.264 0.000292386C11.681 -0.00541309 12.095 0.0724341 12.4815 0.229245C12.8681 0.386056 13.2193 0.618658 13.5145 0.913339C13.8097 1.20802 14.0429 1.55882 14.2004 1.94505C14.3579 2.33128 14.4365 2.74514 14.4315 3.16222C14.4265 3.5793 14.3381 3.99117 14.1715 4.37354C14.0048 4.75591 13.7633 5.10106 13.4612 5.38862L5.70335 13.248C5.52994 13.4241 5.32317 13.5638 5.09513 13.6591C4.86709 13.7543 4.62235 13.8031 4.37522 13.8027C4.00371 13.8036 3.64031 13.6941 3.33112 13.4882C3.02193 13.2822 2.78089 12.989 2.6386 12.6458C2.4963 12.3027 2.45916 11.9249 2.53189 11.5606C2.60462 11.1963 2.78394 10.8618 3.0471 10.5996L9.55491 3.99018C9.61122 3.92702 9.67978 3.87595 9.75642 3.84006C9.83306 3.80418 9.91619 3.78424 10.0008 3.78144C10.0853 3.77864 10.1696 3.79305 10.2485 3.82379C10.3273 3.85453 10.3991 3.90096 10.4594 3.96026C10.5198 4.01957 10.5675 4.09052 10.5996 4.16881C10.6318 4.24709 10.6477 4.33109 10.6464 4.4157C10.6451 4.50032 10.6266 4.58379 10.5921 4.66105C10.5575 4.73831 10.5077 4.80776 10.4455 4.86518L3.93772 11.4824C3.87848 11.5404 3.83139 11.6097 3.7992 11.6862C3.76701 11.7626 3.75036 11.8447 3.75022 11.9277C3.74928 12.094 3.81383 12.2539 3.92991 12.373C4.04988 12.4877 4.20926 12.552 4.37522 12.5527C4.5415 12.5536 4.70147 12.4891 4.82053 12.373L12.5705 4.50581C12.7466 4.3324 12.8864 4.12564 12.9816 3.89759C13.0768 3.66955 13.1257 3.42481 13.1252 3.17768C13.1261 2.80617 13.0167 2.44277 12.8107 2.13358C12.6047 1.82439 12.3116 1.58335 11.9684 1.44106C11.6252 1.29876 11.2475 1.26163 10.8832 1.33435C10.5188 1.40708 10.1843 1.5864 9.9221 1.84956L2.1721 9.71675C1.86945 10.0038 1.62733 10.3485 1.46001 10.7306C1.29268 11.1126 1.20354 11.5244 1.19783 11.9414C1.19213 12.3585 1.26997 12.7725 1.42678 13.159C1.5836 13.5455 1.8162 13.8967 2.11088 14.1919C2.40556 14.4871 2.75636 14.7204 3.14259 14.8778C3.52882 15.0353 3.94268 15.1139 4.35976 15.109C4.77684 15.104 5.18871 15.0156 5.57108 14.8489C5.95345 14.6823 6.29859 14.4408 6.58616 14.1386L12.9924 7.73237C13.1109 7.61501 13.2709 7.54917 13.4377 7.54917C13.6045 7.54917 13.7645 7.61501 13.883 7.73237Z" fill="white"/>
</svg>
