<svg width="26" height="26" viewBox="0 0 26 26" fill="none" xmlns="http://www.w3.org/2000/svg">
<path d="M13 25C6.37237 25 1 19.6276 1 13C1 6.37235 6.37237 1 13 1C19.6276 1 25 6.37235 25 13C25 19.6276 19.6276 25 13 25Z" stroke="white" stroke-width="0.4321" stroke-miterlimit="10"/>
<path d="M7.07077 13.0025C7.07077 16.2776 9.72596 18.9276 12.9959 18.9276C13.3781 18.9276 13.7449 18.8915 14.1065 18.8243C14.6282 19.1394 15.2378 19.3202 15.8938 19.3202C17.8052 19.3202 19.3549 17.7705 19.3549 15.8592C19.3549 15.1876 19.1638 14.5626 18.8331 14.0357C18.89 13.6999 18.9261 13.3538 18.9261 13.0025C18.9261 9.72747 16.2709 7.07744 13.001 7.07744C12.6291 7.07744 12.2623 7.11361 11.9111 7.18076C11.3893 6.86049 10.7746 6.67969 10.1134 6.67969C8.20206 6.67969 6.65234 8.22941 6.65234 10.1407C6.65234 10.8071 6.84348 11.427 7.16892 11.9539C7.10176 12.2948 7.07077 12.6461 7.07077 13.0025ZM13.0579 8.79247C14.9692 8.90612 16.0901 9.74297 16.1986 10.5282C16.2503 11.0396 15.9093 11.4425 15.3204 11.4425C14.4578 11.4425 14.37 10.2905 12.8771 10.2905C12.2055 10.2905 11.6373 10.5695 11.6373 11.1739C11.6373 12.4395 16.4104 11.7059 16.4104 14.4903C16.4104 16.0968 15.1241 17.1506 13.2077 17.1506C11.5185 17.1506 9.82411 16.3861 9.82927 15.0688C9.83444 14.6711 10.1289 14.3043 10.5215 14.3043C11.5133 14.3043 11.5081 15.7817 13.0888 15.7817C14.1995 15.7817 14.5766 15.1773 14.5766 14.7537C14.5766 13.2298 9.77761 14.1648 9.77761 11.2979C9.78278 9.74813 11.0587 8.67366 13.0579 8.79247Z" fill="white"/>
</svg>
