<svg width="37" height="37" viewBox="0 0 37 37" fill="none" xmlns="http://www.w3.org/2000/svg">
<path d="M12.2727 12.2727C12.359 12.1863 12.4614 12.1177 12.5742 12.0709C12.687 12.0241 12.8079 12 12.93 12C13.0521 12 13.1731 12.0241 13.2858 12.0709C13.3986 12.1177 13.5011 12.1863 13.5873 12.2727L18.5002 17.1875L23.4132 12.2727C23.4995 12.1864 23.602 12.118 23.7147 12.0712C23.8275 12.0245 23.9484 12.0005 24.0705 12.0005C24.1925 12.0005 24.3134 12.0245 24.4262 12.0712C24.539 12.118 24.6414 12.1864 24.7277 12.2727C24.8141 12.3591 24.8825 12.4615 24.9292 12.5743C24.976 12.6871 25 12.808 25 12.93C25 13.0521 24.976 13.173 24.9292 13.2857C24.8825 13.3985 24.8141 13.501 24.7277 13.5873L19.813 18.5002L24.7277 23.4132C24.8141 23.4995 24.8825 23.602 24.9292 23.7147C24.976 23.8275 25 23.9484 25 24.0705C25 24.1925 24.976 24.3134 24.9292 24.4262C24.8825 24.539 24.8141 24.6414 24.7277 24.7277C24.6414 24.8141 24.539 24.8825 24.4262 24.9292C24.3134 24.976 24.1925 25 24.0705 25C23.9484 25 23.8275 24.976 23.7147 24.9292C23.602 24.8825 23.4995 24.8141 23.4132 24.7277L18.5002 19.813L13.5873 24.7277C13.501 24.8141 13.3985 24.8825 13.2857 24.9292C13.173 24.976 13.0521 25 12.93 25C12.808 25 12.6871 24.976 12.5743 24.9292C12.4615 24.8825 12.3591 24.8141 12.2727 24.7277C12.1864 24.6414 12.118 24.539 12.0712 24.4262C12.0245 24.3134 12.0005 24.1925 12.0005 24.0705C12.0005 23.9484 12.0245 23.8275 12.0712 23.7147C12.118 23.602 12.1864 23.4995 12.2727 23.4132L17.1875 18.5002L12.2727 13.5873C12.1863 13.5011 12.1177 13.3986 12.0709 13.2858C12.0241 13.1731 12 13.0521 12 12.93C12 12.8079 12.0241 12.687 12.0709 12.5742C12.1177 12.4614 12.1863 12.359 12.2727 12.2727Z" fill="white"/>
<circle opacity="0.15" cx="18.5" cy="18.5" r="18.5" fill="white"/>
</svg>
