<svg width="359" height="350" viewBox="0 0 359 350" fill="none" xmlns="http://www.w3.org/2000/svg">
<path d="M303.625 75.437C302.004 75.437 300.688 74.1208 300.688 72.5007C300.688 70.8807 302.004 69.5645 303.625 69.5645C305.246 69.5645 306.563 70.8807 306.563 72.5007C306.563 74.0954 305.246 75.437 303.625 75.437ZM303.625 71.1085C302.866 71.1085 302.258 71.716 302.258 72.4754C302.258 73.2348 302.866 73.8423 303.625 73.8423C304.385 73.8423 304.993 73.2348 304.993 72.4754C304.993 71.7414 304.36 71.1085 303.625 71.1085Z" fill="#DEDEDE"/>
<path d="M247.607 158.742C247.506 158.59 247.379 158.488 247.202 158.438C247.025 158.387 246.848 158.412 246.696 158.514L244.442 159.83L243.125 157.577C243.023 157.425 242.897 157.324 242.719 157.273C242.542 157.223 242.365 157.248 242.213 157.349C242.061 157.451 241.96 157.577 241.909 157.754C241.858 157.932 241.884 158.109 241.985 158.261L243.302 160.513L241.048 161.83C240.896 161.931 240.795 162.058 240.744 162.235C240.693 162.412 240.719 162.589 240.82 162.741C240.921 162.893 241.048 162.994 241.225 163.045C241.403 163.095 241.58 163.07 241.732 162.969L243.986 161.652L245.303 163.905C245.455 164.158 245.733 164.285 246.012 164.234C246.088 164.209 246.164 164.184 246.214 164.158C246.544 163.981 246.645 163.551 246.442 163.222L245.125 160.969L247.379 159.653C247.709 159.476 247.81 159.071 247.607 158.742Z" fill="#DEDEDE"/>
<path d="M253.305 173.575C251.684 173.575 250.367 172.258 250.367 170.638C250.367 169.018 251.684 167.702 253.305 167.702C254.926 167.702 256.243 169.018 256.243 170.638C256.243 172.258 254.926 173.575 253.305 173.575ZM253.305 169.272C252.545 169.272 251.937 169.879 251.937 170.638C251.937 171.398 252.545 172.005 253.305 172.005C254.065 172.005 254.673 171.398 254.673 170.638C254.673 169.879 254.065 169.272 253.305 169.272Z" fill="#DEDEDE"/>
<path d="M345.339 266.727C345.187 266.803 345.061 266.954 344.985 267.106C344.934 267.283 344.934 267.461 345.01 267.613L346.15 269.941L343.82 271.08C343.668 271.156 343.541 271.308 343.465 271.46C343.414 271.637 343.414 271.814 343.49 271.966C343.566 272.118 343.718 272.245 343.87 272.321C344.047 272.371 344.225 272.371 344.377 272.295L346.707 271.156L347.846 273.485C347.922 273.637 348.074 273.764 348.226 273.84C348.404 273.89 348.581 273.89 348.733 273.814C348.885 273.738 349.011 273.586 349.087 273.434C349.138 273.257 349.138 273.08 349.062 272.928L347.922 270.599L350.252 269.46C350.506 269.334 350.658 269.055 350.632 268.777C350.632 268.701 350.607 268.625 350.556 268.549C350.404 268.22 349.999 268.068 349.645 268.245L347.315 269.384L346.175 267.056C346.074 266.701 345.668 266.549 345.339 266.727Z" fill="#DEDEDE"/>
<path d="M284.172 324.439C282.551 324.439 281.234 323.123 281.234 321.503C281.234 319.883 282.551 318.566 284.172 318.566C285.793 318.566 287.11 319.883 287.11 321.503C287.11 323.123 285.793 324.439 284.172 324.439ZM284.172 320.136C283.412 320.136 282.805 320.743 282.805 321.503C282.805 322.262 283.412 322.87 284.172 322.87C284.932 322.87 285.54 322.262 285.54 321.503C285.54 320.743 284.907 320.136 284.172 320.136Z" fill="#DEDEDE"/>
<path d="M1.28588 301.329C1.15925 301.456 1.08327 301.607 1.05795 301.785C1.05795 301.962 1.1086 302.139 1.23523 302.266L2.98271 304.215L1.03263 305.961C0.905997 306.088 0.830013 306.24 0.804688 306.417C0.804688 306.594 0.855342 306.771 0.981971 306.898C1.1086 307.024 1.26055 307.1 1.43783 307.126C1.61511 307.126 1.7924 307.075 1.91903 306.948L3.86911 305.202L5.61659 307.151C5.74321 307.278 5.89517 307.353 6.07245 307.379C6.24973 307.379 6.42701 307.328 6.55364 307.202C6.68027 307.075 6.75625 306.923 6.78157 306.746C6.78157 306.569 6.73093 306.392 6.6043 306.265L4.85681 304.316L6.8069 302.569C7.03483 302.367 7.08549 302.063 6.98418 301.81C6.95886 301.734 6.90821 301.683 6.85755 301.607C6.6043 301.329 6.17375 301.304 5.89517 301.557L3.94509 303.303L2.19761 301.354C1.995 301.101 1.56447 301.076 1.28588 301.329Z" fill="#DEDEDE"/>
<path d="M58.5706 349.195C56.9498 349.195 55.6328 347.878 55.6328 346.258C55.6328 344.639 56.9498 343.322 58.5706 343.322C60.1915 343.322 61.5084 344.639 61.5084 346.258C61.5084 347.878 60.1915 349.195 58.5706 349.195ZM58.5706 344.866C57.8108 344.866 57.203 345.474 57.203 346.233C57.203 346.993 57.8108 347.6 58.5706 347.6C59.3304 347.6 59.9382 346.993 59.9382 346.233C59.9382 345.499 59.3304 344.866 58.5706 344.866Z" fill="#DEDEDE"/>
<path d="M5.3155 123.025C5.18887 123.151 5.11289 123.303 5.11289 123.506C5.11289 123.683 5.16354 123.86 5.29017 123.987L7.06298 125.885L5.16354 127.657C5.03691 127.784 4.96094 127.935 4.96094 128.138C4.96094 128.315 5.01158 128.492 5.13821 128.619C5.26484 128.745 5.4168 128.821 5.6194 128.821C5.79668 128.821 5.97397 128.771 6.1006 128.644L8.00003 126.872L9.77284 128.771C9.89947 128.897 10.0514 128.973 10.254 128.973C10.4313 128.973 10.6086 128.923 10.7352 128.796C10.8618 128.67 10.9378 128.518 10.9378 128.315C10.9378 128.138 10.8872 127.961 10.7605 127.834L8.98774 125.936L10.8872 124.164C11.0898 123.961 11.1658 123.658 11.0391 123.404C11.0138 123.329 10.9632 123.278 10.9125 123.227C10.6592 122.949 10.2287 122.949 9.95011 123.202L8.05068 124.974L6.27787 123.075C5.99929 122.772 5.56876 122.772 5.3155 123.025Z" fill="#DEDEDE"/>
<path d="M24.9925 143.554C23.3716 143.554 22.0547 142.238 22.0547 140.618C22.0547 138.998 23.3716 137.682 24.9925 137.682C26.6133 137.682 27.9303 138.998 27.9303 140.618C27.9303 142.238 26.6133 143.554 24.9925 143.554ZM24.9925 139.251C24.2327 139.251 23.6249 139.859 23.6249 140.618C23.6249 141.377 24.2327 141.985 24.9925 141.985C25.7522 141.985 26.3601 141.377 26.3601 140.618C26.3601 139.859 25.7269 139.251 24.9925 139.251Z" fill="#DEDEDE"/>
<path d="M354.047 147.705C353.869 147.73 353.717 147.831 353.591 147.958C353.489 148.11 353.439 148.287 353.464 148.464L353.844 151.046L351.261 151.426C351.084 151.451 350.932 151.552 350.805 151.679C350.704 151.831 350.653 152.008 350.678 152.185C350.704 152.362 350.805 152.514 350.932 152.641C351.084 152.742 351.261 152.793 351.438 152.767L354.021 152.388L354.401 154.969C354.426 155.147 354.528 155.299 354.654 155.425C354.806 155.526 354.984 155.577 355.161 155.552C355.338 155.526 355.49 155.425 355.617 155.299C355.718 155.147 355.769 154.969 355.743 154.792L355.364 152.21L357.947 151.831C358.225 151.78 358.453 151.578 358.504 151.299C358.529 151.223 358.529 151.147 358.504 151.071C358.453 150.692 358.099 150.438 357.744 150.489L355.161 150.869L354.781 148.287C354.756 147.907 354.401 147.654 354.047 147.705Z" fill="#DEDEDE"/>
<path d="M144.886 28.7348C144.709 28.7095 144.531 28.7602 144.379 28.8867C144.227 28.988 144.151 29.1652 144.126 29.3424L143.847 31.9243L141.29 31.6458C141.112 31.6205 140.935 31.6711 140.783 31.7977C140.631 31.8989 140.555 32.0761 140.53 32.2533C140.504 32.4305 140.555 32.6077 140.682 32.7596C140.783 32.9115 140.96 32.9874 141.138 33.0127L143.721 33.2912L143.442 35.8731C143.417 36.0503 143.468 36.2274 143.594 36.3793C143.721 36.5312 143.873 36.6071 144.05 36.6324C144.227 36.6578 144.405 36.6071 144.557 36.4806C144.709 36.3793 144.784 36.2021 144.81 36.0249L145.088 33.443L147.672 33.7215C147.976 33.7468 148.229 33.5949 148.355 33.3418C148.381 33.2658 148.406 33.1899 148.406 33.114C148.457 32.7343 148.178 32.4052 147.798 32.3799L145.215 32.1015L145.494 29.5195C145.544 29.1145 145.266 28.7855 144.886 28.7348Z" fill="#DEDEDE"/>
<path d="M288.28 0.764648C281.518 0.764648 276.048 6.23222 276.048 12.9907V125.835C276.048 134.695 268.856 141.858 260.017 141.858H180.367V15.9017C180.367 7.54848 187.154 0.764648 195.512 0.764648H288.28Z" fill="#F2F2F2"/>
<path d="M260.017 141.858H219.547V73.8677C219.547 67.1092 225.017 61.6416 231.779 61.6416C235.148 61.6416 238.212 63.0085 240.415 65.2107C242.619 67.4129 243.986 70.4758 243.986 73.8424V125.81C243.986 134.669 251.153 141.858 260.017 141.858Z" fill="#DEDEDE"/>
<path d="M231.75 61.667C224.988 61.667 219.518 67.1346 219.518 73.8931V301.329C219.518 305.505 217.821 309.302 215.086 312.036C212.351 314.77 208.552 316.466 204.373 316.466H86.7854C78.4279 316.466 71.6406 309.682 71.6406 301.329V76.8041C71.6406 68.4508 78.4279 61.667 86.7854 61.667H231.75Z" fill="#F2F2F2"/>
<path d="M204.375 316.441H52.4964C44.1389 316.441 37.3516 309.657 37.3516 301.303V292.014H189.256V301.303C189.23 309.682 196.018 316.441 204.375 316.441Z" fill="#DEDEDE"/>
<path d="M180.367 62.0977H231.753" stroke="#DEDEDE" stroke-width="5" stroke-miterlimit="10"/>
<path d="M287.954 287.103C285.7 289.356 282.053 289.356 279.799 287.103L244.825 252.12L240.367 247.665C243.609 245.539 246.369 242.755 248.522 239.515L287.954 278.927C290.208 281.205 290.208 284.85 287.954 287.103Z" fill="#9C9C9C"/>
<path d="M250.288 241.312L259.405 250.424C257.278 253.664 254.492 256.423 251.25 258.575L246.59 253.917L242.133 249.462C245.375 247.311 248.16 244.552 250.288 241.312Z" fill="#5E5E5E"/>
<path d="M259.383 222.327C259.332 220.859 259.155 219.391 258.927 217.974C257.559 209.899 253.38 202.761 247.454 197.597C241.351 192.281 233.373 189.066 224.661 189.066C205.464 189.066 189.914 204.608 189.914 223.821C189.914 225.137 189.99 226.453 190.142 227.744C190.598 231.794 191.738 235.617 193.46 239.11C195.942 244.147 199.589 248.476 204.071 251.792C204.806 252.323 205.54 252.829 206.325 253.31C211.644 256.626 217.95 258.55 224.686 258.55C232.208 258.55 239.173 256.171 244.846 252.121C247.986 249.868 250.747 247.134 253.001 243.97C255.255 240.806 257.002 237.262 258.091 233.44C258.977 230.377 259.433 227.162 259.433 223.821C259.408 223.315 259.408 222.834 259.383 222.327ZM224.661 252.374C218.406 252.374 212.631 250.374 207.921 246.957C203.362 243.641 199.791 239.034 197.816 233.642C196.701 230.579 196.068 227.263 196.068 223.796C196.068 222.505 196.144 221.214 196.322 219.948C197.74 209.367 204.983 200.609 214.708 196.989C217.798 195.85 221.141 195.217 224.636 195.217C225.902 195.217 227.143 195.293 228.359 195.471C234.158 196.23 239.401 198.711 243.554 202.406C249.455 207.646 253.203 215.29 253.203 223.796C253.203 224.226 253.203 224.656 253.178 225.087C253.077 227.188 252.773 229.213 252.241 231.187C251.43 234.174 250.164 236.984 248.493 239.515C246.365 242.755 243.579 245.514 240.338 247.666C239.553 248.197 238.717 248.678 237.881 249.108C236.083 250.045 234.158 250.83 232.132 251.361C229.777 252.045 227.244 252.374 224.661 252.374Z" fill="#B8B8B8"/>
<path d="M203.011 226.96C201.542 226.96 200.352 225.77 200.352 224.302C200.352 217.695 202.935 211.468 207.62 206.785C212.305 202.102 218.535 199.521 225.146 199.521C226.614 199.521 227.805 200.71 227.805 202.178C227.805 203.646 226.614 204.836 225.146 204.836C219.954 204.836 215.066 206.861 211.394 210.532C207.721 214.202 205.695 219.087 205.695 224.276C205.695 225.77 204.48 226.96 203.011 226.96Z" fill="white"/>
<path d="M112.51 175.222L117.793 183.224V175.154C117.793 174.628 117.909 174.238 118.133 173.975C118.357 173.712 118.658 173.585 119.048 173.585C119.447 173.585 119.758 173.712 119.982 173.975C120.205 174.238 120.322 174.628 120.322 175.154V185.836C120.322 187.025 119.826 187.619 118.843 187.619C118.6 187.619 118.376 187.58 118.182 187.512C117.987 187.444 117.802 187.327 117.627 187.171C117.452 187.015 117.296 186.839 117.151 186.625C117.005 186.42 116.859 186.206 116.703 185.992L111.537 178.088V186.05C111.537 186.567 111.42 186.956 111.177 187.229C110.934 187.492 110.632 187.629 110.253 187.629C109.864 187.629 109.552 187.492 109.319 187.229C109.085 186.956 108.969 186.567 108.969 186.06V175.563C108.969 175.115 109.017 174.774 109.115 174.521C109.231 174.238 109.426 174.014 109.698 173.838C109.971 173.663 110.263 173.575 110.574 173.575C110.817 173.575 111.031 173.614 111.206 173.692C111.381 173.77 111.537 173.877 111.673 174.014C111.81 174.16 111.946 174.335 112.082 174.55C112.218 174.764 112.364 174.988 112.51 175.222Z" fill="#03275C"/>
<path d="M132.598 182.473C132.598 183.223 132.482 183.925 132.248 184.559C132.015 185.192 131.674 185.738 131.227 186.196C130.779 186.654 130.254 187.005 129.641 187.249C129.028 187.492 128.328 187.619 127.559 187.619C126.79 187.619 126.109 187.492 125.497 187.249C124.884 187.005 124.358 186.644 123.911 186.186C123.463 185.728 123.123 185.182 122.889 184.559C122.656 183.935 122.539 183.243 122.539 182.483C122.539 181.713 122.656 181.021 122.889 180.378C123.123 179.744 123.463 179.198 123.901 178.75C124.339 178.302 124.864 177.951 125.487 177.707C126.109 177.464 126.8 177.337 127.549 177.337C128.318 177.337 129.009 177.464 129.631 177.707C130.254 177.951 130.789 178.302 131.227 178.76C131.674 179.218 132.005 179.764 132.239 180.387C132.472 181.011 132.598 181.723 132.598 182.473ZM130.059 182.473C130.059 181.44 129.836 180.641 129.378 180.066C128.921 179.491 128.318 179.208 127.549 179.208C127.053 179.208 126.625 179.335 126.246 179.588C125.866 179.842 125.584 180.222 125.38 180.719C125.176 181.216 125.078 181.801 125.078 182.473C125.078 183.136 125.176 183.711 125.38 184.208C125.584 184.705 125.866 185.085 126.236 185.338C126.606 185.601 127.043 185.728 127.549 185.728C128.318 185.728 128.921 185.436 129.378 184.861C129.836 184.296 130.059 183.496 130.059 182.473Z" fill="#03275C"/>
<path d="M141.201 173.81H144.781C145.715 173.81 146.512 173.897 147.174 174.073C147.836 174.248 148.448 174.57 148.984 175.047C150.394 176.256 151.104 178.098 151.104 180.573C151.104 181.392 151.036 182.133 150.89 182.805C150.744 183.478 150.53 184.082 150.239 184.628C149.947 185.164 149.567 185.651 149.1 186.08C148.74 186.411 148.341 186.674 147.904 186.869C147.476 187.064 147.009 187.21 146.512 187.288C146.016 187.366 145.452 187.405 144.829 187.405H141.249C140.753 187.405 140.374 187.327 140.121 187.181C139.868 187.025 139.702 186.82 139.625 186.538C139.547 186.265 139.508 185.904 139.508 185.466V175.496C139.508 174.901 139.644 174.472 139.907 174.209C140.179 173.936 140.607 173.81 141.201 173.81ZM142.261 175.983V185.203H144.343C144.8 185.203 145.16 185.193 145.413 185.164C145.676 185.134 145.938 185.076 146.221 184.978C146.503 184.881 146.736 184.745 146.94 184.559C147.855 183.78 148.322 182.444 148.322 180.534C148.322 179.189 148.118 178.195 147.719 177.523C147.31 176.86 146.814 176.431 146.221 176.246C145.627 176.061 144.917 175.973 144.071 175.973H142.261V175.983Z" fill="#03275C"/>
<path d="M159.722 186.196C159.109 186.674 158.525 187.024 157.951 187.268C157.377 187.502 156.745 187.629 156.035 187.629C155.383 187.629 154.819 187.502 154.332 187.249C153.846 186.995 153.466 186.644 153.204 186.206C152.941 185.767 152.805 185.29 152.805 184.783C152.805 184.091 153.019 183.506 153.457 183.009C153.894 182.522 154.497 182.19 155.256 182.025C155.412 181.986 155.811 181.908 156.453 181.771C157.085 181.645 157.63 181.518 158.087 181.411C158.545 181.304 159.031 181.167 159.566 181.021C159.537 180.358 159.401 179.861 159.167 179.549C158.934 179.237 158.438 179.081 157.688 179.081C157.046 179.081 156.57 179.169 156.239 179.354C155.918 179.53 155.636 179.803 155.402 180.163C155.169 180.524 155.003 180.758 154.916 180.875C154.819 180.992 154.614 181.05 154.303 181.05C154.021 181.05 153.778 180.962 153.564 180.777C153.359 180.592 153.252 180.358 153.252 180.076C153.252 179.627 153.408 179.198 153.719 178.779C154.03 178.36 154.527 178.009 155.188 177.746C155.85 177.473 156.686 177.337 157.679 177.337C158.788 177.337 159.663 177.464 160.296 177.727C160.928 177.99 161.376 178.409 161.638 178.974C161.901 179.54 162.027 180.3 162.027 181.235C162.027 181.83 162.027 182.327 162.027 182.746C162.027 183.155 162.018 183.623 162.018 184.13C162.018 184.607 162.096 185.104 162.251 185.621C162.407 186.138 162.485 186.469 162.485 186.615C162.485 186.878 162.358 187.112 162.115 187.327C161.872 187.541 161.599 187.648 161.288 187.648C161.025 187.648 160.772 187.521 160.52 187.278C160.267 187.005 160.004 186.654 159.722 186.196ZM159.556 182.532C159.187 182.668 158.652 182.814 157.941 182.96C157.231 183.116 156.745 183.223 156.472 183.292C156.2 183.36 155.937 183.506 155.694 183.711C155.451 183.915 155.324 184.208 155.324 184.578C155.324 184.958 155.47 185.29 155.762 185.553C156.054 185.826 156.433 185.952 156.9 185.952C157.397 185.952 157.864 185.845 158.282 185.621C158.7 185.407 159.012 185.124 159.216 184.773C159.44 184.393 159.556 183.76 159.556 182.882V182.532Z" fill="#03275C"/>
<path d="M164.255 177.561H164.538V176.041C164.538 175.631 164.547 175.31 164.567 175.086C164.586 174.852 164.645 174.657 164.752 174.491C164.849 174.316 164.995 174.179 165.18 174.072C165.365 173.965 165.569 173.906 165.802 173.906C166.123 173.906 166.415 174.023 166.668 174.267C166.843 174.423 166.95 174.627 166.999 174.852C167.048 175.086 167.067 175.417 167.067 175.836V177.561H167.991C168.351 177.561 168.624 177.649 168.808 177.814C168.993 177.98 169.091 178.204 169.091 178.467C169.091 178.808 168.954 179.042 168.692 179.179C168.419 179.315 168.04 179.383 167.544 179.383H167.077V184.032C167.077 184.432 167.086 184.734 167.116 184.948C167.145 185.163 167.213 185.338 167.339 185.465C167.456 185.601 167.651 185.66 167.923 185.66C168.069 185.66 168.273 185.631 168.526 185.582C168.779 185.533 168.974 185.504 169.12 185.504C169.324 185.504 169.509 185.582 169.674 185.748C169.84 185.913 169.918 186.118 169.918 186.352C169.918 186.761 169.694 187.073 169.256 187.287C168.808 187.502 168.176 187.609 167.339 187.609C166.551 187.609 165.948 187.473 165.549 187.21C165.141 186.946 164.878 186.576 164.752 186.108C164.625 185.64 164.567 185.017 164.567 184.227V179.383H164.236C163.876 179.383 163.594 179.296 163.399 179.12C163.205 178.945 163.117 178.731 163.117 178.467C163.117 178.204 163.214 177.98 163.419 177.814C163.584 177.639 163.876 177.561 164.255 177.561Z" fill="#03275C"/>
<path d="M177.206 186.196C176.593 186.674 176.01 187.024 175.436 187.268C174.862 187.502 174.229 187.629 173.519 187.629C172.867 187.629 172.303 187.502 171.816 187.249C171.33 186.995 170.951 186.644 170.688 186.206C170.425 185.767 170.289 185.29 170.289 184.783C170.289 184.091 170.503 183.506 170.941 183.009C171.379 182.522 171.982 182.19 172.741 182.025C172.896 181.986 173.295 181.908 173.937 181.771C174.57 181.645 175.114 181.518 175.572 181.411C176.029 181.304 176.515 181.167 177.05 181.021C177.021 180.358 176.885 179.861 176.652 179.549C176.418 179.237 175.922 179.081 175.173 179.081C174.531 179.081 174.054 179.169 173.723 179.354C173.402 179.53 173.12 179.803 172.887 180.163C172.653 180.524 172.488 180.758 172.4 180.875C172.303 180.992 172.099 181.05 171.787 181.05C171.505 181.05 171.262 180.962 171.048 180.777C170.844 180.592 170.737 180.358 170.737 180.076C170.737 179.627 170.892 179.198 171.204 178.779C171.515 178.36 172.011 178.009 172.673 177.746C173.334 177.473 174.171 177.337 175.163 177.337C176.272 177.337 177.148 177.464 177.78 177.727C178.412 177.99 178.86 178.409 179.123 178.974C179.385 179.54 179.512 180.3 179.512 181.235C179.512 181.83 179.512 182.327 179.512 182.746C179.512 183.155 179.502 183.623 179.502 184.13C179.502 184.607 179.58 185.104 179.736 185.621C179.891 186.138 179.969 186.469 179.969 186.615C179.969 186.878 179.843 187.112 179.599 187.327C179.356 187.541 179.084 187.648 178.772 187.648C178.51 187.648 178.257 187.521 178.004 187.278C177.761 187.005 177.488 186.654 177.206 186.196ZM177.041 182.532C176.671 182.668 176.136 182.814 175.426 182.96C174.716 183.116 174.229 183.223 173.957 183.292C173.684 183.36 173.422 183.506 173.178 183.711C172.935 183.915 172.809 184.208 172.809 184.578C172.809 184.958 172.955 185.29 173.247 185.553C173.538 185.826 173.918 185.952 174.385 185.952C174.881 185.952 175.348 185.845 175.766 185.621C176.185 185.407 176.496 185.124 176.7 184.773C176.924 184.393 177.041 183.76 177.041 182.882V182.532Z" fill="#03275C"/>
</svg>
