<svg width="56" height="53" viewBox="0 0 56 53" fill="none" xmlns="http://www.w3.org/2000/svg">
<g clip-path="url(#clip0_364_132260)">
<path d="M20.1716 41.1405C19.8436 41.1405 19.5831 41.1405 19.3227 41.1405C14.3931 41.1405 9.46357 41.1691 4.52438 41.1118C3.67545 41.1118 2.76865 40.8824 2.00655 40.5193C0.67528 39.879 0 38.7227 0 37.2319C0 26.1369 0 15.0323 0 3.93725C0 1.92084 1.51456 0.286693 3.56934 0.0573386C3.98415 0.00955643 4.40861 0 4.82343 0C20.2777 0 35.732 0 51.1862 0C52.2088 0 53.2121 0.086008 54.1092 0.640281C55.3151 1.38568 55.9904 2.456 55.9904 3.87991C55.9904 15.0036 55.9904 26.1177 55.9904 37.2414C55.9904 39.4967 54.1671 41.1213 51.6589 41.1309C46.7101 41.15 41.7516 41.1309 36.8028 41.1309C36.5423 41.1309 36.2818 41.1309 35.9731 41.1309C35.8574 42.9848 35.9731 44.7815 36.4941 46.5207C36.5326 46.6545 36.8606 46.7788 37.0536 46.7883C38.5681 46.8074 40.0923 46.7979 41.6069 46.7979C43.0925 46.7979 44.0379 47.4381 44.4817 48.7283C44.9447 50.0948 44.5588 51.7385 43.4591 52.4457C42.9575 52.7611 42.2725 52.9331 41.6744 52.9331C33.2431 52.9618 24.8117 52.9522 16.3804 52.9522C15.7437 52.9522 15.0973 52.9044 14.4703 52.9522C12.0586 53.1911 11.0264 50.8594 11.4219 49.0914C11.7692 47.5719 12.7628 46.7788 14.3256 46.7788C15.8884 46.7788 17.4512 46.7692 19.014 46.7788C19.4288 46.7788 19.6217 46.6832 19.7375 46.2436C20.1426 44.5808 20.2584 42.8988 20.1716 41.1022V41.1405ZM53.8873 31.9758V31.4598C53.8873 22.3047 53.8873 13.1401 53.8873 3.98503C53.8873 3.00072 53.2796 2.3031 52.2667 2.15975C51.8519 2.10242 51.437 2.10242 51.0126 2.10242C35.6644 2.10242 20.3259 2.10242 4.97778 2.10242C4.66908 2.10242 4.36038 2.10242 4.05168 2.13109C2.74935 2.23621 2.11266 2.91471 2.11266 4.19528C2.11266 13.2261 2.11266 22.2474 2.11266 31.2782V31.9854H53.8777L53.8873 31.9758ZM53.8873 34.1451H2.11266C2.11266 35.2441 2.11266 36.2953 2.11266 37.337C2.11266 37.9582 2.43101 38.4551 2.99053 38.6845C3.48252 38.8851 4.04203 39.0285 4.57261 39.0285C20.1812 39.0476 35.7898 39.0476 51.3984 39.0285C51.794 39.0285 52.1991 38.9903 52.5657 38.8756C53.3568 38.6462 53.8391 38.0537 53.8488 37.3179C53.868 36.2762 53.8488 35.225 53.8488 34.126L53.8873 34.1451ZM21.9466 46.7788H34.1885L33.7158 41.1978H22.4289L21.9466 46.7788ZM28.0048 48.9098C23.4901 48.9098 18.9754 48.9098 14.4606 48.9098C13.7371 48.9098 13.496 49.1296 13.4574 49.8081C13.4188 50.6204 13.6792 50.888 14.5282 50.888C22.0624 50.888 29.5869 50.888 37.1211 50.888C38.6164 50.888 40.1116 50.9071 41.6165 50.8689C41.877 50.8689 42.2532 50.7351 42.3883 50.544C42.9189 49.7508 42.4269 48.9003 41.4911 48.9003C36.9957 48.9003 32.5099 48.9003 28.0145 48.9003L28.0048 48.9098Z" fill="#0B3B79"/>
<path d="M24.0594 23.3545C27.3683 23.3545 30.6289 23.3545 33.8799 23.3545C34.3623 23.3545 34.8543 23.3545 35.3173 23.4692C36.9669 23.861 37.9799 25.5238 37.5843 27.1293C37.1792 28.7921 35.5103 29.8338 33.851 29.4515C32.2014 29.0788 31.1692 27.4733 31.5068 25.8296C31.5261 25.7245 31.5358 25.6194 31.555 25.476H25.5065C25.5065 26.0208 25.5836 26.5464 25.4968 27.0433C25.246 28.4672 24.0209 29.4706 22.5835 29.5089C21.0979 29.5471 19.7955 28.5914 19.4482 27.2058C19.0913 25.7914 19.7376 24.3102 21.0882 23.7081C21.6188 23.4787 21.8021 23.106 22.0432 22.6569C22.6414 21.5483 22.5449 20.5354 22.0818 19.379C20.7216 15.9578 19.4772 12.4888 18.2038 9.03897C18.0398 8.58982 17.8276 8.37958 17.3066 8.4178C16.6507 8.46559 15.985 8.44647 15.329 8.4178C14.6827 8.39869 14.2679 8.00688 14.2389 7.42393C14.2196 6.81232 14.6248 6.35361 15.3001 6.3345C16.4191 6.30583 17.5478 6.31539 18.6668 6.3345C19.1781 6.3345 19.5061 6.64031 19.6991 7.11813C20.0174 7.93043 20.3743 8.72361 20.6637 9.54546C20.8181 9.99462 21.0689 10.1093 21.5223 10.1188C27.0886 10.224 32.6548 10.3482 38.221 10.4724C39.533 10.5011 39.9285 11.0649 39.4751 12.269C38.6069 14.5913 37.7194 16.9135 36.8705 19.2452C36.5135 20.2296 35.8672 20.7743 34.806 20.889C31.7866 21.2043 28.7768 21.5483 25.7573 21.8733C24.291 22.0357 24.6093 21.7968 24.0691 23.3258L24.0594 23.3545ZM21.7731 12.2213C21.7731 12.3359 21.7538 12.4028 21.7731 12.4602C22.6414 14.8397 23.4999 17.2097 24.3874 19.5797C24.4453 19.7231 24.7444 19.8855 24.9084 19.8664C28.0147 19.5511 31.1209 19.207 34.2272 18.8917C34.6324 18.8534 34.8446 18.691 34.9797 18.3087C35.4234 17.0568 35.8961 15.8145 36.3592 14.5721C36.6004 13.9319 36.8415 13.282 37.1116 12.5557L21.7635 12.2308L21.7731 12.2213ZM22.4581 27.4256C23.0176 27.4256 23.4806 26.986 23.4806 26.4412C23.4806 25.9061 22.9983 25.4474 22.4581 25.4569C21.9371 25.4665 21.503 25.8965 21.4934 26.4221C21.4741 26.986 21.8985 27.4256 22.4677 27.4256H22.4581ZM35.5392 26.4508C35.5392 25.8965 35.0761 25.4474 34.5359 25.4569C33.9861 25.4665 33.5327 25.9348 33.5519 26.4795C33.5712 27.0051 34.0053 27.416 34.5359 27.4256C35.1051 27.4256 35.5392 27.0051 35.5392 26.4508Z" fill="#0B3B79"/>
<path d="M28.0314 37.6146C27.0185 37.6146 26.0055 37.6146 24.9926 37.6146C24.2016 37.6146 23.7578 37.2227 23.7578 36.5729C23.7578 35.9135 24.2016 35.5312 24.9926 35.5312C26.9992 35.5312 28.9961 35.5312 31.0026 35.5312C31.7936 35.5312 32.2374 35.9231 32.2374 36.5729C32.2374 37.2323 31.7936 37.6146 31.0026 37.6146C30.009 37.6146 29.025 37.6146 28.0314 37.6146Z" fill="#0B3B79"/>
</g>
<defs>
<clipPath id="clip0_364_132260">
<rect width="56" height="53" fill="white"/>
</clipPath>
</defs>
</svg>
