<svg width="68" height="79" viewBox="0 0 68 79" fill="none" xmlns="http://www.w3.org/2000/svg">
<path d="M35.5716 58.8204V63.4641H38.344C40.6063 63.4641 41.7374 64.6096 41.7374 66.9005V69.9144H68V73.0188H41.7374C41.7374 74.4244 41.7417 75.705 41.7374 76.9856C41.7287 78.4602 41.2458 78.9431 39.7497 78.9431C35.9122 78.9474 32.0748 78.9517 28.2374 78.9431C26.7455 78.9431 26.2669 78.4559 26.2583 76.977C26.254 75.6964 26.2583 74.4158 26.2583 73.0533H0V69.9834H26.2583C26.2583 68.3924 26.2583 66.9178 26.2583 65.4432C26.2626 63.9297 26.7067 63.477 28.2072 63.4684C29.587 63.4598 30.9667 63.4684 32.3982 63.4684V58.8247H31.2858C23.6411 58.8247 15.9964 58.8247 8.3561 58.8247C6.54518 58.8247 6.13988 58.4194 6.13988 56.6128C6.13988 52.8702 6.13988 49.1319 6.13988 45.3894C6.13988 43.7682 6.56674 43.3456 8.21381 43.3456C15.8585 43.3456 23.5031 43.3456 31.1435 43.3456H32.3766V37.154H31.2599C23.6152 37.154 15.9706 37.154 8.33023 37.154C6.56674 37.154 6.13988 36.7358 6.13988 35.0111C6.13988 31.2039 6.13988 27.4009 6.13988 23.5937C6.13988 22.1493 6.60554 21.6793 8.04565 21.675C15.755 21.6707 23.4643 21.675 31.1694 21.675C31.5531 21.675 31.9325 21.675 32.3853 21.675V15.4834H31.2297C23.6196 15.4834 16.0051 15.4834 8.3949 15.4834C6.52362 15.4834 6.13556 15.0953 6.13556 13.2154C6.13556 9.50732 6.13556 5.79925 6.13556 2.09118C6.13125 0.431171 6.54949 0 8.16207 0C25.383 0 42.6083 0 59.8293 0C61.4117 0 61.8601 0.439795 61.8601 1.9877C61.8601 5.82512 61.8644 9.66254 61.8601 13.5C61.8601 14.9832 61.3772 15.4747 59.8897 15.4747C52.1803 15.479 44.471 15.4747 36.766 15.4747C36.3908 15.4747 36.0114 15.4747 35.5889 15.4747V21.6663H36.7358C44.4106 21.6663 52.0898 21.6663 59.7646 21.6663C61.4548 21.6663 61.8601 22.0803 61.8644 23.7834C61.8644 27.4613 61.8644 31.1349 61.8644 34.8128C61.8644 36.7703 61.4936 37.1454 59.5706 37.1454C51.9906 37.1454 44.4106 37.1454 36.8306 37.1454H35.6104V43.337H36.766C44.4106 43.337 52.0553 43.337 59.6956 43.337C61.4634 43.337 61.8601 43.7294 61.8601 45.4842C61.8601 49.257 61.8601 53.0297 61.8601 56.8025C61.8601 58.3418 61.3858 58.8117 59.8293 58.8117C52.1545 58.8117 44.4796 58.8117 36.8005 58.8117H35.5673L35.5716 58.8204ZM9.27449 12.3142H58.7212V3.14755H9.27449V12.3142ZM58.7169 24.8355H9.30898V34.0022H58.7169V24.8355ZM9.27018 55.6513H58.7169V46.4932H9.27018V55.6513ZM38.5941 75.8085V66.6159H29.4188V75.8085H38.5941Z" fill="white"/>
<path d="M37.1406 9.21922V6.24414H55.6206V9.21922H37.1406Z" fill="white"/>
<path d="M13.8969 6.19984C14.8024 6.21277 15.4017 6.80779 15.4146 7.70462C15.4233 8.62302 14.7592 9.29133 13.8452 9.27409C12.9311 9.25684 12.293 8.57559 12.3318 7.64857C12.3662 6.76036 12.9914 6.18259 13.9012 6.19553L13.8969 6.19984Z" fill="white"/>
<path d="M18.5238 7.75675C18.5066 6.85991 19.1016 6.23471 19.9898 6.20453C20.9427 6.17004 21.5938 6.77368 21.6067 7.70501C21.6197 8.6234 20.9556 9.29603 20.0416 9.28309C19.162 9.27016 18.5368 8.64065 18.5195 7.76106L18.5238 7.75675Z" fill="white"/>
<path d="M27.797 7.67993C27.8229 8.59832 27.1675 9.27957 26.2534 9.27957C25.3781 9.27957 24.7357 8.65869 24.7098 7.7791C24.6839 6.88226 25.266 6.24413 26.1542 6.20532C27.1071 6.1622 27.7711 6.75722 27.7927 7.67993H27.797Z" fill="white"/>
<path d="M55.6213 27.9258V30.9052H37.1758V27.9258H55.6213Z" fill="white"/>
<path d="M13.9102 27.8714C14.8114 27.8887 15.4107 28.4923 15.415 29.3892C15.415 30.3076 14.7467 30.9716 13.8369 30.95C12.9616 30.9284 12.3407 30.2946 12.3321 29.4107C12.3235 28.4794 12.9659 27.8542 13.9102 27.8714Z" fill="white"/>
<path d="M21.6064 29.4181C21.5935 30.3322 20.9036 30.9876 19.9981 30.9488C19.1229 30.91 18.5149 30.2632 18.5235 29.3793C18.5322 28.448 19.1832 27.84 20.1318 27.8702C21.0243 27.9004 21.6193 28.5213 21.6064 29.4181Z" fill="white"/>
<path d="M27.7985 29.4495C27.7726 30.3291 27.1301 30.9499 26.2549 30.9499C25.3408 30.9499 24.6897 30.273 24.7156 29.3503C24.7415 28.4233 25.4012 27.8283 26.3584 27.8757C27.2466 27.9188 27.8286 28.5526 27.8028 29.4538L27.7985 29.4495Z" fill="white"/>
<path d="M55.6265 49.6016V52.5766H37.1465V49.6016H55.6265Z" fill="white"/>
<path d="M13.8397 49.5412C14.7882 49.5283 15.4221 50.1535 15.4091 51.0891C15.3962 51.9687 14.771 52.6025 13.8957 52.6198C12.9816 52.637 12.3176 51.973 12.3263 51.0503C12.3349 50.1535 12.9385 49.5541 13.8397 49.5412Z" fill="white"/>
<path d="M21.6065 51.0989C21.5893 52.013 20.8951 52.6641 19.9896 52.621C19.1143 52.5779 18.5107 51.9311 18.5236 51.0429C18.5366 50.1159 19.1876 49.5079 20.1405 49.5424C21.0331 49.5726 21.6238 50.1978 21.6065 51.0946V51.0989Z" fill="white"/>
<path d="M26.2717 52.6211C25.3576 52.6298 24.6979 51.9571 24.7152 51.0388C24.7324 50.1462 25.3404 49.5512 26.2415 49.5469C27.1513 49.5426 27.7679 50.1247 27.798 51.0129C27.8282 51.9356 27.1815 52.6168 26.2674 52.6255L26.2717 52.6211Z" fill="white"/>
</svg>
