<svg width="32" height="32" viewBox="0 0 32 32" fill="none" xmlns="http://www.w3.org/2000/svg">
<path d="M20.0018 30.6667H12.0018C11.624 30.6667 11.3076 30.5387 11.0524 30.2827C10.7964 30.0276 10.6684 29.7111 10.6684 29.3333V13.3333C10.6684 12.9556 10.7964 12.6387 11.0524 12.3827C11.3076 12.1276 11.624 12 12.0018 12H20.0018C20.3796 12 20.6964 12.1276 20.9524 12.3827C21.2076 12.6387 21.3351 12.9556 21.3351 13.3333V29.3333C21.3351 29.7111 21.2076 30.0276 20.9524 30.2827C20.6964 30.5387 20.3796 30.6667 20.0018 30.6667ZM16.0018 19C16.4684 19 16.8627 18.8387 17.1844 18.516C17.5071 18.1942 17.6684 17.8 17.6684 17.3333C17.6684 16.8667 17.5071 16.4724 17.1844 16.1507C16.8627 15.828 16.4684 15.6667 16.0018 15.6667C15.5351 15.6667 15.1409 15.828 14.8191 16.1507C14.4964 16.4724 14.3351 16.8667 14.3351 17.3333C14.3351 17.8 14.4964 18.1942 14.8191 18.516C15.1409 18.8387 15.5351 19 16.0018 19ZM16.0018 8C15.2907 8 14.624 8.1 14.0018 8.3C13.3796 8.5 12.8018 8.77778 12.2684 9.13333C11.9573 9.33333 11.6187 9.42222 11.2524 9.4C10.8853 9.37778 10.5796 9.24444 10.3351 9C10.0684 8.73333 9.94623 8.42222 9.96845 8.06667C9.99067 7.71111 10.1462 7.42222 10.4351 7.2C11.2129 6.62222 12.0684 6.16667 13.0018 5.83333C13.9351 5.5 14.9351 5.33333 16.0018 5.33333C17.0684 5.33333 18.0684 5.5 19.0018 5.83333C19.9351 6.16667 20.7907 6.62222 21.5684 7.2C21.8573 7.42222 22.0129 7.71111 22.0351 8.06667C22.0573 8.42222 21.9351 8.73333 21.6684 9C21.424 9.24444 21.124 9.37778 20.7684 9.4C20.4129 9.42222 20.0796 9.33333 19.7684 9.13333C19.2351 8.77778 18.652 8.5 18.0191 8.3C17.3853 8.1 16.7129 8 16.0018 8ZM16.0018 2.66667C14.5796 2.66667 13.2409 2.89422 11.9858 3.34933C10.7298 3.80533 9.59067 4.44444 8.56845 5.26667C8.25734 5.51111 7.91289 5.63333 7.53512 5.63333C7.15734 5.63333 6.83512 5.5 6.56845 5.23333C6.30178 4.96667 6.17956 4.63911 6.20178 4.25067C6.22401 3.86133 6.39067 3.54444 6.70178 3.3C7.96845 2.27778 9.39067 1.472 10.9684 0.882667C12.5462 0.294222 14.224 0 16.0018 0C17.8018 0 19.496 0.305778 21.0844 0.917333C22.6738 1.528 24.1018 2.36667 25.3684 3.43333C25.6573 3.67778 25.8018 3.97778 25.8018 4.33333C25.8018 4.68889 25.6684 5 25.4018 5.26667C25.1351 5.53333 24.8182 5.66089 24.4511 5.64933C24.0849 5.63867 23.7462 5.51111 23.4351 5.26667C22.4129 4.44444 21.2742 3.80533 20.0191 3.34933C18.7631 2.89422 17.424 2.66667 16.0018 2.66667ZM13.3351 28H18.6684V14.6667H13.3351V28ZM13.3351 28H18.6684H13.3351Z" fill="white"/>
</svg>
