<svg width="12" height="25" viewBox="0 0 12 25" fill="none" xmlns="http://www.w3.org/2000/svg">
<path d="M2.43643 0.528798C2.66412 0.52794 2.88909 0.583642 3.09481 0.691812C3.30053 0.799981 3.48177 0.95787 3.62522 1.15387L10.9865 11.2902C11.2107 11.5925 11.3333 11.9717 11.3333 12.363C11.3333 12.7543 11.2107 13.1334 10.9865 13.4357L3.36612 23.5721C3.10743 23.9171 2.73568 24.134 2.33268 24.1752C1.92967 24.2164 1.52841 24.0784 1.21716 23.7917C0.90592 23.5049 0.710191 23.0929 0.673034 22.6462C0.635878 22.1994 0.760336 21.7547 1.01903 21.4097L7.83169 12.3545L1.24765 3.2994C1.06128 3.05142 0.942891 2.74946 0.906497 2.42923C0.870102 2.10901 0.917222 1.78393 1.04228 1.49247C1.16734 1.201 1.36511 0.955344 1.61218 0.784564C1.85925 0.613784 2.14528 0.525027 2.43643 0.528798Z" fill="white"/>
</svg>
