<svg width="26" height="26" viewBox="0 0 26 26" fill="none" xmlns="http://www.w3.org/2000/svg">
<path d="M12.8555 25.1152C6.22784 25.1152 0.855469 19.7429 0.855469 13.1152C0.855469 6.4876 6.22784 1.11523 12.8555 1.11523C19.4831 1.11523 24.8555 6.4876 24.8555 13.1152C24.8555 19.7429 19.4831 25.1152 12.8555 25.1152Z" stroke="white" stroke-width="0.4321" stroke-miterlimit="10"/>
<path d="M11.235 19.547H13.823V13.0588H15.631L15.8221 10.8892H13.823C13.823 10.8892 13.823 10.0782 13.823 9.65458C13.823 9.14318 13.9263 8.94171 14.4222 8.94171C14.82 8.94171 15.8221 8.94171 15.8221 8.94171V6.68945C15.8221 6.68945 14.3447 6.68945 14.0296 6.68945C12.1028 6.68945 11.235 7.53663 11.235 9.16384C11.235 10.5793 11.235 10.8944 11.235 10.8944H9.88672V13.095H11.235V19.547Z" fill="white"/>
</svg>
