<svg width="22" height="14" viewBox="0 0 22 14" fill="none" xmlns="http://www.w3.org/2000/svg">
<path fill-rule="evenodd" clip-rule="evenodd" d="M0 6.99899C0 6.80008 0.0790176 6.60932 0.21967 6.46866C0.360322 6.32801 0.551088 6.24899 0.75 6.24899H18.4395L13.719 1.52999C13.5782 1.38916 13.4991 1.19816 13.4991 0.998994C13.4991 0.799831 13.5782 0.608824 13.719 0.467994C13.8598 0.327164 14.0508 0.248047 14.25 0.248047C14.4492 0.248047 14.6402 0.327164 14.781 0.467994L20.781 6.46799C20.8508 6.53766 20.9063 6.62043 20.9441 6.71154C20.9819 6.80266 21.0013 6.90034 21.0013 6.99899C21.0013 7.09764 20.9819 7.19533 20.9441 7.28644C20.9063 7.37756 20.8508 7.46033 20.781 7.52999L14.781 13.53C14.6402 13.6708 14.4492 13.7499 14.25 13.7499C14.0508 13.7499 13.8598 13.6708 13.719 13.53C13.5782 13.3892 13.4991 13.1982 13.4991 12.999C13.4991 12.7998 13.5782 12.6088 13.719 12.468L18.4395 7.74899H0.75C0.551088 7.74899 0.360322 7.66998 0.21967 7.52932C0.0790176 7.38867 0 7.19791 0 6.99899Z" fill="white"/>
</svg>
