<svg width="32" height="32" viewBox="0 0 32 32" fill="none" xmlns="http://www.w3.org/2000/svg">
<path d="M17.5285 28.264L19.7551 26.7066C22.6019 24.7138 24.8053 21.9336 26.0953 18.707C27.3854 15.4804 27.706 11.9474 27.0178 8.5413C26.9838 8.37345 26.9117 8.21568 26.8069 8.08019C26.7022 7.9447 26.5677 7.83513 26.4138 7.75997L15.9991 2.66797L5.58579 7.75997C5.43167 7.83497 5.29689 7.94447 5.19191 8.07997C5.08694 8.21547 5.01458 8.37333 4.98046 8.5413C4.29243 11.9476 4.61322 15.4806 5.9035 18.7072C7.19378 21.9339 9.39748 24.7139 12.2445 26.7066L14.4711 28.264C14.9192 28.5775 15.4529 28.7456 15.9998 28.7456C16.5467 28.7456 17.0804 28.5775 17.5285 28.264V28.264Z" stroke="white" stroke-width="2.66667" stroke-linecap="round" stroke-linejoin="round"/>
</svg>
