<svg width="40" height="78" viewBox="0 0 40 78" fill="none" xmlns="http://www.w3.org/2000/svg">
<g clip-path="url(#clip0_364_131203)">
<path d="M22.415 -0.0023862C23.9502 0.601072 25.528 1.11941 27.0055 1.84143C27.8917 2.27464 28.6517 2.9921 29.4117 3.64724C30.1915 4.3191 30.2569 5.25849 29.658 5.91211C29.0788 6.54597 28.179 6.58853 27.4357 5.90451C25.9369 4.52887 24.2451 3.54084 22.2417 3.13043C18.8125 2.42817 15.7587 3.22619 13.0728 5.45762C12.86 5.63394 12.6654 5.83459 12.445 6.00179C11.7184 6.55053 10.8854 6.51101 10.3336 5.91211C9.76971 5.30105 9.75603 4.3343 10.4735 3.75973C11.6059 2.85226 12.7718 1.94631 14.0441 1.26381C15.1324 0.678594 16.3895 0.406506 17.5721 -0.00390625C19.1879 -0.00390625 20.8022 -0.00390625 22.418 -0.00390625L22.415 -0.0023862Z" fill="white"/>
<path d="M35.0805 22.1105C35.4422 22.1105 35.769 22.0999 36.0943 22.1121C38.2649 22.1957 39.9036 23.8084 39.9735 25.9745C40.0115 27.1586 40.0024 28.3458 39.978 29.5314C39.9568 30.5726 39.3609 31.1609 38.3121 31.1867C37.2845 31.2126 36.2539 31.1928 35.1823 31.1928V39.4831C35.5045 39.4983 35.845 39.512 36.1855 39.5303C38.2741 39.6427 39.8884 41.2403 39.9689 43.3304C40.016 44.5403 40.0039 45.7518 39.9765 46.9633C39.9537 48.0015 39.3533 48.5806 38.2969 48.6034C37.2693 48.6262 36.2418 48.608 35.1777 48.608V56.9424C35.4939 56.9424 35.8101 56.9302 36.1247 56.9439C38.2969 57.0442 39.9127 58.6616 39.9765 60.8337C40.01 61.9935 40.0008 63.1548 39.9811 64.3146C39.9613 65.409 39.3761 65.9927 38.2847 66.0155C37.2769 66.0368 36.2691 66.0201 35.1413 66.0201C35.1413 66.5156 35.1504 66.9823 35.1397 67.4489C35.1048 68.9857 35.1777 70.5362 34.9999 72.0562C34.6548 74.9914 31.8792 77.349 28.9273 77.3688C28.0229 77.3748 27.3282 76.7683 27.2826 75.9323C27.2385 75.1145 27.8481 74.4776 28.792 74.3545C30.6222 74.1143 31.6984 73.2388 32.0297 71.6823C32.1027 71.3403 32.1088 70.9815 32.1088 70.6304C32.1118 54.9374 32.1133 39.246 32.1103 23.5531C32.1103 21.1909 30.7635 19.8442 28.4075 19.8396C26.2627 19.835 24.1179 19.8442 21.9746 19.8366C21.0079 19.8335 20.4303 19.4489 20.2205 18.7072C19.9894 17.8939 20.488 16.9029 21.3484 16.8968C24.3657 16.8755 27.4149 16.7509 30.3942 17.1187C32.8277 17.4182 34.1669 19.1784 35.082 22.1136L35.0805 22.1105ZM36.9562 28.1482C36.9562 27.5903 36.9562 27.0948 36.9562 26.5977C36.9531 25.2829 36.4926 24.9317 35.199 25.2403V28.1482H36.9562ZM35.1914 42.581V45.5223H36.9562C36.9562 45.0404 36.9562 44.6148 36.9562 44.1892C36.9562 42.6965 36.7327 42.4868 35.1914 42.581ZM36.9562 62.9648C36.9562 62.4343 36.9562 61.9844 36.9562 61.5344C36.9562 60.098 36.6142 59.8077 35.1869 60.0494V62.9648H36.9562Z" fill="white"/>
<path d="M4.85218 66.0191C3.74711 66.0191 2.76516 66.0298 1.78169 66.0161C0.600618 65.9994 0.0245202 65.4218 0.00931973 64.2346C-0.00436068 63.201 -0.00132059 62.1658 0.00779969 61.1307C0.0290803 58.5983 1.63577 56.9825 4.17424 56.9338C4.37033 56.9293 4.56794 56.9338 4.8081 56.9338V48.6055C3.85047 48.6055 2.92325 48.6085 1.99602 48.6055C0.550456 48.6009 0.0138799 48.075 0.00627964 46.6568C0.0017195 45.6977 0.000199458 44.74 0.00627964 43.7809C0.0214801 41.1922 1.61601 39.5673 4.18489 39.5202C4.38097 39.5171 4.57554 39.5202 4.81114 39.5202V31.1919C3.90064 31.1919 2.97949 31.1934 2.05682 31.1919C0.510935 31.1888 0.00931973 30.6887 0.00627964 29.1535C0.00475959 28.2445 0.00323955 27.337 0.00627964 26.428C0.01692 23.7452 1.60385 22.1385 4.27457 22.1065C4.47369 22.1035 4.67282 22.1065 4.92515 22.1065C5.23676 20.7902 5.77485 19.6198 6.73704 18.6758C7.90444 17.5297 9.3044 16.9217 10.9278 16.8244C11.9037 16.7666 12.6151 17.3275 12.7047 18.1879C12.7914 19.0269 12.1651 19.7064 11.1908 19.831C8.97151 20.1168 7.88316 21.3374 7.88164 23.5658C7.88012 39.2587 7.8786 54.9517 7.88164 70.6462C7.88164 72.9962 9.24056 74.3429 11.6012 74.3475C13.6441 74.352 15.6886 74.3475 17.7315 74.3475C17.9337 74.3475 18.1359 74.3384 18.3365 74.3566C19.2227 74.4387 19.8353 75.0604 19.8322 75.866C19.8292 76.6716 19.2151 77.348 18.3274 77.3572C15.8056 77.383 13.2732 77.4833 10.7621 77.31C7.25538 77.0684 4.90235 74.39 4.85523 70.8483C4.83394 69.266 4.85218 67.6821 4.85218 66.0191ZM4.8157 25.2059C3.64831 25.0463 3.12693 25.25 3.06309 25.9675C2.99925 26.6788 3.04941 27.4009 3.04941 28.1001H4.8157V25.2044V25.2059ZM4.79138 45.5457V42.574C3.56775 42.5132 3.12237 42.6986 3.06309 43.3796C3.00077 44.0925 3.04941 44.8145 3.04941 45.5457H4.79138ZM4.80658 62.9547V60.0074C3.58295 59.904 3.11629 60.1077 3.05853 60.8327C3.00381 61.5244 3.04637 62.2251 3.04637 62.9547H4.80658Z" fill="white"/>
<path d="M20.0063 56.9336C24.1256 56.9397 27.5685 60.3917 27.5639 64.5125C27.5594 68.6273 24.1013 72.0748 19.9835 72.0702C15.8687 72.0657 12.4197 68.606 12.4258 64.4897C12.4319 60.3735 15.8885 56.9275 20.0063 56.9336ZM24.5314 64.5034C24.5314 62.0303 22.4915 59.9798 20.0169 59.9661C17.5195 59.9524 15.434 62.044 15.4568 64.5369C15.4811 67.0085 17.5483 69.0514 20.0123 69.0392C22.4839 69.0271 24.5314 66.972 24.5314 64.5034Z" fill="white"/>
<path d="M19.9815 39.5234C24.1039 39.5189 27.5559 42.9587 27.562 47.0796C27.5681 51.1959 24.1206 54.6555 20.0058 54.6631C15.8926 54.6692 12.4284 51.2172 12.4238 47.1054C12.4193 42.9846 15.8637 39.5295 19.9815 39.525V39.5234ZM24.5295 47.0644C24.5112 44.5913 22.4546 42.5499 19.9861 42.5544C17.519 42.559 15.4639 44.6126 15.4563 47.0811C15.4472 49.5709 17.557 51.664 20.0408 51.6306C22.5139 51.5987 24.5477 49.5284 24.531 47.0644H24.5295Z" fill="white"/>
<path d="M27.5639 29.6495C27.5746 33.7703 24.1347 37.2315 20.0184 37.2421C15.9021 37.2527 12.4364 33.8083 12.4258 29.6951C12.4152 25.5757 15.8581 22.1131 19.9728 22.1055C24.0982 22.0979 27.5548 25.5317 27.5639 29.6495ZM24.5314 29.6768C24.533 27.2068 22.4915 25.1517 20.0184 25.1365C17.5529 25.1213 15.4857 27.1581 15.4568 29.6312C15.4279 32.1195 17.518 34.2218 20.0108 34.2096C22.4839 34.199 24.5284 32.1469 24.5314 29.6753V29.6768Z" fill="white"/>
<path d="M20.0093 5.91406C21.9413 5.98398 23.665 6.59352 25.106 7.90684C25.8797 8.61062 25.9831 9.51353 25.4009 10.1778C24.8339 10.8238 23.9264 10.9089 23.1801 10.2143C21.4123 8.56806 18.626 8.52246 16.7913 10.2295C16.0541 10.915 15.1315 10.8147 14.5766 10.158C14.0203 9.50289 14.113 8.62278 14.8518 7.94028C16.3049 6.59808 18.0515 5.98094 20.0108 5.91558L20.0093 5.91406Z" fill="white"/>
<path d="M15.5919 16.8164C16.399 16.821 17.0982 17.508 17.1058 18.3076C17.1134 19.1026 16.4218 19.8048 15.6147 19.8246C14.7725 19.8443 14.0627 19.1375 14.0764 18.2939C14.09 17.4761 14.7695 16.8134 15.5903 16.8179L15.5919 16.8164Z" fill="white"/>
<path d="M25.9123 75.8964C25.8955 76.7096 25.2054 77.3769 24.3907 77.3663C23.5881 77.3556 22.8843 76.6549 22.8828 75.8645C22.8813 75.0467 23.6383 74.3231 24.4606 74.3566C25.2784 74.39 25.929 75.0786 25.9107 75.8964H25.9123Z" fill="white"/>
<path d="M20.0032 11.9727C20.7981 11.9772 21.5004 12.6871 21.4958 13.4805C21.4913 14.271 20.7753 14.9823 19.988 14.9778C19.2006 14.9732 18.4861 14.2527 18.4922 13.4669C18.4968 12.6764 19.2127 11.9681 20.0032 11.9742V11.9727Z" fill="white"/>
</g>
<defs>
<clipPath id="clip0_364_131203">
<rect width="40" height="77.4114" fill="white"/>
</clipPath>
</defs>
</svg>
