<svg width="32" height="32" viewBox="0 0 32 32" fill="none" xmlns="http://www.w3.org/2000/svg">
<path d="M20 10H27V12H20V10ZM20 16H30V18H20V16ZM20 22H27V24H20V22ZM10 20.184V7H8.00001V20.184C7.33279 20.4199 6.77045 20.8841 6.41237 21.4945C6.0543 22.1049 5.92354 22.8222 6.04321 23.5197C6.16288 24.2172 6.52528 24.85 7.06635 25.3061C7.60741 25.7622 8.29232 26.0124 9.00001 26.0124C9.70769 26.0124 10.3926 25.7622 10.9337 25.3061C11.4747 24.85 11.8371 24.2172 11.9568 23.5197C12.0765 22.8222 11.9457 22.1049 11.5876 21.4945C11.2296 20.8841 10.6672 20.4199 10 20.184Z" fill="white"/>
<path d="M30 3.99938H12.974C12.3466 3.16008 11.4705 2.53996 10.4704 2.22716C9.47023 1.91437 8.39695 1.92484 7.40311 2.25708C6.40927 2.58932 5.54546 3.22642 4.93451 4.0778C4.32356 4.92917 3.99656 5.95148 4 6.99938V18.1094C3.03533 19.0939 2.38281 20.3414 2.12426 21.6953C1.8657 23.0492 2.01262 24.4494 2.5466 25.7201C3.08058 26.9909 3.97784 28.0757 5.12587 28.8385C6.27391 29.6014 7.62162 30.0084 9 30.0084C10.3784 30.0084 11.7261 29.6014 12.8741 28.8385C14.0222 28.0757 14.9194 26.9909 15.4534 25.7201C15.9874 24.4494 16.1343 23.0492 15.8758 21.6953C15.6172 20.3414 14.9647 19.0939 14 18.1094V6.99938C14 6.6635 13.9662 6.32848 13.899 5.99938H30V3.99938ZM9 27.9994C7.98774 28.0008 6.99895 27.6946 6.16472 27.1212C5.3305 26.5479 4.69024 25.7345 4.32885 24.7889C3.96747 23.8434 3.90201 22.8103 4.14117 21.8267C4.38033 20.8431 4.91281 19.9554 5.668 19.2814L6 18.9824V6.99938C6 6.20373 6.31607 5.44067 6.87868 4.87806C7.44129 4.31545 8.20435 3.99938 9 3.99938C9.79565 3.99938 10.5587 4.31545 11.1213 4.87806C11.6839 5.44067 12 6.20373 12 6.99938V18.9824L12.332 19.2814C13.0872 19.9554 13.6197 20.8431 13.8588 21.8267C14.098 22.8103 14.0325 23.8434 13.6712 24.7889C13.3098 25.7345 12.6695 26.5479 11.8353 27.1212C11.0011 27.6946 10.0123 28.0008 9 27.9994Z" fill="white"/>
</svg>
