<svg width="54" height="54" viewBox="0 0 54 54" fill="none" xmlns="http://www.w3.org/2000/svg">
<path d="M0.871094 0.914233C1.04366 0.899853 1.20184 0.871094 1.3744 0.871094C5.25709 0.871094 9.13977 0.871094 13.0081 0.871094C13.195 0.871094 13.3676 0.871094 13.5833 0.871094V4.17857H4.19294V13.4683H0.871094V0.914233Z" fill="#0B3B79"/>
<path d="M0.871094 40.3281H4.19294V49.6034H13.5689V52.8965C13.4251 52.8965 13.2957 52.9253 13.1663 52.9253C9.18291 52.9253 5.19957 52.9253 1.21622 52.9253C1.10118 52.9253 0.986136 52.8965 0.871094 52.8821V40.3281Z" fill="#0B3B79"/>
<path d="M27.0709 15.2527C30.5366 15.2958 33.5133 16.6763 36.1881 18.8477C38.8628 21.0192 40.9336 23.7083 42.7023 26.6275C42.7886 26.7713 42.803 27.0301 42.7167 27.1596C40.4159 30.9847 37.5686 34.3066 33.7146 36.6362C28.8972 39.541 24.1373 39.239 19.5213 36.1616C16.0412 33.8464 13.4096 30.7403 11.2814 27.1739C11.2094 27.0445 11.1807 26.8001 11.2526 26.6706C13.6397 22.7304 16.5014 19.2216 20.6286 16.9352C22.613 15.8279 24.7413 15.2527 27.0566 15.2383L27.0709 15.2527ZM15.0346 26.9151C16.8753 29.5179 18.9173 31.9051 21.6352 33.6019C24.9139 35.644 28.3076 35.9172 31.7302 34.0046C34.7788 32.3077 36.9646 29.7049 38.9922 26.9295C37.2234 24.4561 35.2965 22.1696 32.7655 20.4727C29.0698 17.9993 25.3165 17.8699 21.5345 20.2714C18.8598 21.9826 16.8609 24.341 15.0346 26.9007V26.9151Z" fill="#0B3B79"/>
<path d="M53.1275 0.914062V13.4825H49.8344V4.20716H40.4297V0.928446H53.1275V0.914062Z" fill="#0B3B79"/>
<path d="M40.4284 52.899V49.6347H49.79V40.3594H53.1119V52.899H40.4141H40.4284Z" fill="#0B3B79"/>
<path d="M1 28.6537V25.375H6.92469V28.6537H1Z" fill="#0B3B79"/>
<path d="M53.0263 25.3906V28.6693H47.1016V25.3906H53.0263Z" fill="#0B3B79"/>
<path d="M25.375 6.92718V1.03125H28.625V6.92718H25.375Z" fill="#0B3B79"/>
<path d="M25.3906 53.0119V47.1016H28.6262V53.0119H25.3906Z" fill="#0B3B79"/>
<path d="M27.0441 21.9378C29.7619 21.9522 32.0196 24.1811 32.0053 26.8558C32.0053 29.7319 29.8195 31.889 26.9434 31.8602C24.1536 31.8314 21.9966 29.6025 22.0397 26.7983C22.0828 24.1092 24.3406 21.909 27.0584 21.9378H27.0441ZM28.669 26.9278C28.669 25.9643 27.9356 25.2452 27.0009 25.2596C26.0662 25.274 25.3759 25.993 25.3759 26.9278C25.3759 27.8337 26.1237 28.5815 27.0297 28.5815C27.9356 28.5815 28.6834 27.8337 28.6834 26.9278H28.669Z" fill="#0B3B79"/>
</svg>
