<svg width="54" height="54" viewBox="0 0 54 54" fill="none" xmlns="http://www.w3.org/2000/svg">
<path d="M0.898991 3.63335C0.968745 3.36828 1.0385 3.11717 1.12221 2.85211C1.55468 1.69419 2.65679 0.912946 3.89841 0.871094C3.99607 0.871094 4.10767 0.871094 4.20533 0.871094C19.4117 0.871094 34.618 0.871094 49.8244 0.871094C50.8986 0.871094 51.7915 1.20591 52.4611 2.05691C52.9215 2.64284 53.1168 3.31248 53.1168 4.05187C53.1168 5.80967 53.1307 7.55352 53.1168 9.31132C53.0889 11.1668 51.8054 12.4363 49.95 12.4502C49.378 12.4502 48.792 12.4502 48.1643 12.4502C48.1643 12.6595 48.1363 12.8409 48.1363 13.0222C48.1363 14.9335 48.1503 16.8308 48.1363 18.7421C48.0666 26.1639 45.0532 32.1069 38.9846 36.3898C34.2972 39.6961 29.0098 40.8819 23.3737 39.7938C15.2125 38.2313 9.75774 33.3904 6.93968 25.5919C6.15844 23.4295 5.87942 21.1695 5.87942 18.8816C5.87942 16.775 5.87942 14.6684 5.87942 12.4781C5.4888 12.4781 5.12608 12.4502 4.74941 12.4781C2.90791 12.6177 1.44308 12.0317 0.871094 9.78565V3.66125L0.898991 3.63335ZM8.9765 12.4781C8.9765 14.794 8.9486 17.0819 8.99045 19.3559C9.01835 20.4022 9.116 21.4625 9.32527 22.4948C11.2086 32.079 20.3464 38.3987 30.0003 36.8223C38.5382 35.4272 44.9695 28.0193 45.0951 19.3838C45.123 17.2075 45.0951 15.0311 45.0951 12.8548C45.0951 12.7432 45.0811 12.6316 45.0672 12.4781H8.96255H8.9765ZM50.0616 3.96817H4.01002V9.36712H50.0616V3.96817Z" fill="#0B3B79"/>
<path d="M0.898438 37.7286C1.33091 36.78 1.8471 36.3754 2.57254 36.4452C3.36773 36.5289 3.81415 37.0171 4.03736 38.0216C5.46034 44.5506 9.43632 48.5544 15.9513 50.0053C16.7744 50.1867 17.472 50.4657 17.6254 51.3865C17.7649 52.2654 17.2348 52.7676 16.5373 53.1443H15.7142C15.6026 53.1024 15.491 53.0605 15.3794 53.0326C8.71088 51.5678 4.10712 47.7035 1.74944 41.2582C1.38672 40.2816 1.19141 39.2493 0.912391 38.2309V37.7147L0.898438 37.7286Z" fill="#0B3B79"/>
<path d="M37.5596 53.1328C36.862 52.7561 36.3179 52.2678 36.4714 51.3889C36.6249 50.4682 37.3085 50.1892 38.1316 50.0078C44.6466 48.5569 48.6086 44.553 50.0455 38.038C50.2966 36.8941 50.9523 36.3081 51.8452 36.4616C52.7241 36.6151 53.2542 37.3823 53.1008 38.2891C51.887 45.6273 46.4323 51.3471 39.15 52.9375C38.8849 52.9933 38.6338 53.077 38.3687 53.1467H37.5456L37.5596 53.1328Z" fill="#0B3B79"/>
<path d="M8.72375 35.8048C9.46314 35.8048 10.0491 36.2931 10.2165 37.0883C10.4536 38.1904 10.7885 39.2507 11.3884 40.2133C12.5881 42.1246 14.332 43.2267 16.4943 43.7428C16.7036 43.7986 16.9268 43.8126 17.1361 43.8824C17.9173 44.1056 18.3916 44.9008 18.2242 45.6681C18.0568 46.4632 17.2756 46.9794 16.4664 46.8539C11.7511 46.1284 8.02621 42.4873 7.24497 37.7998C7.06361 36.6977 7.71929 35.7909 8.72375 35.8048Z" fill="#0B3B79"/>
<path d="M46.8662 37.547C46.6011 39.2629 45.9594 40.937 44.8712 42.4437C43.0576 44.9409 40.5744 46.3499 37.561 46.8661C36.7519 47.0056 35.9706 46.4336 35.8311 45.6384C35.6777 44.8432 36.2078 44.0899 37.0169 43.8667C37.7842 43.6574 38.5794 43.49 39.3049 43.1691C41.7742 42.0531 43.1971 40.086 43.7831 37.4633C43.8249 37.2959 43.8389 37.1285 43.8947 36.9611C44.1039 36.2077 44.8294 35.7194 45.5548 35.8171C46.364 35.9287 46.908 36.5983 46.8801 37.547H46.8662Z" fill="#0B3B79"/>
<path d="M27.0173 33.9335C21.9671 33.9335 17.8376 29.7761 17.8516 24.7259C17.8516 19.7037 21.995 15.5742 27.0312 15.5742C32.0814 15.5742 36.2248 19.7037 36.2248 24.7538C36.2248 29.804 32.0814 33.9335 27.0312 33.9335H27.0173ZM27.0591 30.8782C30.4073 30.8782 33.1556 28.116 33.1696 24.7678C33.1696 21.4056 30.4073 18.6294 27.0312 18.6434C23.683 18.6434 20.9347 21.4056 20.9208 24.7538C20.9208 28.116 23.683 30.8922 27.0591 30.8782Z" fill="#0B3B79"/>
<path d="M28.563 24.755C28.563 25.5781 27.8795 26.2896 27.0424 26.2896C26.2193 26.2896 25.5078 25.606 25.5078 24.769C25.5078 23.9459 26.1914 23.2344 27.0285 23.2344C27.8515 23.2344 28.563 23.918 28.563 24.755Z" fill="#0B3B79"/>
</svg>
