<svg width="58" height="56" viewBox="0 0 58 56" fill="none" xmlns="http://www.w3.org/2000/svg">
<path d="M28.4543 55.9744C20.7148 55.9744 12.9753 55.9608 5.23583 55.988C3.34667 55.9949 1.83669 55.1353 0.38088 54.0848C0.0964897 53.8665 0.0016928 53.539 0.0016928 53.1775C0.0016928 51.6153 -0.0050784 50.0531 0.008464 48.4909C0.0152352 47.7064 0.448592 47.2766 1.23405 47.263C2.41224 47.2493 3.59043 47.2357 4.76862 47.2698C5.20875 47.2835 5.31709 47.1538 5.31032 46.7172C5.29677 37.7603 5.29677 28.7964 5.29677 19.8258C5.29677 19.3892 5.31032 18.9594 5.41866 18.5365C5.75044 17.2813 6.75258 16.4149 8.05266 16.3876C9.97568 16.3467 11.9055 16.3603 13.8285 16.3671C14.5395 16.3671 15.027 16.8651 15.0135 17.52C14.9999 18.1681 14.5124 18.6388 13.7879 18.6456C12.0477 18.6593 10.3142 18.6456 8.57404 18.6524C7.73441 18.6524 7.55836 18.8162 7.55836 19.6825C7.55836 28.7214 7.55836 37.7602 7.54481 46.7991C7.54481 47.2425 7.72087 47.263 8.0662 47.263C12.5555 47.2562 17.038 47.2562 21.5274 47.2562C22.4956 47.2562 22.7462 47.4062 23.0576 48.3135C23.166 48.6342 23.3285 48.7297 23.6603 48.7297C26.9714 48.716 30.2757 48.716 33.5869 48.7297C33.9254 48.7297 34.0879 48.6273 34.1895 48.3135C34.4333 47.5427 34.9614 47.2493 35.7604 47.2493C40.1685 47.2698 44.5833 47.2493 48.9914 47.2698C49.4315 47.2698 49.5398 47.1607 49.5398 46.7172C49.5263 37.733 49.5331 28.7487 49.5263 19.7644C49.5263 18.8025 49.4315 18.707 48.4632 18.7002C46.7975 18.7002 45.1385 18.6934 43.4728 18.7002C42.8973 18.7002 42.4368 18.516 42.2269 17.943C41.9561 17.213 42.4436 16.4354 43.2494 16.4217C45.1927 16.3876 47.1428 16.3467 49.0794 16.4422C50.7383 16.524 51.7269 17.7042 51.7405 19.4233C51.7608 21.4971 51.7472 23.5641 51.7472 25.6379C51.7472 32.6439 51.754 39.6499 51.7337 46.6558C51.7337 47.147 51.842 47.2835 52.3363 47.263C53.4739 47.2221 54.6182 47.2425 55.7558 47.2493C56.5954 47.2562 56.9882 47.6586 56.9949 48.4977C57.0017 50.0053 56.9882 51.513 57.0017 53.0206C57.0017 53.5527 56.8189 53.9483 56.372 54.2553C54.7875 55.3604 53.115 56.0017 51.1107 55.988C43.5609 55.9335 36.011 55.9744 28.4543 55.9744ZM28.4678 53.7437C36.1125 53.7437 43.7572 53.7232 51.4087 53.7641C52.5936 53.771 53.5958 53.4094 54.5641 52.8091C54.7807 52.6727 54.862 52.5294 54.8552 52.277C54.8349 51.5402 54.8281 50.8103 54.8552 50.0736C54.8755 49.6643 54.774 49.5278 54.3338 49.5346C48.4429 49.5483 42.5587 49.5483 36.6678 49.5415C36.3427 49.5415 36.1464 49.6165 36.0448 49.9439C35.8078 50.7489 35.2526 51.0286 34.4333 51.0218C30.5669 51.0013 26.6938 51.015 22.8207 51.0081C21.7982 51.0081 21.6154 50.899 21.2633 49.9098C21.1482 49.596 20.9924 49.521 20.6945 49.5346C20.1934 49.5551 19.6856 49.5415 19.1777 49.5415C13.7202 49.5415 8.26256 49.5483 2.7982 49.5346C2.36484 49.5346 2.22265 49.637 2.24296 50.0872C2.28359 50.8376 2.2565 51.5948 2.24973 52.3452C2.24973 52.543 2.27682 52.6863 2.47318 52.8091C3.35344 53.3617 4.25401 53.7641 5.34417 53.7573C13.0633 53.7369 20.7622 53.7437 28.4678 53.7437Z" fill="#0B3B79"/>
<path d="M39.4314 10.5886C39.4314 10.1384 39.4179 9.68133 39.4382 9.23109C39.4517 8.93093 39.3434 8.87636 39.0793 8.97186C38.6595 9.12194 38.2329 9.2652 37.8063 9.38799C37.5558 9.45621 37.4949 9.55172 37.5626 9.82459C37.7928 10.7523 37.9756 11.6938 38.1991 12.6283C38.4293 13.5902 38.2939 14.4975 37.8334 15.3571C37.6709 15.6504 37.6167 15.9369 37.61 16.2643C37.5693 18.3655 37.2646 20.4188 36.5266 22.3971C35.5041 25.1463 33.7165 27.2542 31.2315 28.755C29.1392 30.0171 27.0604 29.8943 25.09 28.4822C21.8263 26.1491 20.0048 22.9565 19.5512 18.9521C19.4631 18.1676 19.3006 17.3899 19.3277 16.5986C19.3345 16.3803 19.2058 16.2643 19.0839 16.1211C18.2646 15.1524 18.0412 14.02 18.2782 12.7921C18.461 11.8302 18.6709 10.8751 18.9214 9.93374C19.0095 9.59947 18.8876 9.51761 18.6303 9.42892C17.3099 8.97869 15.9827 8.52163 14.6623 8.05775C13.6534 7.70301 13.1524 6.69339 13.4774 5.6633C13.6534 5.11074 13.9852 4.73554 14.554 4.54453C18.8605 3.08467 23.167 1.61116 27.4735 0.137658C28.0084 -0.04653 28.5433 -0.0192429 29.0647 0.158123C33.378 1.65209 37.698 3.14606 42.0112 4.64686C42.7087 4.88562 43.1082 5.51322 43.1149 6.30455C43.1217 7.06859 42.7493 7.72348 42.0993 7.96224C41.7946 8.07821 41.7269 8.23511 41.7269 8.53527C41.7404 9.62676 41.7404 10.7182 41.7269 11.8097C41.7201 12.5806 41.3206 13.0581 40.6841 13.1195C40.0476 13.1809 39.5059 12.7034 39.4517 12.0076C39.4111 11.5369 39.4382 11.0593 39.4314 10.5886C39.4382 10.5886 39.4382 10.5886 39.4314 10.5886ZM21.5961 17.4718C21.508 17.9016 21.6435 18.27 21.6909 18.6383C22.0565 21.7832 23.3227 24.4232 25.9025 26.3606C27.5344 27.5817 28.7194 27.6772 30.3986 26.5243C33.4998 24.4027 34.915 21.3807 35.0775 17.6765C35.0911 17.3081 34.9963 17.2808 34.678 17.3968C33.1748 17.9562 31.631 18.4132 30.1752 19.0749C28.7465 19.723 27.4464 19.7366 26.0177 19.0886C24.5889 18.4473 23.0857 18.0107 21.5961 17.4718ZM16.6599 6.27044C16.775 6.43416 16.9104 6.44098 17.0323 6.48191C19.9574 7.49154 22.9164 8.41248 25.7942 9.55172C27.4599 10.2134 28.9428 10.2544 30.595 9.54489C32.43 8.76039 34.3733 8.21465 36.2693 7.55976C36.2625 7.52565 36.2625 7.49836 36.2557 7.46425C36.0797 7.46425 35.9036 7.46425 35.7208 7.46425C33.554 7.46425 31.3872 7.45743 29.2137 7.46425C28.6584 7.46425 28.2183 7.28006 27.9881 6.75479C27.6495 5.95664 28.2183 5.1926 29.1595 5.18578C31.5091 5.17895 33.8519 5.18578 36.2489 5.18578C36.1135 5.02205 35.9713 5.00159 35.8359 4.95384C33.4592 4.1284 31.0757 3.31661 28.7058 2.47753C28.347 2.35474 28.0355 2.34792 27.6834 2.47753C24.0202 3.74638 20.3502 5.00159 16.6599 6.27044ZM21.1424 10.2544C20.8919 11.3595 20.6142 12.4305 20.4111 13.5152C20.2824 14.2315 20.6345 14.709 21.3455 14.9682C23.167 15.6299 25.0087 16.2371 26.8031 16.967C27.7579 17.3558 28.5975 17.3831 29.5658 16.9806C31.306 16.2643 33.0936 15.6777 34.8609 15.0296C35.7953 14.6817 36.039 14.2178 35.8291 13.2491C35.6395 12.3896 35.4229 11.53 35.2536 10.6637C35.1791 10.2953 35.0504 10.2816 34.7322 10.3976C33.0665 10.9911 31.394 11.571 29.7147 12.1235C29.3694 12.2395 29.2678 12.41 29.2814 12.7648C29.3152 13.4197 29.3017 14.0814 29.2881 14.7431C29.2746 15.514 28.8277 16.0256 28.1777 16.0461C27.5006 16.0665 27.0333 15.5549 27.013 14.7499C26.9995 14.0541 26.9995 13.3583 27.013 12.6624C27.0198 12.4032 26.9453 12.2668 26.6812 12.1781C24.8462 11.5505 23.018 10.9093 21.1424 10.2544Z" fill="#0B3B79"/>
<path d="M27.6344 36.0119C26.0974 36.6463 24.6551 37.2398 23.206 37.8333C22.0346 38.3176 21.5742 38.0925 21.2153 36.8919C20.87 35.7254 20.5246 34.552 20.1725 33.3855C20.1184 33.2013 20.1116 33.0035 19.7798 33.1058C17.85 33.6993 15.9744 34.4156 14.241 35.4798C12.9951 36.2438 12.2841 37.308 12.0268 38.7611C11.7018 40.5961 11.4445 42.438 11.3564 44.3004C11.3226 45.0507 10.8486 45.5692 10.1918 45.5487C9.54175 45.5283 9.06777 44.9893 9.09485 44.239C9.16934 41.865 9.46727 39.5183 10.0428 37.2057C10.4694 35.4661 11.6882 34.3815 13.0899 33.4674C14.8572 32.3145 16.8005 31.5573 18.8115 30.9638C19.1501 30.8614 19.4345 30.8 19.2381 30.3021C19.0756 29.8927 19.2584 29.4834 19.5835 29.1765C20.1251 28.658 20.6668 28.1395 21.2356 27.6484C21.7773 27.1777 22.319 27.2323 22.9217 27.8121C24.6348 29.4698 26.3479 31.1207 28.0339 32.8056C28.3928 33.1604 28.5553 33.1399 28.8939 32.7988C30.5393 31.1548 32.2185 29.538 33.8842 27.9213C34.6562 27.1709 35.1775 27.164 35.9562 27.894C36.4234 28.3306 36.8907 28.7603 37.3579 29.1969C37.6897 29.5107 37.8319 29.9064 37.6693 30.3225C37.5068 30.7386 37.7235 30.7796 38.0214 30.8683C39.9986 31.4413 41.9013 32.1849 43.6889 33.2218C45.8151 34.4497 47.1423 36.1824 47.4808 38.686C47.7314 40.5143 48.0225 42.3357 48.0699 44.1844C48.0902 45.0235 47.7043 45.5283 47.0068 45.5556C46.2755 45.5828 45.8354 45.1053 45.7948 44.2526C45.7068 42.2402 45.4359 40.2482 45.0093 38.2767C44.7926 37.2603 44.278 36.4894 43.452 35.8891C41.5899 34.5452 39.4773 33.7675 37.3105 33.1058C36.9855 33.0035 36.9787 33.2081 36.9245 33.3991C36.5521 34.6612 36.1864 35.9232 35.814 37.1784C35.5432 38.0925 34.9473 38.379 34.0535 38.0175C32.8279 37.5195 31.5956 37.0283 30.3768 36.5099C29.9773 36.3393 29.8825 36.4007 29.8825 36.8441C29.9028 39.2932 29.896 41.7422 29.8892 44.1912C29.8892 45.0576 29.3746 45.5419 28.6095 45.4601C28.0001 45.3918 27.6209 44.9211 27.6209 44.1707C27.6141 41.6876 27.6209 39.1977 27.6209 36.7145C27.6344 36.5099 27.6344 36.2984 27.6344 36.0119ZM26.1854 34.17C24.804 32.8398 23.4837 31.5709 22.1701 30.3021C22.0549 30.1929 21.9601 30.1042 21.7909 30.2338C21.608 30.3703 21.608 30.5135 21.6622 30.7182C22.0888 32.178 22.5086 33.6379 22.9217 35.0978C23.0029 35.3979 23.1248 35.4184 23.3956 35.3024C24.2827 34.9136 25.19 34.5657 26.1854 34.17ZM30.7356 34.1632C31.3112 34.4019 31.7919 34.6066 32.2727 34.8044C32.767 35.0023 33.3832 35.4593 33.742 35.3092C34.1754 35.1319 34.1415 34.3337 34.3108 33.8153C34.6494 32.7852 34.9338 31.7414 35.252 30.7045C35.3197 30.4931 35.2791 30.3566 35.1031 30.227C34.9609 30.1179 34.8728 30.1861 34.7713 30.2816C33.4509 31.5573 32.117 32.8329 30.7356 34.1632Z" fill="#0B3B79"/>
<path d="M38.8417 43.4411C38.0765 43.4411 37.3114 43.4479 36.5462 43.4411C35.8149 43.4274 35.3545 42.984 35.3477 42.3155C35.341 41.6537 35.8082 41.1694 36.5259 41.1626C38.0901 41.1489 39.6542 41.1489 41.2251 41.1626C41.9226 41.1694 42.4236 41.6947 42.4101 42.3223C42.3966 42.9704 41.909 43.4206 41.1845 43.4342C40.4058 43.4479 39.6271 43.4411 38.8417 43.4411Z" fill="#0B3B79"/>
<path d="M41.5689 14.8443C41.535 15.4582 41.0137 15.9358 40.4178 15.9153C39.7948 15.8948 39.2802 15.3355 39.3141 14.7215C39.3412 14.0871 39.8829 13.6027 40.5126 13.63C41.1491 13.6709 41.6095 14.1962 41.5689 14.8443Z" fill="#0B3B79"/>
</svg>
