<svg width="26" height="26" viewBox="0 0 26 26" fill="none" xmlns="http://www.w3.org/2000/svg">
<path d="M12.8555 25.1152C6.22784 25.1152 0.855469 19.7429 0.855469 13.1152C0.855469 6.48759 6.22784 1.11523 12.8555 1.11523C19.4831 1.11523 24.8555 6.48759 24.8555 13.1152C24.8555 19.7429 19.4831 25.1152 12.8555 25.1152Z" stroke="white" stroke-width="0.4321" stroke-miterlimit="10"/>
<path d="M7.1875 17.1651C8.21548 17.8263 9.43976 18.2086 10.7519 18.2086C15.0704 18.2086 17.5086 14.5616 17.364 11.2865C17.8186 10.9611 18.2112 10.5478 18.5263 10.0829C18.1079 10.2689 17.6584 10.3928 17.1884 10.4497C17.6688 10.1604 18.0355 9.70579 18.2112 9.16339C17.7618 9.43201 17.2658 9.62314 16.7338 9.72645C16.3102 9.27187 15.7058 8.99292 15.0343 8.99292C13.531 8.99292 12.4307 10.3928 12.7665 11.8496C10.8345 11.7514 9.11948 10.8268 7.97269 9.41651C7.36313 10.46 7.65758 11.8289 8.69072 12.5211C8.30846 12.5108 7.95203 12.4023 7.63692 12.2318C7.61109 13.3115 8.38595 14.3188 9.50175 14.5409C9.17631 14.6287 8.8147 14.6494 8.4531 14.5822C8.74755 15.5069 9.61022 16.1785 10.6279 16.1991C9.65155 16.9688 8.42211 17.3097 7.1875 17.1651Z" fill="white"/>
</svg>
