<svg width="60" height="77" viewBox="0 0 60 77" fill="none" xmlns="http://www.w3.org/2000/svg">
<path d="M30.6286 0C31.9815 0.332055 33.3591 0.58334 34.6783 1.01411C36.6998 1.67598 38.4431 2.84266 39.9755 4.31671C40.6823 4.99653 40.754 5.71224 40.1887 6.28437C39.6121 6.8677 39.0085 6.83405 38.2749 6.17667C32.8229 1.3013 25.7443 1.3013 20.2945 6.17667C19.5676 6.82732 18.9506 6.86097 18.3785 6.28437C17.8131 5.71224 17.8782 5.00326 18.5939 4.31896C21.0394 1.9856 23.9426 0.601289 27.2946 0.154809C27.5122 0.125642 27.7254 0.0516031 27.9385 0C28.8337 0 29.7312 0 30.6264 0L30.6286 0Z" fill="white"/>
<path d="M29.2812 5.27344C32.0521 5.32055 34.4729 6.2539 36.4967 8.16994C37.0441 8.68822 37.1383 9.26707 36.73 9.90201C36.3733 10.4562 35.8438 10.5616 35.2604 10.3463C35.0338 10.261 34.8431 10.068 34.6547 9.9065C31.3408 7.06609 27.2081 7.06833 23.9033 9.91548C23.1359 10.5773 22.4696 10.6132 21.9199 10.0254C21.3433 9.40618 21.442 8.73309 22.243 8.0084C24.2376 6.20229 26.5978 5.3228 29.279 5.27568L29.2812 5.27344Z" fill="white"/>
<path d="M33.7263 12.8371C33.4256 13.1871 33.1901 13.6672 32.8176 13.831C32.4811 13.9791 31.9 13.9253 31.5859 13.7188C29.5756 12.4018 28.9698 12.3794 26.9999 13.7368C26.4031 14.1474 25.8265 14.0868 25.3419 13.5708C24.855 13.0525 24.8326 12.4826 25.3015 11.915C27.1188 9.714 31.4423 9.70727 33.2551 11.915C33.4413 12.1416 33.5311 12.4445 33.7285 12.8371H33.7263Z" fill="white"/>
<g clip-path="url(#clip0_364_131238)">
<path d="M60 76.7895H0V72.9438H4.05253V72.1214C4.05253 59.3998 4.05253 46.6767 4.05253 33.9552C4.05253 32.2556 4.40656 31.7935 6.03572 31.3548C13.7398 29.2808 21.4438 27.2067 29.1478 25.1311C30.9007 24.6596 31.9691 25.4773 31.9707 27.2992C31.9707 29.4265 31.9707 31.5538 31.9707 33.7234H28.1453V29.4077C27.2868 29.6317 26.5051 29.8306 25.7282 30.039C19.9634 31.5898 14.2019 33.1469 8.43402 34.6852C8.02047 34.7964 7.88888 34.964 7.89045 35.3948C7.90298 47.7059 7.89985 60.0186 7.89985 72.3297V72.8905H28.1124V72.1699C28.1124 61.441 28.1124 50.712 28.1124 39.9847C28.1124 38.3257 28.8063 37.6302 30.4574 37.6287C38.2351 37.624 46.0127 37.6177 53.7904 37.6146C55.1345 37.6146 55.9083 38.3712 55.9099 39.7105C55.913 47.1953 55.9114 54.68 55.9099 62.1647C55.9099 62.3167 55.8911 62.4702 55.8785 62.6566H52.0767V41.501H32.013V72.8843C32.1101 72.8984 32.2197 72.9281 32.3294 72.9281C41.5529 72.9281 50.7765 72.925 60 72.9219V76.7911V76.7895Z" fill="white"/>
<path d="M22.5501 50.2667H13.4629V46.4805H22.5501V50.2667Z" fill="white"/>
<path d="M37.3887 50.2604V46.4883H46.4822V50.2604H37.3887Z" fill="white"/>
<path d="M22.5709 55.2461V59.0229H13.4648V55.2461H22.5709Z" fill="white"/>
<path d="M37.3926 59.0214V55.2461H46.4986V59.0214H37.3926Z" fill="white"/>
<path d="M22.565 37.7383V41.4994H13.4668V37.7383H22.565Z" fill="white"/>
<path d="M22.5611 67.7721H13.4629V64H22.5611V67.7721Z" fill="white"/>
<path d="M46.5107 64.0117V67.7588H37.4141V64.0117H46.5107Z" fill="white"/>
<path d="M55.8588 69.7075H52.1211V66.1641H55.8588V69.7075Z" fill="white"/>
</g>
<defs>
<clipPath id="clip0_364_131238">
<rect width="60" height="51.79" fill="white" transform="translate(0 25)"/>
</clipPath>
</defs>
</svg>
