<svg width="39" height="39" viewBox="0 0 39 39" fill="none" xmlns="http://www.w3.org/2000/svg">
<path d="M8.99525 22.9168C8.84177 22.852 8.71422 22.738 8.63274 22.5927C8.55126 22.4474 8.52047 22.2791 8.54525 22.1143L9.91025 13.2268H6.28775C6.17291 13.2299 6.05889 13.2066 5.95449 13.1586C5.85009 13.1107 5.75811 13.0394 5.68564 12.9502C5.61316 12.8611 5.56214 12.7565 5.5365 12.6445C5.51086 12.5325 5.51128 12.4161 5.53775 12.3043L7.78775 2.55433C7.82734 2.38653 7.92353 2.2375 8.06014 2.13232C8.19674 2.02713 8.36541 1.97222 8.53775 1.97683H16.0378C16.1498 1.97645 16.2605 2.00118 16.3617 2.0492C16.463 2.09722 16.5522 2.16731 16.6228 2.25433C16.6943 2.34233 16.745 2.44542 16.771 2.55584C16.797 2.66627 16.7976 2.78114 16.7727 2.89183L15.4753 8.72683H19.0378C19.1783 8.72655 19.3161 8.76578 19.4355 8.84004C19.5548 8.9143 19.6509 9.0206 19.7128 9.14683C19.7665 9.26798 19.7872 9.40122 19.7727 9.53296C19.7582 9.6647 19.709 9.79026 19.6303 9.89683L9.88025 22.6468C9.81435 22.7445 9.72637 22.8253 9.62343 22.8826C9.52049 22.94 9.40549 22.9722 9.28775 22.9768C9.18739 22.975 9.08824 22.9546 8.99525 22.9168ZM13.6002 10.2268L15.1002 3.47683H9.13775L7.23275 11.7268H11.6652L10.4727 19.4368L17.5378 10.2268H13.6002Z" fill="white"/>
<path d="M28.4305 18.6046C28.4305 17.6669 27.3102 17.1818 26.6262 17.8229L22.3945 21.7915C22.1164 22.0521 21.7496 22.197 21.3685 22.1969H18.7877C18.0488 22.1969 17.3403 22.4904 16.8179 23.0128C16.2954 23.5353 16.002 24.2438 16.002 24.9826V27.9758C16.002 28.7146 16.2954 29.4232 16.8179 29.9456C17.3403 30.468 18.0488 30.7615 18.7877 30.7615H21.3694C21.75 30.7615 22.1168 30.9072 22.3945 31.1669L26.6262 35.1321C27.3111 35.7732 28.4305 35.2881 28.4305 34.3503V18.6046ZM23.274 22.7292L27.1448 19.0984V33.8549L23.274 30.2275C22.7577 29.7439 22.0768 29.4749 21.3694 29.4749H18.7877C18.3898 29.4749 18.0083 29.3169 17.727 29.0356C17.4457 28.7543 17.2877 28.3727 17.2877 27.9749V24.9818C17.2877 24.1538 17.9597 23.4818 18.7877 23.4818H21.3685C22.0764 23.4816 22.7577 23.2119 23.274 22.7275V22.7292ZM33.7465 18.9801C33.6324 18.8579 33.4752 18.785 33.3083 18.7768C33.1413 18.7685 32.9777 18.8257 32.8522 18.936C32.7267 19.0464 32.6491 19.2013 32.6358 19.368C32.6226 19.5346 32.6748 19.6998 32.7814 19.8286C34.4003 21.6651 35.2918 24.0302 35.2877 26.4784C35.2877 29.0266 34.3422 31.3529 32.7814 33.1272C32.7227 33.1901 32.6771 33.2641 32.6476 33.3449C32.618 33.4257 32.6049 33.5116 32.6091 33.5976C32.6134 33.6835 32.6348 33.7677 32.6722 33.8452C32.7096 33.9227 32.7621 33.9919 32.8267 34.0488C32.8914 34.1056 32.9667 34.1488 33.0484 34.176C33.13 34.2031 33.2163 34.2136 33.3021 34.2068C33.3878 34.2 33.4714 34.1761 33.5477 34.1364C33.6241 34.0967 33.6917 34.0421 33.7465 33.9758C35.5717 31.9051 36.577 29.2386 36.5734 26.4784C36.5774 23.7178 35.572 21.0509 33.7465 18.9801ZM31.7322 21.5944C31.6821 21.5253 31.6187 21.467 31.5458 21.4227C31.4729 21.3784 31.3919 21.3491 31.3076 21.3364C31.2232 21.3237 31.1372 21.328 31.0545 21.3489C30.9718 21.3698 30.8941 21.4069 30.8259 21.4582C30.7577 21.5094 30.7004 21.5737 30.6573 21.6474C30.6142 21.721 30.5862 21.8024 30.5749 21.887C30.5636 21.9715 30.5692 22.0575 30.5915 22.1398C30.6137 22.2222 30.6522 22.2993 30.7045 22.3666C31.5955 23.5521 32.076 24.9955 32.0734 26.4784C32.0734 28.0212 31.5642 29.4441 30.7045 30.5901C30.6539 30.6576 30.617 30.7345 30.5961 30.8162C30.5751 30.898 30.5705 30.9831 30.5824 31.0667C30.5944 31.1503 30.6226 31.2307 30.6656 31.3033C30.7087 31.376 30.7656 31.4394 30.8331 31.4901C30.9006 31.5407 30.9775 31.5776 31.0593 31.5985C31.141 31.6195 31.2261 31.6241 31.3097 31.6122C31.3933 31.6002 31.4737 31.572 31.5463 31.5289C31.619 31.4859 31.6824 31.429 31.7331 31.3615C32.7909 29.9535 33.3617 28.2394 33.3591 26.4784C33.3618 24.7173 32.791 23.0032 31.7331 21.5952L31.7322 21.5944Z" fill="white"/>
</svg>
