<svg width="26" height="26" viewBox="0 0 26 26" fill="none" xmlns="http://www.w3.org/2000/svg">
<path d="M12.8555 25.1152C6.22783 25.1152 0.855469 19.7429 0.855469 13.1152C0.855469 6.48759 6.22783 1.11523 12.8555 1.11523C19.4831 1.11523 24.8555 6.48759 24.8555 13.1152C24.8555 19.7429 19.4831 25.1152 12.8555 25.1152Z" stroke="white" stroke-width="0.4321" stroke-miterlimit="10"/>
<path d="M6.92624 13.1158C6.92624 16.3909 9.58142 19.0409 12.8513 19.0409C13.2336 19.0409 13.6004 19.0048 13.962 18.9376C14.4837 19.2527 15.0933 19.4335 15.7493 19.4335C17.6606 19.4335 19.2104 17.8838 19.2104 15.9725C19.2104 15.3009 19.0192 14.6759 18.6886 14.149C18.7454 13.8132 18.7816 13.4671 18.7816 13.1158C18.7816 9.84075 16.1264 7.19072 12.8565 7.19072C12.4846 7.19072 12.1178 7.22689 11.7665 7.29405C11.2448 6.97377 10.6301 6.79297 9.96885 6.79297C8.05753 6.79297 6.50781 8.3427 6.50781 10.254C6.50781 10.9204 6.69894 11.5403 7.02439 12.0672C6.95723 12.4081 6.92624 12.7594 6.92624 13.1158ZM12.9133 8.90575C14.8246 9.0194 15.9456 9.85626 16.0541 10.6414C16.1057 11.1529 15.7648 11.5558 15.1759 11.5558C14.3132 11.5558 14.2254 10.4038 12.7325 10.4038C12.061 10.4038 11.4927 10.6828 11.4927 11.2872C11.4927 12.5528 16.2659 11.8192 16.2659 14.6036C16.2659 16.2101 14.9796 17.2639 13.0631 17.2639C11.3739 17.2639 9.67957 16.4994 9.68474 15.1821C9.68991 14.7844 9.98435 14.4176 10.3769 14.4176C11.3688 14.4176 11.3636 15.895 12.9443 15.895C14.0549 15.895 14.432 15.2906 14.432 14.867C14.432 13.3431 9.63308 14.2781 9.63308 11.4111C9.63825 9.86142 10.9142 8.78694 12.9133 8.90575Z" fill="white"/>
</svg>
