<svg width="46" height="55" viewBox="0 0 46 55" fill="none" xmlns="http://www.w3.org/2000/svg">
<path d="M19.2462 0C19.7225 0.257066 19.9018 0.671602 19.8759 1.24764C19.8462 1.90848 19.887 2.57335 19.8622 3.23419C19.8486 3.60161 19.9389 3.73082 20.2952 3.7214C21.2985 3.69583 22.303 3.70794 23.3063 3.71467C24.1314 3.72005 24.4061 4.01615 24.411 4.9004C24.4172 6.01077 24.4222 7.11978 24.4061 8.23015C24.4011 8.55047 24.4766 8.65814 24.7871 8.66353C26.1331 8.6891 26.1331 8.70121 26.1331 7.24764C26.1331 6.47779 26.1306 5.70794 26.1343 4.93809C26.1392 4.00673 26.3978 3.71736 27.2539 3.71602C30.0175 3.71198 32.7824 3.71467 35.5461 3.71467C37.8656 3.71467 40.1864 3.71332 42.506 3.71467C43.4808 3.71467 43.7332 3.99058 43.7332 5.04576C43.7332 20.8708 43.7369 36.6945 43.7196 52.5195C43.7183 53.0861 43.8668 53.2301 44.343 53.1655C44.6177 53.1279 44.9022 53.148 45.1806 53.1696C45.6519 53.2046 45.9933 53.5868 46.0007 54.0633C46.0069 54.5101 45.6902 54.9085 45.2511 54.9838C45.1063 55.0094 44.9554 55.0013 44.8082 55.0013C30.2625 55.0027 15.718 55.0027 1.17227 55.0013C1.00897 55.0013 0.840725 55.004 0.681141 54.9677C0.271664 54.8721 -0.0165788 54.467 0.000740495 54.0404C0.0192969 53.5841 0.347126 53.2059 0.790005 53.1723C1.13392 53.1454 1.48401 53.1265 1.82545 53.1669C2.21761 53.2126 2.324 53.0417 2.26833 52.6581C2.25348 52.5532 2.26585 52.4441 2.26585 52.3365C2.26585 41.1305 2.26585 29.9246 2.26585 18.7187C2.26585 17.5532 2.49719 17.3015 3.57099 17.3015C5.62827 17.3015 7.68432 17.2907 9.7416 17.3109C10.1164 17.3149 10.2389 17.2275 10.234 16.7914C10.2117 14.5182 10.2228 12.245 10.2241 9.97174C10.2253 8.93809 10.4764 8.66218 11.4166 8.65814C12.0253 8.65545 12.6352 8.64065 13.2426 8.66487C13.5419 8.67698 13.6384 8.59085 13.6322 8.25168C13.6125 7.14266 13.6211 6.0323 13.6261 4.92194C13.6285 4.04172 13.9143 3.72409 14.7221 3.71736C15.7427 3.70929 16.7621 3.7039 17.7827 3.72275C18.0759 3.72813 18.1909 3.65814 18.1748 3.31225C18.1476 2.74159 18.1909 2.16554 18.1612 1.59489C18.1278 0.981157 18.212 0.432032 18.6573 0.00403768C18.8515 0 19.0482 0 19.2462 0ZM42.0359 29.4361C42.0359 21.6851 42.0322 13.934 42.0445 6.18304C42.0458 5.72274 41.9765 5.55316 41.4977 5.55585C37.1048 5.57873 32.7119 5.57739 28.319 5.5572C27.8947 5.55585 27.8205 5.68641 27.8217 6.11709C27.8365 11.5585 27.8316 17 27.8316 22.4428C27.8316 24.2867 27.8415 26.1306 27.8229 27.9744C27.8192 28.358 27.9219 28.4589 28.2633 28.4428C28.9041 28.4132 29.5474 28.4159 30.1882 28.4415C30.521 28.4549 30.6905 28.3957 30.7091 27.9731C30.7301 27.4953 31.0592 27.2396 31.4686 27.2086C31.8831 27.1777 32.2628 27.4038 32.3024 27.8668C32.3519 28.4468 32.6266 28.4926 33.0397 28.4374C33.2179 28.4132 33.4034 28.4159 33.5816 28.4374C33.9008 28.4751 34.0739 28.4092 34.1098 27.9892C34.1531 27.4926 34.5552 27.1736 34.9597 27.1965C35.4013 27.2221 35.7168 27.576 35.7626 28.1144C35.7774 28.2921 35.7725 28.4724 35.7725 28.6514C35.7725 36.6353 35.7762 44.6191 35.7638 52.6016C35.7626 53.0404 35.8578 53.1723 36.2735 53.1669C38.0178 53.1413 39.7621 53.1386 41.5052 53.1682C41.9406 53.1763 42.047 53.0579 42.0458 52.5814C42.0309 44.8668 42.0359 37.1521 42.0359 29.4361ZM3.96067 36.1454C3.96067 41.6406 3.96438 47.1359 3.95201 52.6312C3.95077 53.0471 4.03861 53.1803 4.43695 53.1669C5.4724 53.1346 6.51031 53.14 7.54576 53.1655C7.87854 53.1736 7.9639 53.0606 7.95895 52.7147C7.94163 51.6057 7.94781 50.4953 7.954 49.3849C7.95895 48.5276 8.24224 48.2167 9.02161 48.214C10.3713 48.2086 11.7197 48.21 13.0694 48.214C13.9044 48.2167 14.1988 48.5343 14.2013 49.4347C14.205 50.5087 14.2174 51.5828 14.1939 52.6568C14.1852 53.0417 14.2533 53.183 14.6442 53.1696C15.6636 53.1346 16.6842 53.1332 17.7035 53.1696C18.1179 53.1844 18.1736 53.0215 18.1736 52.6272C18.165 41.6366 18.1637 30.646 18.1773 19.6568C18.1773 19.2113 18.0474 19.1413 17.6813 19.1427C13.2883 19.1561 8.89543 19.1602 4.50252 19.1373C4.02005 19.1346 3.95325 19.3109 3.95448 19.7698C3.96562 25.2275 3.96067 30.6864 3.96067 36.1454ZM19.8684 41.6783C19.8684 45.3297 19.8746 48.9825 19.8598 52.6339C19.8585 53.0579 19.9587 53.1669 20.3484 53.1655C24.7747 53.1494 29.201 53.1494 33.6274 53.1669C34.0158 53.1682 34.0777 53.0404 34.0777 52.6554C34.0665 45.3513 34.0665 38.0485 34.0777 30.7443C34.0777 30.3688 33.996 30.2746 33.6484 30.2759C29.206 30.2894 24.7636 30.2907 20.3212 30.2759C19.9501 30.2746 19.8585 30.3742 19.861 30.7779C19.8746 34.4105 19.8684 38.0444 19.8684 41.6783ZM26.1281 19.5034C26.1281 16.6581 26.1244 13.8129 26.1343 10.9664C26.1355 10.6393 26.0861 10.5034 25.7384 10.5047C21.2639 10.5182 16.7893 10.5182 12.316 10.5047C11.9745 10.5034 11.9201 10.6258 11.9226 10.9569C11.9362 12.9071 11.9399 14.8587 11.9201 16.8089C11.9164 17.1992 11.9906 17.3149 12.3704 17.3109C14.5081 17.288 16.647 17.2974 18.786 17.3015C19.4948 17.3028 19.7559 17.5195 19.8548 18.2517C19.8932 18.533 20.0119 18.5518 20.2123 18.5491C20.9026 18.5424 21.5942 18.537 22.2845 18.5505C22.903 18.5612 23.2902 18.9354 23.2803 19.4805C23.2704 20.0242 22.877 20.3876 22.2585 20.397C21.6004 20.4078 20.9422 20.4145 20.2853 20.393C19.9822 20.3836 19.8449 20.4428 19.861 20.8237C19.8907 21.5734 19.8857 22.3271 19.8622 23.0781C19.8511 23.4213 19.9637 23.5034 20.2581 23.4953C20.9323 23.4751 21.6065 23.4899 22.2808 23.4886C22.5876 23.4886 22.8758 23.5478 23.075 23.8264C23.2803 24.1144 23.3397 24.4374 23.195 24.782C23.0329 25.1696 22.7286 25.3311 22.3624 25.3378C21.6548 25.3526 20.9472 25.3607 20.2408 25.3351C19.9266 25.3244 19.8523 25.4374 19.8622 25.7604C19.8845 26.4939 19.887 27.2288 19.861 27.961C19.8474 28.3351 19.9488 28.4455 20.2977 28.4428C22.0902 28.424 23.884 28.4213 25.6766 28.4441C26.0551 28.4495 26.1392 28.327 26.1368 27.9327C26.1207 25.1238 26.1281 22.3136 26.1281 19.5034ZM18.9988 8.65411C20.1171 8.65411 21.2367 8.64468 22.355 8.66083C22.6321 8.66487 22.7236 8.58143 22.7162 8.27187C22.6964 7.48452 22.6964 6.69717 22.7162 5.90982C22.7236 5.60834 22.616 5.56528 22.3748 5.56528C20.1369 5.57335 17.9002 5.57604 15.6623 5.56393C15.3629 5.56258 15.311 5.68506 15.3172 5.97039C15.332 6.7214 15.3431 7.4751 15.3135 8.22476C15.2986 8.60565 15.4384 8.66487 15.7415 8.65949C16.8277 8.64468 17.9126 8.65411 18.9988 8.65411ZM12.4941 51.6137C12.4941 51.2019 12.4805 50.79 12.4991 50.3795C12.5114 50.1104 12.4137 50.0485 12.1849 50.0525C11.4451 50.0646 10.7053 50.0646 9.96551 50.0525C9.74531 50.0485 9.6451 50.0915 9.65005 50.3688C9.66737 51.1911 9.65871 52.0135 9.65376 52.8358C9.65253 53.0377 9.66985 53.1682 9.91355 53.1642C10.1486 53.1615 10.2352 53.0821 10.2253 52.825C10.2105 52.4495 10.2105 52.074 10.2253 51.6985C10.2513 51.0525 10.5791 50.6797 11.0888 50.6904C11.5638 50.6999 11.8941 51.0821 11.9226 51.6864C11.9399 52.0606 11.935 52.4374 11.9238 52.8129C11.9164 53.0471 11.9548 53.1682 12.2133 53.1642C12.483 53.1615 12.4978 53.0108 12.4941 52.7927C12.4892 52.3997 12.4941 52.0067 12.4941 51.6137Z" fill="#0B3B79"/>
<path d="M35.7848 16.4029C35.7711 16.6518 35.7711 16.9022 35.739 17.1471C35.6771 17.6236 35.3765 17.8699 34.972 17.9022C34.5835 17.9331 34.2495 17.7272 34.1481 17.2965C34.0033 16.6882 34.0021 16.0583 34.1481 15.4513C34.252 15.0233 34.5823 14.8147 34.9745 14.847C35.3815 14.8807 35.6796 15.1296 35.7402 15.6047C35.7724 15.8672 35.7699 16.135 35.7848 16.4029Z" fill="#0B3B79"/>
<path d="M39.1775 16.4249C39.1775 16.6389 39.1985 16.8542 39.1738 17.0655C39.1144 17.5716 38.7371 17.9336 38.3128 17.9188C37.8773 17.904 37.5285 17.538 37.5012 17.0225C37.479 16.5972 37.479 16.1678 37.5 15.7412C37.526 15.2203 37.8649 14.8569 38.3029 14.8367C38.7247 14.8166 39.1119 15.1773 39.1701 15.6793C39.1985 15.9242 39.175 16.1773 39.175 16.4262C39.1763 16.4249 39.1775 16.4249 39.1775 16.4249Z" fill="#0B3B79"/>
<path d="M39.1644 28.6975C39.1644 28.964 39.1953 29.2358 39.1582 29.4956C39.0889 29.972 38.7029 30.2991 38.2947 30.2749C37.8716 30.2493 37.5326 29.9061 37.5042 29.4175C37.4782 28.9747 37.4782 28.5265 37.5017 28.0837C37.5277 27.5723 37.8864 27.2035 38.3194 27.1955C38.7227 27.1874 39.0988 27.5319 39.1644 28.0057C39.1953 28.2318 39.1693 28.4673 39.1693 28.6975C39.1668 28.6975 39.1656 28.6975 39.1644 28.6975Z" fill="#0B3B79"/>
<path d="M32.3765 16.2773C32.3542 16.6797 32.4037 16.9839 32.3072 17.2787C32.1612 17.7241 31.8544 17.9449 31.4425 17.9018C31.0355 17.8601 30.7299 17.599 30.6978 17.1239C30.6644 16.6461 30.6644 16.1629 30.6916 15.6851C30.7188 15.2019 31.0726 14.8345 31.4907 14.8439C31.9311 14.8533 32.2404 15.0996 32.3307 15.5828C32.379 15.8399 32.3666 16.1118 32.3765 16.2773Z" fill="#0B3B79"/>
<path d="M37.5028 41.0393C37.5028 40.8253 37.4867 40.61 37.5065 40.3987C37.551 39.9195 37.895 39.5481 38.3106 39.5588C38.7498 39.5709 39.0739 39.8145 39.1506 40.2977C39.2335 40.824 39.236 41.3664 39.1494 41.8913C39.0702 42.3717 38.751 42.6207 38.3081 42.6275C37.8912 42.6342 37.5473 42.2654 37.5065 41.7863C37.4855 41.54 37.5028 41.2883 37.5028 41.0393Z" fill="#0B3B79"/>
<path d="M30.6641 10.1833C30.674 9.93427 30.6641 9.68259 30.6987 9.43898C30.7606 9.00426 31.0006 8.73777 31.4088 8.68528C31.8344 8.6301 32.1721 8.81449 32.2884 9.25998C32.4455 9.86428 32.4381 10.4982 32.297 11.1039C32.1931 11.5507 31.8616 11.7593 31.4348 11.7122C31.008 11.6651 30.7482 11.3932 30.6975 10.9289C30.6702 10.6839 30.6925 10.4323 30.6925 10.1833C30.6826 10.1833 30.6727 10.1833 30.6641 10.1833Z" fill="#0B3B79"/>
<path d="M37.5008 10.1893C37.5008 9.95782 37.4823 9.72498 37.5045 9.49618C37.5528 9.00627 37.8175 8.71959 38.2691 8.68326C38.7206 8.64692 39.041 8.88918 39.1363 9.36293C39.2439 9.90264 39.2303 10.4639 39.1449 11.0063C39.0695 11.4894 38.6847 11.7707 38.2493 11.7169C37.799 11.6617 37.5441 11.371 37.5021 10.8824C37.4823 10.6536 37.4984 10.4208 37.4984 10.1893C37.4996 10.1893 37.5008 10.1893 37.5008 10.1893Z" fill="#0B3B79"/>
<path d="M39.2018 22.6353C39.187 22.852 39.2031 23.1266 39.1449 23.381C39.0361 23.8493 38.7379 24.1064 38.2839 24.0727C37.8348 24.0391 37.5491 23.7605 37.5132 23.2706C37.4798 22.8116 37.4823 22.346 37.507 21.8843C37.5355 21.3756 37.8534 21.0552 38.2913 21.0324C38.7255 21.0108 39.0806 21.3015 39.161 21.7874C39.2031 22.0485 39.1882 22.3204 39.2018 22.6353Z" fill="#0B3B79"/>
<path d="M39.1995 34.9146C39.1859 35.1797 39.1995 35.4516 39.1513 35.71C39.0634 36.1905 38.6997 36.4745 38.2618 36.4301C37.8078 36.3843 37.5406 36.0963 37.5072 35.6077C37.4775 35.1649 37.4787 34.7181 37.4998 34.2753C37.5257 33.7383 37.8511 33.4045 38.3076 33.391C38.7554 33.3776 39.1104 33.706 39.1711 34.2214C39.1983 34.4489 39.176 34.6831 39.176 34.9146C39.1834 34.9146 39.1921 34.9146 39.1995 34.9146Z" fill="#0B3B79"/>
<path d="M37.5039 47.2646C37.5039 47.0331 37.4841 46.8002 37.5076 46.5714C37.5571 46.0842 37.8181 45.8002 38.2696 45.7545C38.7051 45.71 39.0812 46.0008 39.1529 46.4839C39.2309 47.0102 39.2346 47.5512 39.1505 48.0761C39.0725 48.558 38.6915 48.8379 38.256 48.7868C37.8033 48.7329 37.5497 48.4449 37.5064 47.9563C37.4866 47.7275 37.5027 47.4947 37.5027 47.2632C37.5027 47.2646 37.5039 47.2646 37.5039 47.2646Z" fill="#0B3B79"/>
<path d="M35.7866 10.2228C35.773 10.4732 35.778 10.7262 35.7408 10.9712C35.674 11.4113 35.4204 11.6683 35.0122 11.7114C34.5804 11.7572 34.2551 11.5485 34.1462 11.0963C34.0027 10.5041 34.004 9.88636 34.1462 9.29282C34.2551 8.83925 34.5829 8.63737 35.0122 8.68178C35.4204 8.72351 35.6777 8.97519 35.7408 9.41933C35.778 9.68448 35.773 9.955 35.7866 10.2228Z" fill="#0B3B79"/>
<path d="M30.6878 22.582C30.6878 22.333 30.6668 22.0813 30.6927 21.8364C30.741 21.372 30.9934 21.0948 31.4226 21.0463C31.8729 20.9952 32.2057 21.2146 32.3071 21.691C32.4296 22.2644 32.4309 22.8619 32.3047 23.4339C32.1995 23.909 31.8643 24.1257 31.4152 24.0719C30.9872 24.0194 30.7373 23.7395 30.6903 23.2751C30.668 23.0463 30.6878 22.8135 30.6878 22.582Z" fill="#0B3B79"/>
<path d="M35.7861 22.5824C35.7725 22.8327 35.7775 23.0858 35.7404 23.3307C35.6748 23.7695 35.4249 24.0306 35.0154 24.0737C34.5849 24.1194 34.2571 23.9162 34.147 23.4653C34.0023 22.8731 34.0047 22.2554 34.1445 21.6618C34.2522 21.2083 34.5775 21.0037 35.008 21.0441C35.4187 21.0831 35.6711 21.3415 35.7391 21.7789C35.78 22.0427 35.7725 22.3132 35.7861 22.5824Z" fill="#0B3B79"/>
<path d="M10.2109 31.144C10.2245 30.9139 10.2233 30.6622 10.2592 30.4186C10.3297 29.9448 10.6353 29.7026 11.041 29.681C11.4295 29.6608 11.7548 29.8708 11.8538 30.3069C11.9886 30.8991 11.9886 31.5101 11.8563 32.1023C11.7536 32.5599 11.4171 32.7766 11.0039 32.7362C10.5969 32.6958 10.305 32.4401 10.253 31.9623C10.2245 31.6972 10.2245 31.4293 10.2109 31.144Z" fill="#0B3B79"/>
<path d="M11.9173 43.5755C11.921 43.877 11.9593 44.1811 11.8616 44.4745C11.7218 44.8958 11.4311 45.1165 11.0377 45.0937C10.6282 45.0694 10.309 44.8258 10.2645 44.3521C10.22 43.877 10.2175 43.3924 10.2422 42.9147C10.2695 42.3911 10.6233 42.0344 11.0575 42.0237C11.4756 42.0129 11.8492 42.375 11.9123 42.8824C11.9408 43.1098 11.9173 43.344 11.9173 43.5755Z" fill="#0B3B79"/>
<path d="M8.49168 31.217C8.49168 31.4485 8.50777 31.6813 8.48797 31.9101C8.44715 32.4108 8.15272 32.6679 7.72469 32.7392C7.34366 32.8025 6.9379 32.4902 6.85501 32.0447C6.75481 31.5023 6.76099 30.9424 6.84759 30.4C6.92553 29.9169 7.25583 29.6759 7.695 29.6719C8.11561 29.6679 8.44839 30.038 8.49045 30.5225C8.51024 30.7513 8.49416 30.9842 8.49416 31.2156C8.49292 31.217 8.49168 31.217 8.49168 31.217Z" fill="#0B3B79"/>
<path d="M15.3012 31.2418C15.3012 31.4733 15.3186 31.7061 15.2975 31.9349C15.2493 32.4356 14.9474 32.7061 14.5182 32.7384C14.1062 32.7694 13.7722 32.5406 13.6807 32.0789C13.5656 31.5029 13.5631 30.9094 13.6831 30.3333C13.7796 29.8717 14.1161 29.6483 14.5268 29.6832C14.9549 29.7196 15.2555 29.9928 15.2988 30.4948C15.3198 30.7411 15.3025 30.9928 15.3012 31.2418Z" fill="#0B3B79"/>
<path d="M15.3008 43.5935C15.3008 43.825 15.3181 44.0578 15.2971 44.2866C15.2513 44.7859 14.9569 45.0618 14.5251 45.0968C14.1107 45.1318 13.7779 44.9044 13.6827 44.4454C13.5627 43.8707 13.5664 43.2758 13.6802 42.6998C13.7717 42.2368 14.1095 42.012 14.5177 42.0417C14.9457 42.0726 15.2513 42.3418 15.2958 42.8452C15.3193 43.0941 15.3008 43.3445 15.3008 43.5935Z" fill="#0B3B79"/>
<path d="M8.49184 43.5904C8.49184 43.8044 8.50668 44.0184 8.48936 44.2311C8.44978 44.7264 8.13556 45.0709 7.71123 45.1059C7.3067 45.1396 6.90218 44.8166 6.83537 44.3441C6.76238 43.834 6.76486 43.3118 6.8329 42.8017C6.89599 42.3266 7.29804 41.9996 7.70134 42.0292C8.12442 42.0602 8.4473 42.4074 8.48689 42.8973C8.50668 43.1261 8.4906 43.3589 8.49184 43.5904Z" fill="#0B3B79"/>
<path d="M11.9098 37.371C11.9122 37.655 11.9593 37.943 11.8801 38.2243C11.7465 38.698 11.4558 38.9403 11.003 38.9026C10.5712 38.8676 10.2941 38.5998 10.257 38.1274C10.2211 37.6657 10.2174 37.1973 10.2434 36.7344C10.2731 36.2081 10.5824 35.8905 11.0203 35.8649C11.4756 35.838 11.8294 36.1462 11.9048 36.6751C11.937 36.9026 11.9098 37.1395 11.9098 37.371Z" fill="#0B3B79"/>
<path d="M15.3063 25.0291C15.3063 25.2606 15.3237 25.4935 15.3026 25.7223C15.2569 26.2108 14.9996 26.5016 14.5468 26.5433C14.0952 26.585 13.7724 26.3481 13.6771 25.873C13.5658 25.3158 13.5658 24.7371 13.6783 24.1799C13.7748 23.7034 14.0989 23.4719 14.5505 23.5123C14.9798 23.55 15.2408 23.8192 15.2965 24.2835C15.3249 24.5285 15.3014 24.7802 15.3014 25.0291C15.3026 25.0291 15.3051 25.0291 15.3063 25.0291Z" fill="#0B3B79"/>
<path d="M10.2109 25.0251C10.2233 24.7747 10.2208 24.523 10.253 24.2754C10.3149 23.8043 10.5821 23.5432 11.0126 23.5109C11.4431 23.4786 11.7585 23.698 11.8587 24.1556C11.9849 24.733 11.9874 25.3306 11.8563 25.908C11.7536 26.3629 11.4357 26.5809 11.0052 26.5446C10.5734 26.5082 10.3111 26.2431 10.2505 25.7734C10.2196 25.5271 10.2233 25.2754 10.2109 25.0251Z" fill="#0B3B79"/>
<path d="M8.4923 25.0447C8.4923 25.2587 8.50715 25.4727 8.48983 25.684C8.449 26.1941 8.14839 26.5185 7.7117 26.5454C7.27624 26.5723 6.90635 26.287 6.83584 25.8011C6.76161 25.2924 6.76532 24.7688 6.83336 24.2601C6.89893 23.7729 7.26511 23.4808 7.69933 23.501C8.13726 23.5225 8.44529 23.8428 8.48859 24.3502C8.50839 24.579 8.4923 24.8119 8.4923 25.0434C8.4923 25.0447 8.4923 25.0447 8.4923 25.0447Z" fill="#0B3B79"/>
<path d="M8.4923 37.4209C8.49107 37.6349 8.50715 37.8489 8.48859 38.0602C8.44406 38.5676 8.13849 38.8879 7.69933 38.9094C7.26635 38.931 6.89769 38.6376 6.83336 38.1517C6.76532 37.6416 6.76161 37.1194 6.83584 36.6106C6.90635 36.1261 7.27748 35.8381 7.7117 35.865C8.14839 35.8919 8.449 36.2149 8.48983 36.7264C8.50838 36.9579 8.4923 37.1907 8.4923 37.4209Z" fill="#0B3B79"/>
<path d="M15.3039 37.3698C15.3039 37.6188 15.3261 37.8705 15.2989 38.1154C15.2482 38.5798 14.9934 38.8543 14.5641 38.9001C14.1138 38.9472 13.786 38.7265 13.682 38.25C13.5608 37.6942 13.5707 37.1141 13.6734 36.5569C13.7612 36.0818 14.0804 35.8355 14.5332 35.8705C14.9847 35.9055 15.2507 36.1894 15.3014 36.678C15.3249 36.9055 15.3051 37.1396 15.3051 37.3698C15.3051 37.3698 15.3051 37.3698 15.3039 37.3698Z" fill="#0B3B79"/>
<path d="M26.1328 41.6924C26.1328 38.9737 26.1328 36.2536 26.134 33.5349C26.134 33.3209 26.1303 33.1029 26.1613 32.8929C26.2256 32.4434 26.5077 32.2038 26.8973 32.1554C27.2734 32.1083 27.5654 32.3034 27.7348 32.6789C27.8388 32.9091 27.8338 33.1634 27.8338 33.4151C27.8326 38.9427 27.8326 44.4703 27.8326 49.9992C27.8326 50.2321 27.8412 50.4649 27.7559 50.687C27.5889 51.1204 27.2883 51.3169 26.8602 51.2577C26.4507 51.2011 26.2107 50.936 26.1551 50.4932C26.1303 50.2994 26.134 50.1002 26.134 49.9037C26.1328 47.1661 26.1328 44.4286 26.1328 41.6924Z" fill="#0B3B79"/>
<path d="M31.2281 41.7622C31.2281 44.4809 31.2281 47.2009 31.2269 49.9196C31.2269 50.1161 31.2269 50.3153 31.1997 50.5078C31.1378 50.9492 30.8904 51.2076 30.4834 51.2574C30.0554 51.3099 29.7572 51.1054 29.5989 50.6679C29.5247 50.4634 29.5234 50.2494 29.5234 50.034C29.5247 44.4889 29.5247 38.9425 29.5234 33.3974C29.5234 33.1821 29.5259 32.9694 29.5952 32.7622C29.7375 32.3382 30.0356 32.1215 30.4278 32.1511C30.836 32.1821 31.1354 32.4311 31.1985 32.9089C31.2257 33.1202 31.2269 33.3368 31.2269 33.5508C31.2281 36.2884 31.2281 39.0246 31.2281 41.7622Z" fill="#0B3B79"/>
<path d="M24.4125 41.736C24.4125 44.5261 24.4137 47.3174 24.4113 50.1075C24.41 50.7764 24.2108 51.129 23.7915 51.2421C23.3016 51.374 22.8698 51.0913 22.7523 50.5409C22.7127 50.3524 22.7127 50.1505 22.7127 49.9554C22.7102 44.4641 22.7115 38.9715 22.7115 33.4803C22.7115 33.409 22.7103 33.3376 22.7115 33.2663C22.7276 32.5651 23.0727 32.1236 23.5898 32.1411C24.0921 32.1586 24.4088 32.5705 24.41 33.2582C24.4162 36.0833 24.4125 38.9096 24.4125 41.736Z" fill="#0B3B79"/>
<path d="M19.0408 13.6043C20.1406 13.6043 21.2416 13.5855 22.3414 13.6111C23.0997 13.6286 23.4981 14.3554 23.1393 15.0014C22.9587 15.3271 22.6717 15.4523 22.3488 15.4536C20.1319 15.4617 17.9151 15.4671 15.6994 15.4523C15.1192 15.4482 14.7704 15.0525 14.7815 14.5034C14.7914 13.9704 15.1217 13.6191 15.6932 13.6097C16.8079 13.5909 17.925 13.6043 19.0408 13.6043Z" fill="#0B3B79"/>
</svg>
