<svg width="68" height="69" viewBox="0 0 68 69" fill="none" xmlns="http://www.w3.org/2000/svg">
<path d="M0.00177475 31.9969C0.173926 30.7298 0.282185 29.4502 0.53065 28.1972C2.91591 16.1183 9.73451 7.44151 21.061 2.72777C31.7947 -1.73928 42.3029 -0.637156 52.2522 5.42716C53.0366 5.90635 53.7767 6.45829 54.6481 7.05284C54.6481 6.71031 54.6481 6.47782 54.6481 6.2471C54.6481 4.87522 54.6197 3.50156 54.6623 2.12968C54.6996 0.976091 55.5887 0.138409 56.6625 0.149058C57.7468 0.159706 58.6129 1.00449 58.62 2.1634C58.6431 5.26211 58.6431 8.3626 58.62 11.4613C58.6111 12.6291 57.8391 13.4526 56.6642 13.4686C53.5442 13.5076 50.4207 13.5076 47.3006 13.4686C46.1187 13.4544 45.265 12.4995 45.3129 11.4116C45.3608 10.3237 46.2109 9.52861 47.3823 9.50731C48.5323 9.48602 49.6841 9.49134 50.8342 9.48247C50.8519 9.48247 50.8679 9.46117 50.9442 9.41148C50.8164 9.29967 50.7099 9.18254 50.5804 9.09735C44.8728 5.3544 38.6079 3.6116 31.8071 4.22211C20.5889 5.22839 12.228 10.7869 7.17177 20.8107C2.53612 30.0021 2.91236 39.3267 7.63675 48.4737C7.87634 48.9387 8.14433 49.425 8.22597 49.9308C8.37682 50.8714 7.79825 51.7144 6.9375 52.009C6.01995 52.3232 4.9977 52.0037 4.55578 51.0808C3.5637 49.0133 2.55919 46.9386 1.75168 44.7964C0.78089 42.2231 0.307032 39.513 0.111809 36.7639C0.099386 36.5918 0.0372698 36.4214 0 36.251V32.0005L0.00177475 31.9969Z" fill="white"/>
<path d="M11.0277 68.13C9.7641 67.6792 9.33816 66.7723 9.36655 65.4572C9.42867 62.6691 9.38253 59.8792 9.38785 57.091C9.3914 55.5257 10.1457 54.7626 11.7074 54.759C14.6287 54.7519 17.5517 54.7466 20.4729 54.7608C22.0844 54.7697 23.0765 56.0528 22.5742 57.4336C22.285 58.2304 21.6017 58.7167 20.6806 58.7345C19.7062 58.754 18.7319 58.7398 17.7593 58.7398C17.5482 58.7398 17.3352 58.7398 17.0743 58.88C17.2784 59.0255 17.4772 59.1799 17.6884 59.313C23.3534 62.9335 29.5401 64.6107 36.2451 64.0214C46.9256 63.0826 55.0788 57.9181 60.2451 48.574C65.4841 39.0969 65.3209 29.3748 60.3604 19.7432C60.1581 19.351 59.9132 18.9659 59.8085 18.5452C59.5689 17.5887 60.0978 16.6303 60.9834 16.2736C61.9275 15.8938 63.0137 16.2203 63.4787 17.1893C64.4619 19.2374 65.548 21.2659 66.2526 23.4134C71.9425 40.758 63.3207 59.0965 46.3754 65.8157C43.2732 67.0456 40.0449 67.7697 36.7119 68.0129C36.5185 68.0271 36.3268 68.0874 36.1351 68.1264H32.0177C31.8242 68.0892 31.6326 68.0324 31.4391 68.0182C25.05 67.5354 19.2697 65.4004 14.0785 61.6539C13.878 61.5084 13.6703 61.37 13.3722 61.1623C13.3722 62.678 13.3242 64.0481 13.3864 65.4128C13.4467 66.7421 13.0012 67.6863 11.6933 68.1264H11.0295L11.0277 68.13Z" fill="white"/>
<path d="M33.9807 52.0578C32.7188 52.0578 31.457 52.0649 30.1951 52.0578C28.8605 52.0489 28.0459 51.2361 28.0317 49.9085C28.0246 49.1348 28.2766 48.2225 27.9519 47.6244C27.636 47.0441 26.7007 46.824 26.0919 46.3715C25.6376 46.0343 25.2844 45.9846 24.8105 46.3253C24.3101 46.6838 23.7563 46.9731 23.2062 47.2588C22.1289 47.8179 21.0729 47.5446 20.4553 46.4993C19.1189 44.2329 17.8003 41.9559 16.5083 39.6647C15.9155 38.614 16.2243 37.5492 17.2483 36.9103C17.8287 36.5482 18.425 36.2057 19.0284 35.8827C19.3372 35.7176 19.4668 35.5349 19.4402 35.1586C19.3922 34.4771 19.3922 33.7867 19.4402 33.1034C19.465 32.7325 19.3514 32.5426 19.0373 32.3758C18.4321 32.0546 17.8376 31.712 17.2572 31.3482C16.2279 30.7058 15.9173 29.6462 16.5083 28.5956C17.8003 26.3044 19.1189 24.0256 20.4553 21.761C21.0853 20.6926 22.1591 20.4299 23.263 21.0192C23.8859 21.3528 24.4787 21.7468 25.1105 22.0609C25.2951 22.1532 25.6056 22.1355 25.7955 22.0414C26.2889 21.7983 26.7202 21.4078 27.2295 21.2179C27.9394 20.9535 28.1205 20.508 28.0459 19.8088C27.9874 19.2622 28.0193 18.7031 28.0388 18.1494C28.0796 17.0561 28.896 16.2078 29.9893 16.1989C32.6674 16.1759 35.3455 16.1759 38.0236 16.1989C39.147 16.2078 39.9563 17.0668 39.9847 18.208C40.0024 18.9161 39.958 19.626 40.0077 20.3306C40.0237 20.5542 40.2012 20.8381 40.3911 20.9659C40.9572 21.3475 41.5819 21.6439 42.1534 22.0201C42.4498 22.2153 42.6645 22.2562 42.9769 22.0556C43.5519 21.6847 44.1535 21.351 44.7552 21.0245C45.8804 20.4158 46.9417 20.6908 47.5983 21.8054C48.9099 24.0345 50.2054 26.2742 51.4815 28.5246C52.1151 29.6445 51.8151 30.6969 50.7183 31.3748C50.154 31.7227 49.5825 32.0617 48.9968 32.3705C48.6845 32.5355 48.5585 32.7148 48.5816 33.091C48.6277 33.7956 48.5656 34.5073 48.6064 35.2118C48.6188 35.4248 48.7661 35.7035 48.94 35.8206C49.5275 36.211 50.1664 36.5269 50.7645 36.9014C51.7938 37.5456 52.108 38.5998 51.5152 39.6523C50.2143 41.9648 48.8868 44.2613 47.5344 46.5436C46.9399 47.5464 45.8644 47.8037 44.8244 47.2553C44.1802 46.9163 43.5679 46.5117 42.9148 46.1869C42.7302 46.0946 42.4196 46.1141 42.2297 46.2064C41.7541 46.4371 41.3441 46.8187 40.8543 46.998C40.0965 47.273 39.8799 47.7469 39.9776 48.5047C40.0432 49.0052 40.0006 49.5217 39.9864 50.031C39.9545 51.2006 39.1346 52.0347 37.9668 52.0524C36.6393 52.072 35.3117 52.0578 33.9825 52.0578H33.9807ZM47.0854 39.3736C46.5069 39.0382 45.9869 38.7489 45.4793 38.4401C44.5813 37.8935 44.3523 37.1818 44.4286 36.1383C44.5245 34.8249 44.5422 33.4939 44.4428 32.1806C44.3541 31.0092 44.5724 30.3419 45.5893 29.7421C46.0774 29.4546 46.5654 29.1688 47.0837 28.8653C46.4093 27.6976 45.7686 26.5919 45.1013 25.4347C44.5333 25.7577 44.0009 26.0648 43.4667 26.3665C42.5953 26.8563 41.7665 26.7889 41.0087 26.1375C39.9563 25.2324 38.7796 24.5527 37.4769 24.0771C36.4405 23.699 36.0181 23.0655 36.0074 21.9616C36.0021 21.3741 36.0074 20.7867 36.0074 20.2099H32.0214C32.0214 20.8133 32.0249 21.3848 32.0214 21.9545C32.0107 23.0619 31.5493 23.6085 30.5678 24.0966C29.3699 24.6929 28.2003 25.3673 27.0911 26.1127C26.1523 26.7427 25.4637 26.8687 24.4538 26.3008C23.9569 26.0204 23.4635 25.7347 22.9364 25.433C22.585 26.0346 22.2602 26.5848 21.9426 27.1385C21.6142 27.7064 21.293 28.2779 20.9522 28.8742C21.5219 29.2061 22.0402 29.5007 22.5495 29.8077C23.4404 30.3473 23.6747 31.0678 23.5984 32.1114C23.5026 33.4247 23.4866 34.7557 23.586 36.069C23.6747 37.2368 23.4546 37.9041 22.4377 38.5076C21.9514 38.7968 21.4616 39.0808 20.9469 39.3825C21.6231 40.5538 22.262 41.6613 22.9329 42.8202C23.4635 42.5149 23.9569 42.2292 24.452 41.9488C25.4619 41.3773 26.1505 41.5016 27.0893 42.1334C28.2003 42.8788 29.3681 43.5532 30.5661 44.1495C31.5475 44.6375 32.0125 45.1842 32.0214 46.2881C32.0267 46.8755 32.0214 47.4612 32.0214 48.0362H36.0074C36.0074 47.4097 36.0003 46.8169 36.0074 46.2242C36.0216 45.1984 36.4494 44.5524 37.4095 44.1974C38.7317 43.7093 39.935 43.0349 41.0034 42.1121C41.7594 41.4607 42.5882 41.3862 43.4596 41.8778C43.9956 42.1795 44.528 42.4865 45.0995 42.8131C45.765 41.6613 46.4039 40.5556 47.0872 39.3736H47.0854Z" fill="white"/>
<path d="M34.0348 26.8184C38.0529 26.829 41.3273 30.1247 41.3148 34.1463C41.3042 38.1626 38.0067 41.4405 33.9869 41.4281C29.9742 41.4157 26.6945 38.1164 26.7051 34.1002C26.7158 30.0857 30.015 26.8077 34.033 26.8201L34.0348 26.8184ZM37.3305 34.0984C37.3199 32.2668 35.8078 30.7849 33.9709 30.8027C32.1678 30.8204 30.6965 32.3059 30.693 34.1126C30.6876 35.9459 32.1855 37.4456 34.0188 37.442C35.8504 37.4385 37.3412 35.9317 37.3305 34.0984Z" fill="white"/>
</svg>
