<svg width="12" height="25" viewBox="0 0 12 25" fill="none" xmlns="http://www.w3.org/2000/svg">
<path d="M9.56357 24.1887C9.33588 24.1896 9.11091 24.1339 8.90519 24.0257C8.69947 23.9176 8.51823 23.7597 8.37478 23.5637L1.01346 13.4273C0.789294 13.125 0.666748 12.7459 0.666748 12.3546C0.666748 11.9633 0.789294 11.5841 1.01346 11.2818L8.63388 1.14547C8.89257 0.80047 9.26432 0.583511 9.66732 0.542324C10.0703 0.501137 10.4716 0.639096 10.7828 0.925851C11.0941 1.21261 11.2898 1.62467 11.327 2.07139C11.3641 2.5181 11.2397 2.96289 10.981 3.30789L4.16831 12.363L10.7524 21.4181C10.9387 21.6661 11.0571 21.9681 11.0935 22.2883C11.1299 22.6085 11.0828 22.9336 10.9577 23.2251C10.8327 23.5165 10.6349 23.7622 10.3878 23.933C10.1408 24.1038 9.85472 24.1925 9.56357 24.1887Z" fill="white"/>
</svg>
