<svg width="60" height="58" viewBox="0 0 60 58" fill="none" xmlns="http://www.w3.org/2000/svg">
<path d="M59.9969 54.2187C59.3428 51.8686 57.734 50.7629 55.2173 50.9326C54.6457 50.9716 54.0788 50.9622 53.4792 50.9513C53.2565 50.9482 53.0338 50.9435 52.8096 50.942V23.2439C52.9965 23.2439 53.1818 23.2439 53.3671 23.2455C53.8919 23.247 54.3856 23.2502 54.8918 23.2408C56.4258 23.2143 57.3073 22.3188 57.3088 20.7817C57.312 16.3323 57.312 11.8813 57.3088 7.43183C57.3088 5.8542 56.4336 4.98206 54.8466 4.97584C54.3451 4.97428 53.8437 4.97428 53.3328 4.97584H52.7769V4.27346C52.7769 3.67698 52.7769 3.10853 52.7769 2.54165C52.7722 0.831642 51.9374 0 50.2212 0C36.7358 0 23.252 0 9.76665 0C8.05664 0 7.225 0.834757 7.22344 2.54943C7.22344 3.13034 7.22344 3.70968 7.22344 4.3046V4.97428H6.63008C6.11614 4.97428 5.63024 4.97428 5.14434 4.97428C3.56359 4.98206 2.69302 5.85731 2.69146 7.43961C2.68834 11.8704 2.68834 16.3011 2.69146 20.7319C2.69146 22.3329 3.5745 23.2252 5.17548 23.2424C5.66294 23.247 6.15196 23.2455 6.65811 23.2455C6.84344 23.2455 7.03033 23.2455 7.22188 23.2455V28.4425C7.22188 29.1059 7.34024 29.5311 7.59254 29.7787C7.76074 29.9438 7.98967 30.0232 8.27 30.0185C9.17795 29.9998 9.28386 29.1262 9.28386 28.4705V23.2766H50.6791V37.8132H49.9876C49.3802 37.8132 48.7837 37.8132 48.1873 37.8132C47.5861 37.8132 47.175 37.9363 46.9305 38.1886C46.7607 38.3645 46.6782 38.5997 46.6875 38.8863C46.714 39.7615 47.5005 39.8736 48.181 39.8736C48.8024 39.8736 49.4238 39.8736 50.0405 39.8736H50.6713V45.569H40.5592V39.8736C40.8411 39.8736 41.123 39.8736 41.4017 39.8736C42.2054 39.8736 42.9638 39.8768 43.7394 39.869C44.434 39.8627 44.8607 39.4983 44.8841 38.8925C44.9074 38.2695 44.4651 37.8475 43.755 37.8163C43.4668 37.8039 43.1756 37.807 42.8922 37.8101C42.7691 37.8101 42.6461 37.8132 42.5231 37.8117H40.5623V34.5567C40.6417 34.5567 40.7212 34.5567 40.799 34.5567C41.0747 34.5583 41.3348 34.5599 41.598 34.5536C42.263 34.5396 42.7956 34.2935 43.0962 33.8606C43.3905 33.437 43.4357 32.8685 43.2239 32.2612C42.7286 30.8439 42.182 29.3208 41.5513 27.603C41.1681 26.5596 40.419 26.0285 39.3242 26.027C33.199 26.0192 26.9228 26.0192 20.6714 26.027C19.5766 26.027 18.8275 26.558 18.4444 27.6015C17.904 29.0716 17.3636 30.5761 16.7889 32.202C16.5615 32.8452 16.602 33.4354 16.901 33.8637C17.2047 34.2982 17.7576 34.5427 18.4568 34.5521C18.7185 34.5552 18.9786 34.5552 19.2386 34.5521H19.4364V37.7634H9.2823V36.0721C9.2823 35.1018 9.2823 34.1331 9.2823 33.1629C9.2823 32.6365 9.16238 32.2518 8.92566 32.0198C8.75123 31.8469 8.51918 31.7612 8.23418 31.7675C7.77475 31.7753 7.22656 32.0182 7.22188 33.1317V50.9451C6.88393 50.9451 6.55065 50.9435 6.2236 50.9404C5.38573 50.9357 4.59458 50.9326 3.79409 50.9497C2.01867 50.9887 0.470633 52.272 0.112435 54.0022C0.00964789 54.5021 0.00497575 55.0223 0.000303601 55.5253V55.5954C-0.00748331 56.3819 0.134238 56.8787 0.458174 57.2058C0.782109 57.5328 1.27736 57.6776 2.06383 57.6776H11.5903C26.7701 57.6776 42.4686 57.6776 57.9069 57.6901H57.9116C58.9503 57.6901 59.5904 57.335 59.9844 56.5407L60 56.508V54.2561L59.9938 54.214L59.9969 54.2187ZM43.7861 6.97084C44.286 6.86182 44.5726 6.48338 44.5508 5.9601C44.529 5.40723 44.2035 5.05526 43.6599 4.99297C43.5182 4.97739 43.3765 4.97272 43.2363 4.97272C43.1865 4.97272 43.1382 4.97272 43.0884 4.97272H42.9436C32.9452 4.97272 22.9468 4.97272 12.9484 4.97272H9.28386V4.29993C9.28386 3.63026 9.28697 2.99485 9.28074 2.35788C9.28074 2.2364 9.30099 2.15386 9.34615 2.11025C9.38664 2.06976 9.4614 2.05263 9.57042 2.0573C9.66542 2.06197 9.76042 2.06042 9.85542 2.05886C9.89902 2.05886 9.94263 2.05886 9.98624 2.05886H50.0343C50.3614 2.05886 50.5965 2.05886 50.6557 2.11804C50.7149 2.17566 50.7149 2.40927 50.7149 2.73321V4.97428H50.0639C49.3397 4.97428 48.6342 4.97428 47.9272 4.97428H47.7777C47.5923 4.97272 47.4008 4.97116 47.2108 4.99452C46.6766 5.05993 46.3464 5.42592 46.3293 5.97256C46.3137 6.48805 46.6034 6.86182 47.1064 6.97396C47.3463 7.02691 47.597 7.03158 47.8337 7.03314L49.131 7.03625C50.961 7.04092 52.8532 7.04404 54.7127 7.02535C54.9401 7.02223 55.0818 7.05494 55.1534 7.12502C55.2251 7.19666 55.2578 7.33683 55.2578 7.56888C55.2438 10.7927 55.2453 14.0709 55.2469 17.2418C55.2469 18.3522 55.2469 19.461 55.2469 20.5715C55.2469 20.8238 55.2469 21.062 55.1861 21.1197C55.1207 21.182 54.8684 21.1819 54.599 21.1819C43.9605 21.1819 33.322 21.1819 22.682 21.1819H5.45581C5.11942 21.1819 4.87647 21.182 4.81417 21.1181C4.75032 21.0527 4.75032 20.8144 4.75032 20.4547C4.75032 16.1983 4.75032 11.942 4.75032 7.68724C4.75032 7.3742 4.75032 7.14683 4.80638 7.09232C4.86245 7.03625 5.08827 7.03625 5.4013 7.03625H14.065C23.6912 7.03625 33.3174 7.03625 42.9436 7.03314C43.2052 7.03314 43.5027 7.03314 43.7861 6.97084ZM57.9225 55.5985H2.10277C1.96572 54.865 2.09031 54.2312 2.47031 53.7593C2.87523 53.2562 3.53868 52.979 4.34384 52.979H4.35163C21.9391 53.018 39.1389 53.018 55.4743 52.979H55.4867C56.3806 52.979 57.0706 53.2313 57.4833 53.7079C57.8726 54.1595 58.0206 54.7949 57.9256 55.6001L57.9225 55.5985ZM28.9193 34.5785V50.8952H21.5591V34.5785H28.9193ZM25.2112 28.3521C25.1037 28.6667 25.0041 28.958 24.8997 29.2476L24.7627 29.6307C24.4605 30.4733 24.1475 31.3454 23.8236 32.1958C23.7753 32.3235 23.6554 32.4605 23.6196 32.473C22.3238 32.4932 21.0405 32.4917 19.6825 32.4901H18.8742L19.1748 31.6522C19.5813 30.5169 19.9659 29.4454 20.3693 28.3755C20.416 28.2525 20.5951 28.1045 20.659 28.103C21.9002 28.0812 23.1274 28.0827 24.4294 28.0858H25.3015L25.2112 28.3506V28.3521ZM36.2468 32.3904C35.8092 31.2177 35.3887 30.0481 34.9433 28.8084L34.6832 28.0858H37.038C37.2342 28.0858 37.4289 28.0858 37.6251 28.0827C38.1375 28.078 38.6685 28.0749 39.1871 28.0998C39.3553 28.1076 39.5703 28.2322 39.5952 28.2961C40.0172 29.3956 40.4097 30.4982 40.8271 31.6647C40.9252 31.9388 41.0233 32.2144 41.1245 32.4932H40.31C38.9847 32.4932 37.7326 32.4948 36.4695 32.4839C36.3901 32.4839 36.2671 32.4185 36.2484 32.3889L36.2468 32.3904ZM38.4505 34.6081V50.9015H31.0654V34.6081H38.4505ZM33.7893 31.6958L34.0571 32.4387H25.9416L26.2079 31.7021C26.6393 30.5013 27.0489 29.3675 27.4803 28.2275C27.5052 28.1824 27.6734 28.0967 27.7887 28.0967C29.2464 28.0796 30.7321 28.0796 32.207 28.0967C32.3238 28.0967 32.4935 28.1808 32.5184 28.2229C32.9514 29.3644 33.3594 30.4982 33.7908 31.6974L33.7893 31.6958ZM40.567 50.8984V47.6948H50.6993V50.8984H40.567ZM9.30099 45.5534V39.9141H19.4286V45.5534H9.30099ZM9.31968 50.8984V47.6948H19.452V50.8984H9.31968Z" fill="white"/>
<path d="M35.4455 19.8881H35.4657C38.6319 19.8772 41.2187 17.2935 41.2296 14.1289C41.2405 10.9363 38.6553 8.32612 35.4673 8.31055C35.4579 8.31055 35.447 8.31055 35.4377 8.31055C33.9177 8.31055 32.4802 8.90858 31.3885 9.99563C30.2828 11.0967 29.6738 12.5529 29.6738 14.0978C29.6738 15.6427 30.2828 17.0989 31.3854 18.1984C32.4787 19.2885 33.9208 19.8881 35.4455 19.8866V19.8881ZM31.7342 14.0838C31.7451 12.0561 33.4022 10.3912 35.4268 10.371C35.4377 10.371 35.4502 10.371 35.4611 10.371C36.4329 10.371 37.3533 10.7525 38.0557 11.4487C38.7721 12.1573 39.1676 13.0933 39.1707 14.0884C39.1723 15.082 38.7845 16.0211 38.0759 16.7313C37.3704 17.4384 36.4375 17.8293 35.4486 17.8293H35.447C34.4612 17.8293 33.5299 17.4384 32.8244 16.7298C32.1158 16.0165 31.728 15.0774 31.7327 14.0853L31.7342 14.0838Z" fill="white"/>
<path d="M20.5693 19.8825C20.8466 19.8871 21.0833 19.7952 21.2655 19.6177C21.4975 19.3903 21.6206 19.0384 21.6237 18.5992C21.6284 17.8485 21.6268 17.0994 21.6268 16.3488V15.0001H26.1261V15.9859C26.1261 16.8674 26.1245 17.7239 26.1261 18.5789C26.1292 19.3888 26.5139 19.8762 27.154 19.8825H27.1649C27.4327 19.8825 27.6648 19.7921 27.8376 19.6208C28.0635 19.3966 28.1834 19.0399 28.1834 18.5898C28.1849 16.5824 28.1849 14.5749 28.1834 12.5674V11.4835C28.1834 11.2873 28.1834 11.091 28.1849 10.8948C28.1881 10.3809 28.1896 9.84825 28.174 9.32341C28.1647 9.02595 28.0495 8.75808 27.8485 8.5712C27.6648 8.39833 27.4203 8.308 27.1664 8.31734C26.6089 8.33759 26.2351 8.66776 26.1432 9.22374C26.1136 9.40595 26.1167 9.58973 26.1214 9.76882C26.1214 9.828 26.1245 9.88719 26.1245 9.94637C26.1245 10.6986 26.1245 11.4508 26.1245 12.2092V12.8711H21.6237V11.9803C21.6253 11.1658 21.6268 10.3637 21.6221 9.56169C21.6175 8.81259 21.2157 8.32202 20.5974 8.31267C20.3217 8.308 20.0819 8.39833 19.9028 8.57431C19.6816 8.79079 19.5648 9.12563 19.5648 9.53989C19.5617 12.3759 19.5617 15.3474 19.5648 18.6257C19.5648 19.3888 19.9495 19.8684 20.5678 19.8793L20.5693 19.8825Z" fill="white"/>
<path d="M12.1144 8.69462C10.8778 9.29422 10.2362 10.2816 10.2611 11.5509C10.286 12.8295 10.9339 13.7219 12.1845 14.2015C13.0068 14.5177 13.7278 14.8089 14.3882 15.0939C14.7635 15.2559 15.1264 15.421 15.4254 15.6499C15.7057 15.8648 15.8692 16.1389 15.8833 16.4224C15.8973 16.7042 15.7711 16.9815 15.5173 17.2197C15.2587 17.4642 14.9332 17.6496 14.6467 17.7181C13.5145 17.9875 12.4975 17.6823 11.5397 16.7852C11.0538 16.3305 10.4464 16.3009 10.0275 16.712C9.82348 16.9114 9.71446 17.1512 9.7129 17.4051C9.71135 17.6994 9.85151 17.9969 10.1178 18.2663C11.1223 19.2801 12.39 19.8112 13.9926 19.8906H14.0035C15.0236 19.8688 15.9113 19.5683 16.6417 18.9967C17.4718 18.3473 17.9437 17.4222 17.9374 16.4582C17.9312 15.5035 17.4531 14.5955 16.6246 13.9664C16.3131 13.7296 15.9331 13.5178 15.4301 13.2982C14.9878 13.1051 14.533 12.9245 14.0923 12.7485C13.6827 12.585 13.2575 12.4168 12.8464 12.2392C12.5489 12.1115 12.3511 11.881 12.3028 11.61C12.2561 11.3406 12.3636 11.0618 12.5972 10.8423C12.7794 10.6709 13.0566 10.5277 13.3354 10.4576C14.3726 10.1975 15.2369 10.6429 15.9455 11.1132C16.4751 11.4652 17.0451 11.4014 17.3986 10.9528C17.7381 10.5214 17.682 9.94053 17.2615 9.53873C16.0234 8.35979 13.6173 7.96421 12.1113 8.69307L12.1144 8.69462Z" fill="white"/>
<path d="M42.8405 18.5123C42.8405 18.6462 42.8405 18.7848 42.8561 18.9234C42.9262 19.4841 43.3373 19.8812 43.8279 19.8812C43.856 19.8812 43.884 19.8812 43.9136 19.8766C44.4976 19.8221 44.8496 19.4701 44.8792 18.911C44.9025 18.4812 44.901 18.0451 44.8994 17.6246C44.8994 17.4689 44.8994 17.3131 44.8994 17.1589C44.8994 16.8179 44.8994 16.4784 44.8994 16.1077V15.723C45.0801 15.723 45.2545 15.7261 45.4242 15.7277C45.8743 15.7324 46.2995 15.737 46.7215 15.7184C48.6418 15.6374 50.1727 14.1111 50.2833 12.1691C50.3876 10.3205 48.9642 8.62604 47.1109 8.39087C46.4132 8.3021 45.6968 8.30677 45.0037 8.30989C44.7701 8.30989 44.5381 8.313 44.3045 8.30989C43.6971 8.30522 43.3591 8.38932 43.1442 8.60268C42.8919 8.85186 42.8405 9.24743 42.8405 9.76448C42.839 12.2952 42.8405 14.8244 42.8405 17.3536V18.5107V18.5123ZM44.9524 13.6673V10.4015C45.1174 10.3999 45.281 10.3952 45.4429 10.3906C45.907 10.3781 46.3446 10.3656 46.776 10.417C47.6124 10.5167 48.2742 11.2892 48.2229 12.1037C48.1683 12.9587 47.4551 13.6299 46.5627 13.6642C46.1733 13.6797 45.784 13.6751 45.3728 13.672C45.2342 13.672 45.0941 13.6688 44.9524 13.6688V13.6673Z" fill="white"/>
</svg>
