<svg width="60" height="57" viewBox="0 0 60 57" fill="none" xmlns="http://www.w3.org/2000/svg">
<path d="M27.7229 0H39.1658C40.1271 0.390983 40.449 1.1171 40.427 2.13277C40.3814 4.16706 40.4137 6.20282 40.4137 8.23858C40.4137 9.81427 39.8699 10.3625 38.3148 10.364C35.6925 10.364 33.0703 10.364 30.4495 10.364H29.8748C29.7219 11.1107 29.8425 11.6443 30.3937 12.1822C33.3172 15.0411 36.1937 17.9456 39.0761 20.8456C39.3407 21.1131 39.6024 21.2336 39.9845 21.2307C42.4054 21.2131 44.8248 21.238 47.2457 21.2116C47.9776 21.2042 48.5421 21.4365 49.0536 21.9553C51.1143 24.044 53.203 26.1033 55.2652 28.1905C55.6577 28.5874 55.9781 29.0533 56.3323 29.4884V30.3688C55.9796 31.1038 55.4504 31.6006 54.5685 31.6035V32.3193C54.5685 39.6348 54.5685 46.9504 54.5685 54.2659C54.5685 55.7401 53.9776 56.334 52.5092 56.334C36.2834 56.334 20.0561 56.334 3.83031 56.334C2.35604 56.334 1.76369 55.7431 1.76369 54.2732C1.76369 46.9386 1.76369 39.6054 1.76369 32.2708V31.6035C0.912636 31.5477 0.320281 31.1905 0.0748136 30.3879C-0.160364 29.6192 0.187993 29.0518 0.714204 28.5286C2.91165 26.3443 5.10615 24.1572 7.28449 21.9524C7.796 21.4335 8.3619 21.2028 9.09389 21.2116C11.4956 21.238 13.8974 21.2145 16.2992 21.2292C16.6931 21.2322 16.9768 21.1307 17.2634 20.8441C20.2208 17.8647 23.1987 14.9044 26.1516 11.9191C26.353 11.7163 26.4971 11.3591 26.5 11.0725C26.525 8.12099 26.5441 5.16804 26.5 2.21655C26.4838 1.19206 26.7734 0.438019 27.7259 0L27.7229 0ZM28.1639 14.6163C28.0125 14.7574 27.8787 14.8765 27.7509 15.0029C25.0287 17.7251 22.3109 20.4502 19.5784 23.1621C19.3065 23.4311 19.2065 23.7001 19.2065 24.0763C19.2154 33.5173 19.2139 42.9582 19.2139 52.3991V52.9988H22.9826C22.9826 52.7681 22.9826 52.5711 22.9826 52.3741C22.9826 50.2664 22.9797 48.1586 22.9826 46.0493C22.9841 44.8529 23.6176 44.2076 24.8053 44.2046C27.0424 44.1988 29.278 44.1988 31.5152 44.2046C32.7043 44.2076 33.3378 44.8529 33.3407 46.0479C33.3437 48.1747 33.3407 50.3002 33.3407 52.4271C33.3407 52.6196 33.3407 52.8122 33.3407 52.99H37.1095V52.4565C37.1095 42.9788 37.1124 33.5011 37.0933 24.0249C37.0933 23.7397 36.9331 23.387 36.7303 23.1812C34.0242 20.4429 31.2976 17.7265 28.574 15.0044C28.4476 14.8779 28.3123 14.7589 28.161 14.6178L28.1639 14.6163ZM51.2231 53.0091V31.6079H40.4475V53.0091H51.2231ZM15.8773 53.0062V31.6197H5.10321V53.0062H15.8773ZM15.8847 24.5217C14.3457 24.5217 12.8376 24.6217 11.3516 24.4923C9.9273 24.3689 8.88811 24.7922 7.99296 25.896C7.32418 26.7221 6.48782 27.4115 5.63677 28.2493H15.8832V24.5217H15.8847ZM40.4387 28.2375H50.6513C49.4696 27.0587 48.3672 25.9387 47.2354 24.848C47.0516 24.6702 46.7385 24.5394 46.4828 24.5364C44.6337 24.51 42.7846 24.5217 40.9341 24.5247C40.7768 24.5247 40.618 24.5467 40.4387 24.5614V28.239V28.2375ZM29.8454 3.30278V7.01565H37.0845V3.34541C36.9934 3.32777 36.9243 3.30425 36.8552 3.30425C34.5343 3.30278 32.2119 3.30278 29.8454 3.30278ZM30.0203 47.5471H26.3222V52.993H30.0203V47.5471Z" fill="white"/>
<path d="M28.2001 21.2247C31.0589 21.2408 33.349 23.5559 33.3402 26.4221C33.3328 29.2972 30.9869 31.6048 28.1001 31.5799C25.2574 31.5549 22.9673 29.2134 22.9864 26.3501C23.0056 23.5 25.3353 21.21 28.2001 21.2247ZM30.0403 26.4221C30.0506 25.3726 29.2304 24.5348 28.1854 24.526C27.1329 24.5172 26.2966 25.3329 26.2878 26.378C26.2789 27.4231 27.105 28.2697 28.1413 28.28C29.1849 28.2903 30.03 27.4628 30.0403 26.4221Z" fill="white"/>
<path d="M22.9833 37.8739C22.9833 37.5814 22.976 37.2889 22.9848 36.9964C23.0142 36.0924 23.6948 35.3928 24.5737 35.3531C25.4277 35.3149 26.2067 35.9925 26.267 36.8906C26.3111 37.5461 26.3096 38.2076 26.27 38.8631C26.2141 39.7965 25.4571 40.4491 24.5443 40.408C23.6609 40.3683 23.0098 39.6774 22.9848 38.7514C22.9775 38.4589 22.9848 38.1664 22.9848 37.8739H22.9833Z" fill="white"/>
<path d="M33.3403 37.9189C33.3403 38.2114 33.3491 38.504 33.3388 38.7965C33.3036 39.7107 32.6245 40.3913 31.7352 40.4104C30.8489 40.4295 30.1095 39.7769 30.0552 38.8714C30.0155 38.2159 30.0155 37.5544 30.0552 36.8989C30.111 36.0067 30.8886 35.3217 31.7411 35.3526C32.6215 35.3849 33.305 36.0816 33.3374 36.9871C33.3491 37.2972 33.3388 37.6088 33.3388 37.9189H33.3403Z" fill="white"/>
<path d="M44.2073 37.8489C44.2073 37.5197 44.1882 37.1904 44.2117 36.8626C44.272 36.0425 44.9305 35.4089 45.7551 35.3531C46.5047 35.3016 47.3116 35.8249 47.4013 36.5922C47.5013 37.4521 47.5057 38.3443 47.3969 39.2027C47.2955 39.9993 46.5003 40.4712 45.6801 40.4006C44.8893 40.333 44.2617 39.698 44.2102 38.8896C44.1882 38.5442 44.2058 38.1958 44.2073 37.8489Z" fill="white"/>
<path d="M47.5205 46.6722C47.497 47.1264 47.5146 47.5144 47.45 47.8892C47.303 48.7374 46.5343 49.3326 45.7302 49.2621C44.8807 49.1871 44.2398 48.5345 44.2075 47.6732C44.1839 47.0338 44.1825 46.3929 44.2089 45.755C44.2442 44.9172 44.8924 44.269 45.7052 44.2116C46.5489 44.1529 47.2648 44.66 47.4294 45.489C47.5102 45.8961 47.4955 46.3224 47.5205 46.6722Z" fill="white"/>
<path d="M12.1179 37.9053C12.1179 38.2345 12.137 38.5638 12.1149 38.8915C12.0605 39.7073 11.4402 40.3335 10.6451 40.4026C9.80576 40.4746 9.0135 39.9792 8.91355 39.1502C8.8136 38.308 8.81948 37.4349 8.92237 36.5927C9.01497 35.8269 9.82193 35.3036 10.5701 35.355C11.3962 35.4124 12.0517 36.0429 12.112 36.8646C12.137 37.21 12.1164 37.5584 12.1164 37.9053H12.1179Z" fill="white"/>
<path d="M12.1177 46.7525C12.1177 47.0818 12.1369 47.411 12.1133 47.7388C12.056 48.5649 11.4107 49.1969 10.5832 49.2631C9.8424 49.3218 9.01781 48.7986 8.92668 48.0372C8.82379 47.1773 8.81938 46.2851 8.92521 45.4252C9.02369 44.6286 9.813 44.1494 10.6332 44.2126C11.4269 44.2729 12.0575 44.899 12.1148 45.7119C12.1398 46.0573 12.1192 46.4056 12.1192 46.7525H12.1177Z" fill="white"/>
<path d="M59.9633 14.9533C59.9633 15.0538 59.9633 15.1558 59.9633 15.2563C59.9552 15.9706 59.594 16.3886 58.9865 16.3837C58.4017 16.3789 58.1053 15.9804 58.0129 15.3016C57.8283 13.949 57.7408 12.5543 57.3342 11.2648C55.6074 5.78797 50.589 2.09461 44.8367 1.94072C44.0705 1.91966 43.6218 1.56652 43.6153 0.975262C43.6088 0.359702 44.0818 -0.00639499 44.8788 8.45974e-05C52.1084 0.0600208 58.5831 5.63246 59.7268 12.7875C59.8418 13.5035 59.9098 14.2276 59.9989 14.9469L59.9633 14.9517V14.9533Z" fill="white"/>
<path d="M44.888 4.03125C50.9205 4.21268 55.8547 9.20844 55.9228 15.2004C55.9292 15.735 55.7786 16.1789 55.2327 16.3457C54.7872 16.4818 54.3644 16.357 54.1425 15.9245C54.021 15.6864 53.9983 15.3851 53.9805 15.1097C53.6922 10.7214 50.9286 7.29534 46.8027 6.26671C46.1418 6.10148 45.4518 6.04154 44.7698 5.97675C44.0117 5.90385 43.5759 5.53937 43.618 4.94487C43.6601 4.35361 44.138 4.01019 44.888 4.03287V4.03125Z" fill="white"/>
<path d="M44.5856 12.1348C46.3836 12.1493 47.8496 13.651 47.8253 15.4491C47.8011 17.2229 46.3286 18.6727 44.5564 18.6727C42.7518 18.6727 41.2858 17.1969 41.2891 15.3908C41.2923 13.5992 42.7891 12.1202 44.5856 12.1364V12.1348ZM44.5532 16.7288C45.2659 16.732 45.8653 16.1489 45.8863 15.4377C45.9074 14.7104 45.2886 14.0754 44.5613 14.0754C43.8258 14.0754 43.2184 14.6958 43.2313 15.4313C43.2443 16.144 43.8372 16.7272 44.5532 16.7288Z" fill="white"/>
<path d="M51.8462 15.1206C51.8641 15.9808 51.4607 16.4506 50.7723 16.376C50.2215 16.3161 49.9412 15.9322 49.904 15.1903C49.8149 13.4214 49.0406 12.0234 47.607 10.9964C46.8035 10.4197 45.8964 10.1022 44.9034 10.052C44.7819 10.0455 44.6604 10.0455 44.5405 10.0277C43.9671 9.9402 43.5799 9.51255 43.6156 9.01524C43.6528 8.50173 44.0691 8.10972 44.6523 8.12754C47.2376 8.20529 49.2544 9.3376 50.6896 11.4791C51.4283 12.5823 51.8203 13.9057 51.8446 15.1206H51.8462Z" fill="white"/>
</svg>
