<svg width="76" height="76" viewBox="0 0 76 76" fill="none" xmlns="http://www.w3.org/2000/svg">
<path d="M30.5239 66.8847C31.3867 63.8064 33.323 61.8194 36.4292 60.954V58.3351H35.3964C30.3945 58.3351 25.3926 58.3351 20.3882 58.3351C17.8631 58.3351 16.7795 57.2642 16.7212 54.7112C16.7186 54.5589 16.7009 54.4067 16.6958 54.3331C15.1148 54.0818 13.5617 53.9651 12.0822 53.5768C4.67451 51.6253 -0.444102 44.5247 0.0304552 36.9622C0.497399 29.5165 6.42048 23.1265 13.9195 22.0429C14.6834 21.9338 14.7062 21.5125 14.7849 20.9618C16.173 11.3184 21.4363 4.63908 30.5468 1.33749C41.6544 -2.68736 53.9193 2.66472 59.0836 13.4577C60.2256 15.8457 60.9844 18.3479 61.2255 20.9897C61.2788 21.5683 61.3727 21.9414 62.1137 22.0454C69.6736 23.1087 75.7236 29.7754 75.99 37.2744C76.2641 45.0196 70.8663 52.0796 63.347 53.7367C62.0604 54.0209 60.7281 54.0996 59.2816 54.2925C59.2816 54.5437 59.2866 54.8787 59.2816 55.2137C59.2536 57.0104 57.9569 58.3249 56.1576 58.33C50.9958 58.3402 45.8366 58.3325 40.6749 58.3325C40.3323 58.3325 39.9871 58.3325 39.5836 58.3325V60.9439C42.6264 61.7915 44.5982 63.743 45.4687 66.8822H46.5827C55.6374 66.8822 64.692 66.8822 73.7492 66.8822C74.0664 66.8822 74.3912 66.8492 74.6958 66.9101C75.5129 67.0725 75.9926 67.5877 75.9799 68.4277C75.9697 69.222 75.5002 69.7219 74.7313 69.8818C74.3963 69.9528 74.0385 69.9173 73.6908 69.9173C64.6666 69.9173 55.645 69.9173 46.6208 69.9173H45.5016C44.347 73.5564 42.0275 75.8708 38.1777 75.947C34.1503 76.0257 31.7141 73.6833 30.496 69.9173H29.3566C20.3324 69.9173 11.3107 69.9173 2.2865 69.9173C1.96929 69.9173 1.64699 69.9478 1.33993 69.8919C0.522776 69.7422 0.0279175 69.2372 0.0279175 68.3947C0.0279175 67.5547 0.522776 67.0497 1.33993 66.8999C1.64699 66.8441 1.97182 66.8771 2.2865 66.8746C11.3107 66.8746 20.3324 66.8746 29.3566 66.8746H30.5239V66.8847ZM16.7922 51.1C16.4268 48.4125 16.9445 45.8215 16.7694 43.1924C16.5689 40.1344 16.7085 37.0511 16.7288 33.9804C16.7389 32.2979 18.0712 30.9783 19.7639 30.9757C31.9222 30.9656 44.083 30.9656 56.2413 30.9757C57.9289 30.9757 59.2511 32.3004 59.2765 33.9829C59.2993 35.3762 59.3222 36.7719 59.2714 38.1626C59.1927 40.2968 59.0481 42.4311 58.939 44.5653C58.9339 44.6846 58.9923 44.8064 59.01 44.9282C59.1014 45.6109 59.2486 46.291 59.2689 46.9762C59.3095 48.3262 59.2816 49.6814 59.2816 51.171C60.2637 51.0822 61.1392 51.0442 62.002 50.9147C69.2092 49.821 74.2923 42.3143 72.6377 35.2315C71.2445 29.2678 66.1233 25.0679 60.0327 24.8928C58.8654 24.8598 58.3756 24.3649 58.3248 23.2204C58.2918 22.4616 58.2411 21.7028 58.1573 20.9491C57.0991 11.3666 48.448 3.34991 38.8528 3.05046C27.4685 2.69518 17.9291 11.7397 17.6728 23.129C17.6449 24.3573 17.1602 24.8572 15.9598 24.8902C10.4047 25.0476 5.5678 28.6029 3.7457 33.8662C1.98198 38.9544 3.58075 44.4943 7.88222 48.0674C10.4073 50.1661 13.3231 51.1863 16.7897 51.0975L16.7922 51.1ZM19.8096 43.0681H56.1678V34.0565H19.8096V43.0681ZM56.1703 55.2568V46.2174H19.8223V55.2568H56.1703ZM33.4474 68.3642C33.4296 70.8157 35.4953 72.9322 37.9417 72.9626C40.3957 72.9931 42.5173 70.94 42.5604 68.4911C42.6035 65.9965 40.5099 63.8547 38.0204 63.847C35.5689 63.8394 33.4677 65.9178 33.4474 68.3642Z" fill="white"/>
<path d="M26.5367 40.8043H22.0957V36.3633H26.5367V40.8043Z" fill="white"/>
<path d="M29.7246 36.3242H34.1428V40.7957H29.7246V36.3242Z" fill="white"/>
<path d="M26.5602 48.5137V52.9623H22.1191V48.5137H26.5602Z" fill="white"/>
<path d="M29.7227 48.4844H34.1459V52.9584H29.7227V48.4844Z" fill="white"/>
</svg>
