<svg width="56" height="70" viewBox="0 0 56 70" fill="none" xmlns="http://www.w3.org/2000/svg">
<path d="M55.9534 22.2595C55.1979 18.8486 54.4265 15.3922 53.661 11.9853C53.4429 11.0136 53.0701 10.7182 52.0687 10.7162C50.7638 10.7162 49.459 10.7162 48.1541 10.7122C43.8668 10.7083 39.4347 10.7043 35.074 10.7241C32.8867 10.734 31.098 11.6403 29.8983 13.3477C29.1606 14.3967 28.2405 15.1979 27.3501 15.9732C26.3308 16.8616 25.3155 17.7342 24.3716 18.5413L21.0619 21.377C17.187 24.6966 13.3141 28.0182 9.43531 31.3338C7.95795 32.5951 7.1211 34.4472 7.13895 36.4144C7.1568 38.3816 8.02735 40.2198 9.52653 41.4553C9.60784 41.5227 9.69112 41.5881 9.77639 41.6536C9.98065 41.8122 10.1908 41.9748 10.3574 42.1652C14.1906 46.5755 18.0377 51.0234 21.9721 55.5745C22.0316 55.6439 22.0792 55.7252 22.1406 55.8303C22.1466 55.8402 22.1525 55.8521 22.1585 55.8621H21.397C20.7188 55.8621 20.0703 55.8601 19.4219 55.8621C18.2579 55.868 17.8216 56.3102 17.8176 57.4961C17.8136 58.212 17.8156 58.9258 17.8176 59.6754V60.6134C17.3794 60.6134 16.949 60.6134 16.5227 60.6134C15.4558 60.6134 14.4207 60.6114 13.3855 60.6174C12.3662 60.6253 11.8883 61.1032 11.8824 62.1265C11.8744 63.6911 11.8744 65.4124 11.8824 67.5481C11.8863 68.6705 12.3444 69.1286 13.4668 69.1286C19.7015 69.1286 25.9362 69.1286 32.1689 69.1286C38.4016 69.1286 44.6382 69.1286 50.8709 69.1286C51.9913 69.1286 52.4494 68.6705 52.4534 67.5441C52.4573 66.4654 52.4573 65.3886 52.4553 64.3098V62.9395C52.4553 60.8097 52.259 60.6134 50.1273 60.6134H46.5162V59.6655C46.5162 58.9179 46.5181 58.204 46.5162 57.4921C46.5102 56.3221 46.0581 55.866 44.9039 55.864C44.2158 55.864 43.5277 55.864 42.8416 55.864C41.2809 55.866 39.6648 55.87 38.0783 55.8402C37.7472 55.8343 37.3248 55.6439 37.0947 55.398C35.6888 53.8889 34.2828 52.3322 32.9244 50.8271C32.5159 50.375 32.1074 49.9229 31.6989 49.4707L31.3181 49.0503C27.7923 45.1556 24.2665 41.259 20.7406 37.3623C20.4392 37.0291 20.2885 36.5373 20.3242 36.0118C20.3619 35.4863 20.58 35.0223 20.9231 34.7348C24.8931 31.4211 28.8631 28.1114 32.8352 24.8017C32.9343 24.7204 33.0414 24.649 33.1763 24.5598C33.2 24.5439 33.2258 24.5261 33.2516 24.5102V25.8884C33.2516 27.112 33.2516 28.2958 33.2516 29.4797C33.2536 30.5644 33.5332 30.9075 34.608 31.1494C37.9812 31.9069 41.3583 32.6585 44.7334 33.4081C45.6615 33.6143 46.1909 33.3169 46.5043 32.4166C46.7303 31.7661 46.9485 31.1018 47.1587 30.4593C47.2519 30.1738 47.347 29.8882 47.4402 29.6027C47.9142 28.1749 47.7298 27.7743 46.3436 27.219C45.2867 26.7947 44.2297 26.3703 43.1906 25.9539L41.8124 25.4006V19.2333C42.2229 19.2333 42.6314 19.2333 43.0359 19.2333C44.6124 19.2314 46.0997 19.2274 47.6167 19.2571C47.7496 19.2591 48.0014 19.5011 48.0887 19.7113C48.4536 20.5818 48.8105 21.4722 49.1536 22.3348C49.3975 22.9496 49.6434 23.5643 49.8933 24.1751C50.2601 25.0734 50.8055 25.3332 51.7177 25.0436C52.7726 24.7085 53.897 24.3476 55.0274 23.949C55.8344 23.6634 56.1339 23.1122 55.9455 22.2614L55.9534 22.2595ZM14.5119 66.5169V63.239H49.8477V66.5169H14.5119ZM20.4253 60.5638V58.4717H43.8847V60.5638H20.4273H20.4253ZM31.2547 22.7671L19.3148 32.724C18.3015 31.2684 16.949 30.3324 15.1841 29.8723L28.5221 18.3608C29.4997 21.0835 29.5433 21.1509 31.2547 22.7671ZM13.7702 32.2976C13.7801 32.2976 13.792 32.2976 13.8039 32.2976C14.8768 32.3055 15.8881 32.7418 16.6536 33.5211C17.417 34.3025 17.8295 35.3237 17.8156 36.3985C17.7839 38.6552 15.9952 40.4142 13.7385 40.4142H13.7147C12.6498 40.4082 11.6444 39.9779 10.8829 39.2045C10.1135 38.4212 9.69509 37.394 9.70699 36.3113C9.73078 34.0923 11.5532 32.2996 13.7742 32.2996L13.7702 32.2976ZM32.5218 55.8601C30.2295 55.8601 28.064 55.8601 25.8906 55.8482C25.7458 55.8482 25.5316 55.7351 25.4146 55.6003C21.8987 51.5529 18.3352 47.4282 14.8867 43.4403L14.5416 43.0417C14.5416 43.0417 14.5238 43.006 14.5099 42.9723C16.6417 42.6332 18.3015 41.5604 19.4497 39.7796L34.0151 55.8621H32.5218V55.8601ZM39.1888 17.4109C39.1472 19.6736 37.3367 21.4345 35.0681 21.4068C34.0052 21.3968 33.0017 20.9626 32.2442 20.1852C31.4768 19.3979 31.0623 18.3687 31.0782 17.284C31.1119 15.0551 32.9541 13.2604 35.1989 13.2902C36.2698 13.3021 37.2792 13.7423 38.0387 14.5256C38.8001 15.3109 39.2087 16.3361 39.1888 17.4109ZM35.8672 24.1096L39.1928 22.7632V23.5028C39.1928 24.2246 39.1928 24.9782 39.1928 25.7298C39.1928 26.9632 39.3494 27.1972 40.4718 27.6454C41.4971 28.0559 42.5223 28.4644 43.5614 28.8808L44.8088 29.3786L44.3725 30.6854L35.8672 28.7975V24.1096ZM53.2208 21.843L51.912 22.2714L51.4063 21.0062C50.9939 19.975 50.5873 18.9577 50.1788 17.9384C49.7267 16.8121 49.4947 16.6574 48.2652 16.6554H41.8977L40.575 13.3397H51.333L53.2208 21.841V21.843Z" fill="white"/>
<path d="M3.16295 18.1262C3.13717 18.0647 3.11337 18.0013 3.08957 17.9398C2.60968 16.6111 2.45302 15.225 2.62753 13.823C3.12924 9.75578 5.68339 6.09112 9.46108 4.01884C12.5189 2.34119 15.8623 2.06357 18.4066 3.27719C18.708 3.41997 19.0411 3.42988 19.3465 3.30693C19.6737 3.17407 19.9434 2.89248 20.0664 2.55536C20.3222 1.85733 20.0128 1.21483 19.2593 0.87771C19.1681 0.836066 19.0729 0.800372 18.9777 0.76666C15.4062 -0.528264 11.8011 -0.181232 8.25737 1.79586C3.22839 4.60384 0.372811 8.86936 0 14.1304V14.1383C0 16.397 0.259778 17.91 0.890384 19.3636C1.11645 19.8832 1.56462 20.1806 2.06434 20.1806C2.221 20.1806 2.38163 20.1509 2.54424 20.0914C3.15105 19.8633 3.46833 19.197 3.29581 18.5069C3.2621 18.376 3.21252 18.2491 3.16295 18.1282V18.1262Z" fill="white"/>
<path d="M7.43618 17.4139C7.23788 16.4521 7.07924 15.5895 7.16847 14.7487C7.43817 12.1886 9.15746 9.68399 11.6561 8.21257C13.7006 7.00887 15.874 6.74314 17.6191 7.48678C17.9364 7.62163 18.2556 7.6256 18.5452 7.50066C18.8605 7.36383 19.1084 7.08621 19.2432 6.71736C19.495 6.02727 19.1718 5.36295 18.4579 5.10119C17.7341 4.83546 17.1769 4.6907 16.6494 4.63121C13.7839 4.30599 10.7598 5.33717 8.35036 7.46299C5.88346 9.64036 4.44973 12.5971 4.41602 15.5796V15.6014C4.47352 15.8651 4.5231 16.1308 4.57466 16.3966C4.68769 16.9935 4.80667 17.6122 4.97722 18.2071C5.11603 18.687 5.36193 19.036 5.69111 19.2145C5.85372 19.3017 6.03418 19.3473 6.22455 19.3473C6.35741 19.3473 6.49424 19.3255 6.63305 19.2819C7.38462 19.0479 7.64837 18.4371 7.43817 17.4159L7.43618 17.4139Z" fill="white"/>
<path d="M17.8175 11.6301C18.0912 11.4734 18.3073 11.2057 18.4085 10.8983C18.6306 10.23 18.2796 9.53795 17.5915 9.28809C17.2801 9.17505 16.9212 9.0997 16.5563 9.07194C14.8271 8.93511 12.9809 9.61727 11.4916 10.9439C9.94089 12.3241 9.01084 14.1703 8.93945 16.0086V16.0324C8.97713 16.201 9.00489 16.3695 9.03464 16.5401C9.10008 16.9248 9.16949 17.3214 9.30235 17.6942C9.48875 18.2118 9.89528 18.4953 10.4247 18.4953C10.5437 18.4953 10.6687 18.4815 10.7995 18.4517C11.4202 18.3109 11.8327 17.6605 11.7355 16.9684C11.7236 16.8792 11.7098 16.7919 11.6959 16.7027C11.6463 16.3854 11.5947 16.0582 11.6185 15.7488C11.7137 14.5531 12.6319 13.1808 13.907 12.336C14.9362 11.6539 15.9892 11.4377 16.8736 11.7312C17.1909 11.8363 17.526 11.8026 17.8195 11.634L17.8175 11.6301Z" fill="white"/>
<path d="M14.26 15.5881C14.2659 15.9272 14.4047 16.2444 14.6546 16.4844C14.8965 16.7204 15.2099 16.8473 15.539 16.8473C15.547 16.8473 15.5549 16.8473 15.5609 16.8473C15.898 16.8413 16.2172 16.7005 16.4572 16.4527C16.6971 16.2048 16.826 15.8815 16.8201 15.5444C16.8082 14.8504 16.2113 14.2793 15.5172 14.2852C14.8113 14.2971 14.2461 14.8821 14.258 15.5881H14.26Z" fill="white"/>
</svg>
