<svg width="24" height="49" viewBox="0 0 24 49" fill="none" xmlns="http://www.w3.org/2000/svg">
<path d="M3.98216 0.987063C4.49446 0.985319 5.00064 1.09839 5.46351 1.31795C5.92638 1.53752 6.33417 1.85801 6.65692 2.25587L23.2199 22.831C23.7243 23.4446 24 24.2142 24 25.0085C24 25.8028 23.7243 26.5725 23.2199 27.1861L6.07396 47.7612C5.49189 48.4615 4.65548 48.9019 3.74871 48.9855C2.84194 49.0691 1.9391 48.7891 1.2388 48.207C0.538504 47.6249 0.0981142 46.7885 0.0145114 45.8817C-0.0690914 44.975 0.210942 44.0721 0.793007 43.3718L16.1215 24.9914L1.30739 6.61093C0.888058 6.10758 0.621689 5.49464 0.539803 4.84464C0.457914 4.19465 0.563934 3.53479 0.84532 2.94316C1.1267 2.35153 1.57168 1.85288 2.12758 1.50623C2.68349 1.15957 3.32706 0.97941 3.98216 0.987063Z" fill="white"/>
</svg>
