<svg width="32" height="22" viewBox="0 0 32 22" fill="none" xmlns="http://www.w3.org/2000/svg">
<path d="M31.9975 12.6564C31.9851 12.587 31.9727 12.5176 31.9604 12.4474C31.9331 12.2979 31.9067 12.1476 31.8819 11.9973C31.6151 10.3328 30.7841 8.75263 29.5426 7.54664C28.3019 6.34147 26.7011 5.55923 25.0366 5.34364C24.9656 5.33455 24.8549 5.25773 24.8169 5.19082C22.7395 1.51502 18.8456 -0.441005 14.656 0.0843458C10.7572 0.573352 7.33908 3.5553 6.34455 7.33518C6.21899 7.81262 6.06287 7.95552 5.58626 8.02656C3.89952 8.28015 2.33007 9.26642 1.28102 10.7334C0.219584 12.2178 -0.2116 14.0466 0.0981587 15.7524C0.395527 17.3912 1.19594 18.802 2.41102 19.8337C3.63106 20.8687 5.14929 21.4189 6.80299 21.4238C9.87745 21.4329 12.7917 21.4379 15.5844 21.4379C18.3772 21.4379 21.2278 21.4329 23.8951 21.423C27.4594 21.4098 30.4793 19.2274 31.587 15.863C31.7192 15.4624 31.8009 15.0436 31.8811 14.6389C31.9174 14.4555 31.9546 14.2655 31.9959 14.0813L32 12.6845L31.9975 12.6556V12.6564ZM17.4579 19.7701H15.387C14.5139 19.7701 13.6367 19.7701 12.7619 19.771C10.8158 19.7726 8.80444 19.7743 6.82529 19.7668C4.38192 19.7577 2.36064 18.1701 1.79564 15.8176C1.47101 14.4646 1.73947 13.01 2.53245 11.8279C3.32461 10.6467 4.56694 9.84794 5.94062 9.63648C6.19917 9.59683 6.4701 9.58031 6.73195 9.56461L6.78564 9.56131C7.34403 9.52744 7.61084 9.29203 7.70583 8.74768C8.32452 5.21808 10.8422 2.56572 14.2768 1.82478C14.8658 1.69757 15.4564 1.63644 16.0404 1.63644C19.1553 1.63644 22.0737 3.38761 23.5052 6.26961C23.7249 6.71236 24.0264 6.92051 24.5121 6.96595C27.7683 7.2724 30.2232 9.88511 30.3496 13.1785C30.471 16.3306 28.1821 19.1234 25.0267 19.6743C24.5774 19.7528 24.1206 19.7643 23.7323 19.7652C21.6408 19.771 19.5147 19.7701 17.4579 19.7701Z" fill="white"/>
<path d="M16.743 11.367C16.3961 9.95942 15.1307 9.08714 13.6669 9.24492C12.2924 9.39277 11.2417 10.5996 11.2227 12.0501C11.2087 13.1446 11.2128 14.2572 11.2161 15.3327C11.2178 15.7317 11.2186 16.1306 11.2194 16.5304C11.2194 16.6395 11.2326 16.746 11.2583 16.846C11.3516 17.2111 11.6754 17.4647 12.0463 17.4647H12.0496C12.4296 17.463 12.7534 17.2045 12.836 16.8369C12.8698 16.6857 12.874 16.5313 12.8748 16.3727C12.8773 15.963 12.8773 15.5541 12.8764 15.1411V14.842H15.1736V15.6061C15.1736 15.6995 15.1736 15.7928 15.1736 15.8861C15.1736 16.0984 15.172 16.3182 15.1753 16.5354C15.1843 17.1128 15.4891 17.3342 15.7436 17.4184C16.0038 17.5043 16.2607 17.4705 16.4663 17.3226C16.6976 17.1566 16.8306 16.8658 16.8323 16.5255C16.838 15.0122 16.8372 13.5163 16.8306 12.0773C16.8298 11.8419 16.7992 11.5958 16.743 11.367ZM15.172 12.8761C15.1711 12.9719 15.1695 13.0678 15.1695 13.1652H12.9053C12.9037 13.0488 12.8996 12.9331 12.8963 12.8199C12.8847 12.4458 12.874 12.0914 12.9194 11.7445C12.9879 11.2232 13.5406 10.8234 14.1262 10.873C14.6838 10.9201 15.1406 11.3818 15.1653 11.9237C15.1794 12.2351 15.1761 12.5465 15.1728 12.8753L15.172 12.8761Z" fill="white"/>
<path d="M20.7933 13.3662C20.7933 13.0589 20.7933 12.7524 20.7933 12.4452C20.7941 11.6926 20.7949 10.9154 20.7908 10.1496C20.7891 9.84236 20.6834 9.58216 20.4951 9.41778C20.3241 9.2691 20.0903 9.20549 19.8384 9.23936C19.4055 9.29801 19.1362 9.65402 19.1346 10.1703C19.1321 11.1846 19.1329 12.1982 19.1329 13.2125V16.5389C19.1329 16.9759 19.3147 17.2683 19.6715 17.4079C19.7731 17.4476 19.8772 17.4674 19.9796 17.4674C20.1316 17.4674 20.2795 17.4236 20.4067 17.3369C20.6479 17.1733 20.7875 16.8875 20.7899 16.5513C20.7957 15.8038 20.7949 15.0438 20.7933 14.3087C20.7933 13.994 20.7924 13.6801 20.7924 13.3653L20.7933 13.3662Z" fill="white"/>
</svg>
