<svg width="60" height="61" viewBox="0 0 60 61" fill="none" xmlns="http://www.w3.org/2000/svg">
<path d="M7.61253 0.00156572H24.372C25.3866 0.469716 25.6809 1.2745 25.6778 2.36267C25.648 10.722 25.6621 19.0814 25.6621 27.4408V28.0921H38.9332V24.6131H38.274C36.4578 24.6131 34.6415 24.6147 32.8253 24.6131C31.5273 24.6115 30.8227 23.9164 30.8212 22.6356C30.8181 17.7725 30.8181 12.9094 30.8212 8.04623C30.8212 6.79992 31.5336 6.09848 32.794 6.09691C40.43 6.09534 48.0676 6.09534 55.7036 6.09691C56.9515 6.09691 57.6576 6.80775 57.6576 8.06502C57.6607 12.9281 57.6607 17.7913 57.6576 22.6544C57.6576 23.9038 56.9452 24.61 55.6926 24.6131C53.856 24.6178 52.021 24.6131 50.1844 24.6131C49.9762 24.6131 49.7664 24.6131 49.544 24.6131V28.1297H50.2032C52.8007 28.1297 55.3983 28.1297 57.9958 28.1297C59.1936 28.1297 59.9905 28.8265 59.9999 29.8708C60.0093 30.9355 59.203 31.6416 57.9692 31.6447C57.4885 31.6447 57.0063 31.6447 56.4864 31.6447V32.4104C56.4864 38.9332 56.4864 45.4575 56.4864 51.9803C56.4864 53.51 55.8492 54.1473 54.3195 54.1473C53.5883 54.1473 52.8555 54.1473 52.093 54.1473C52.093 54.498 52.093 54.7501 52.093 55.0037C52.0899 56.0982 52.1165 57.1926 52.0774 58.2839C52.0414 59.2781 51.293 59.9921 50.3567 60.0062C49.4016 60.0187 48.6312 59.2875 48.589 58.2714C48.5545 57.4525 48.578 56.6305 48.5764 55.8116C48.5764 55.273 48.5764 54.7344 48.5764 54.1801H11.4235C11.4235 54.4197 11.4235 54.6295 11.4235 54.8393C11.4235 55.8743 11.4282 56.9092 11.4235 57.9441C11.4172 59.1983 10.7361 59.9984 9.67771 60.0062C8.62085 60.014 7.91628 59.2077 7.90845 57.9676C7.90218 57.0298 7.90845 56.0919 7.90845 55.1556C7.90845 54.833 7.90845 54.5089 7.90845 54.1473C7.0974 54.1473 6.37874 54.1473 5.65851 54.1473C4.16481 54.1473 3.51504 53.5022 3.51504 52.0148C3.51504 45.4716 3.51504 38.9285 3.51504 32.3869V31.6244C2.79951 31.6244 2.13721 31.6729 1.4843 31.6119C0.731191 31.5414 0.32567 30.9746 0 30.3562V29.4183C0.466584 28.4068 1.26667 28.0499 2.35797 28.1156C3.36786 28.1767 4.38558 28.1281 5.40017 28.1281H6.3302V27.339C6.3302 19.011 6.34429 10.6845 6.31455 2.35641C6.31141 1.26823 6.60734 0.466584 7.62036 0L7.61253 0.00156572ZM52.9448 31.6886H7.05513V50.6009H52.9448V31.6886ZM34.3613 21.0574H54.094V9.64326H34.3613V21.0574ZM9.86716 6.99407H22.0986V3.54635H9.86716V6.9925V6.99407ZM22.1189 10.5905H9.88752V14.0351H22.1189V10.5905ZM9.8656 21.0558H22.097V17.6128H9.8656V21.0558ZM22.1048 28.1031V24.6585H9.87186V28.1031H22.1048ZM45.9476 28.1094V24.6476H42.5312V28.1094H45.9476Z" fill="white"/>
</svg>
