<svg width="24" height="49" viewBox="0 0 24 49" fill="none" xmlns="http://www.w3.org/2000/svg">
<path d="M20.0178 48.0129C19.5055 48.0147 18.9994 47.9016 18.5365 47.682C18.0736 47.4625 17.6658 47.142 17.3431 46.7441L0.780099 26.169C0.275728 25.5554 0 24.7858 0 23.9915C0 23.1972 0.275728 22.4275 0.780099 21.8139L17.926 1.2388C18.5081 0.538505 19.3445 0.0981133 20.2513 0.0145106C21.1581 -0.0690921 22.0609 0.210942 22.7612 0.793008C23.4615 1.37507 23.9019 2.21149 23.9855 3.11826C24.0691 4.02503 23.7891 4.92787 23.207 5.62816L7.87852 24.0086L22.6926 42.3891C23.1119 42.8924 23.3783 43.5054 23.4602 44.1554C23.5421 44.8054 23.4361 45.4652 23.1547 46.0568C22.8733 46.6485 22.4283 47.1471 21.8724 47.4938C21.3165 47.8404 20.6729 48.0206 20.0178 48.0129Z" fill="white"/>
</svg>
