<svg width="26" height="26" viewBox="0 0 26 26" fill="none" xmlns="http://www.w3.org/2000/svg">
<path d="M12.8555 25.1152C6.22784 25.1152 0.855469 19.7429 0.855469 13.1152C0.855469 6.4876 6.22784 1.11523 12.8555 1.11523C19.4831 1.11523 24.8555 6.4876 24.8555 13.1152C24.8555 19.7429 19.4831 25.1152 12.8555 25.1152Z" stroke="white" stroke-width="0.4321" stroke-miterlimit="10"/>
<path d="M9.93108 10.7346H7.73047V17.8478H9.93108V10.7346Z" fill="white"/>
<path d="M8.82131 9.80413C9.53934 9.80413 10.1231 9.21524 10.1231 8.49203C10.1231 7.76883 9.53934 7.17993 8.82131 7.17993C8.10327 7.17993 7.51953 7.76883 7.51953 8.49203C7.51953 9.21524 8.10327 9.80413 8.82131 9.80413Z" fill="white"/>
<path d="M13.4565 14.1181C13.4565 13.1159 13.9163 12.5218 14.7996 12.5218C15.6106 12.5218 15.9981 13.0952 15.9981 14.1181C15.9981 15.1409 15.9981 17.8529 15.9981 17.8529H18.1883C18.1883 17.8529 18.1883 15.2545 18.1883 13.3484C18.1883 11.4422 17.1087 10.5227 15.6003 10.5227C14.0919 10.5227 13.4565 11.7005 13.4565 11.7005V10.7397H11.3438V17.8529H13.4565C13.4565 17.8529 13.4565 15.2132 13.4565 14.1181Z" fill="white"/>
</svg>
