<svg width="96" height="96" viewBox="0 0 96 96" fill="none" xmlns="http://www.w3.org/2000/svg">
<circle cx="48" cy="48" r="48" fill="white"/>
<g clip-path="url(#clip0_364_144886)">
<path d="M40.1716 63.1405C39.8436 63.1405 39.5831 63.1405 39.3227 63.1405C34.3931 63.1405 29.4636 63.1691 24.5244 63.1118C23.6755 63.1118 22.7686 62.8824 22.0065 62.5193C20.6753 61.879 20 60.7227 20 59.2319C20 48.1369 20 37.0323 20 25.9373C20 23.9208 21.5146 22.2867 23.5693 22.0573C23.9842 22.0096 24.4086 22 24.8234 22C40.2777 22 55.732 22 71.1862 22C72.2088 22 73.2121 22.086 74.1092 22.6403C75.3151 23.3857 75.9904 24.456 75.9904 25.8799C75.9904 37.0036 75.9904 48.1177 75.9904 59.2414C75.9904 61.4967 74.1671 63.1213 71.6589 63.1309C66.7101 63.15 61.7516 63.1309 56.8028 63.1309C56.5423 63.1309 56.2818 63.1309 55.9731 63.1309C55.8574 64.9848 55.9731 66.7815 56.4941 68.5207C56.5326 68.6545 56.8606 68.7788 57.0536 68.7883C58.5681 68.8074 60.0923 68.7979 61.6069 68.7979C63.0925 68.7979 64.0379 69.4381 64.4817 70.7283C64.9447 72.0948 64.5588 73.7385 63.4591 74.4457C62.9575 74.7611 62.2725 74.9331 61.6744 74.9331C53.2431 74.9618 44.8117 74.9522 36.3804 74.9522C35.7437 74.9522 35.0973 74.9044 34.4703 74.9522C32.0586 75.1911 31.0264 72.8594 31.4219 71.0914C31.7692 69.5719 32.7628 68.7788 34.3256 68.7788C35.8884 68.7788 37.4512 68.7692 39.014 68.7788C39.4288 68.7788 39.6217 68.6832 39.7375 68.2436C40.1426 66.5808 40.2584 64.8988 40.1716 63.1022V63.1405ZM73.8873 53.9758V53.4598C73.8873 44.3047 73.8873 35.1401 73.8873 25.985C73.8873 25.0007 73.2796 24.3031 72.2667 24.1598C71.8519 24.1024 71.437 24.1024 71.0126 24.1024C55.6644 24.1024 40.3259 24.1024 24.9778 24.1024C24.6691 24.1024 24.3604 24.1024 24.0517 24.1311C22.7494 24.2362 22.1127 24.9147 22.1127 26.1953C22.1127 35.2261 22.1127 44.2474 22.1127 53.2782V53.9854H73.8777L73.8873 53.9758ZM73.8873 56.1451H22.1127C22.1127 57.2441 22.1127 58.2953 22.1127 59.337C22.1127 59.9582 22.431 60.4551 22.9905 60.6845C23.4825 60.8851 24.042 61.0285 24.5726 61.0285C40.1812 61.0476 55.7898 61.0476 71.3984 61.0285C71.794 61.0285 72.1991 60.9903 72.5657 60.8756C73.3568 60.6462 73.8391 60.0537 73.8488 59.3179C73.868 58.2762 73.8488 57.225 73.8488 56.126L73.8873 56.1451ZM41.9466 68.7788H54.1885L53.7158 63.1978H42.4289L41.9466 68.7788ZM48.0048 70.9098C43.4901 70.9098 38.9754 70.9098 34.4606 70.9098C33.7371 70.9098 33.496 71.1296 33.4574 71.8081C33.4188 72.6204 33.6792 72.888 34.5282 72.888C42.0624 72.888 49.5869 72.888 57.1211 72.888C58.6164 72.888 60.1116 72.9071 61.6165 72.8689C61.877 72.8689 62.2532 72.7351 62.3883 72.544C62.9189 71.7508 62.4269 70.9003 61.4911 70.9003C56.9957 70.9003 52.5099 70.9003 48.0145 70.9003L48.0048 70.9098Z" fill="#0B3B79"/>
<path d="M44.0594 45.3545C47.3683 45.3545 50.6289 45.3545 53.8799 45.3545C54.3623 45.3545 54.8543 45.3545 55.3173 45.4692C56.9669 45.861 57.9799 47.5238 57.5843 49.1293C57.1792 50.7921 55.5103 51.8338 53.851 51.4515C52.2014 51.0788 51.1692 49.4733 51.5068 47.8296C51.5261 47.7245 51.5358 47.6194 51.555 47.476H45.5065C45.5065 48.0208 45.5836 48.5464 45.4968 49.0433C45.246 50.4672 44.0209 51.4706 42.5835 51.5089C41.0979 51.5471 39.7955 50.5914 39.4482 49.2058C39.0913 47.7914 39.7376 46.3102 41.0882 45.7081C41.6188 45.4787 41.8021 45.106 42.0432 44.6569C42.6414 43.5483 42.5449 42.5354 42.0818 41.379C40.7216 37.9578 39.4772 34.4888 38.2038 31.039C38.0398 30.5898 37.8276 30.3796 37.3066 30.4178C36.6507 30.4656 35.985 30.4465 35.329 30.4178C34.6827 30.3987 34.2679 30.0069 34.2389 29.4239C34.2196 28.8123 34.6248 28.3536 35.3001 28.3345C36.4191 28.3058 37.5478 28.3154 38.6668 28.3345C39.1781 28.3345 39.5061 28.6403 39.6991 29.1181C40.0174 29.9304 40.3743 30.7236 40.6637 31.5455C40.8181 31.9946 41.0689 32.1093 41.5223 32.1188C47.0886 32.224 52.6548 32.3482 58.221 32.4724C59.533 32.5011 59.9285 33.0649 59.4751 34.269C58.6069 36.5913 57.7194 38.9135 56.8705 41.2452C56.5135 42.2296 55.8672 42.7743 54.806 42.889C51.7866 43.2043 48.7768 43.5483 45.7573 43.8733C44.291 44.0357 44.6093 43.7968 44.0691 45.3258L44.0594 45.3545ZM41.7731 34.2213C41.7731 34.3359 41.7538 34.4028 41.7731 34.4602C42.6414 36.8397 43.4999 39.2097 44.3874 41.5797C44.4453 41.7231 44.7444 41.8855 44.9084 41.8664C48.0147 41.5511 51.1209 41.207 54.2272 40.8917C54.6324 40.8534 54.8446 40.691 54.9797 40.3087C55.4234 39.0568 55.8961 37.8145 56.3592 36.5721C56.6004 35.9319 56.8415 35.282 57.1116 34.5557L41.7635 34.2308L41.7731 34.2213ZM42.4581 49.4256C43.0176 49.4256 43.4806 48.986 43.4806 48.4412C43.4806 47.9061 42.9983 47.4474 42.4581 47.4569C41.9371 47.4665 41.503 47.8965 41.4934 48.4221C41.4741 48.986 41.8985 49.4256 42.4677 49.4256H42.4581ZM55.5392 48.4508C55.5392 47.8965 55.0761 47.4474 54.5359 47.4569C53.9861 47.4665 53.5327 47.9348 53.5519 48.4795C53.5712 49.0051 54.0053 49.416 54.5359 49.4256C55.1051 49.4256 55.5392 49.0051 55.5392 48.4508Z" fill="#0B3B79"/>
<path d="M48.0314 59.6146C47.0185 59.6146 46.0055 59.6146 44.9926 59.6146C44.2016 59.6146 43.7578 59.2227 43.7578 58.5729C43.7578 57.9135 44.2016 57.5312 44.9926 57.5312C46.9992 57.5312 48.9961 57.5312 51.0026 57.5312C51.7936 57.5312 52.2374 57.9231 52.2374 58.5729C52.2374 59.2323 51.7936 59.6146 51.0026 59.6146C50.009 59.6146 49.025 59.6146 48.0314 59.6146Z" fill="#0B3B79"/>
</g>
<defs>
<clipPath id="clip0_364_144886">
<rect width="56" height="53" fill="white" transform="translate(20 22)"/>
</clipPath>
</defs>
</svg>
