<svg width="96" height="96" viewBox="0 0 96 96" fill="none" xmlns="http://www.w3.org/2000/svg">
<circle cx="48" cy="48" r="48" fill="white"/>
<g clip-path="url(#clip0_364_144830)">
<path d="M48.4543 75.9744C40.7148 75.9744 32.9753 75.9608 25.2358 75.988C23.3467 75.9949 21.8367 75.1353 20.3809 74.0848C20.0965 73.8665 20.0017 73.539 20.0017 73.1775C20.0017 71.6153 19.9949 70.0531 20.0085 68.4909C20.0152 67.7064 20.4486 67.2766 21.2341 67.263C22.4122 67.2493 23.5904 67.2357 24.7686 67.2698C25.2087 67.2835 25.3171 67.1538 25.3103 66.7172C25.2968 57.7603 25.2968 48.7964 25.2968 39.8258C25.2968 39.3892 25.3103 38.9594 25.4187 38.5365C25.7504 37.2813 26.7526 36.4149 28.0527 36.3876C29.9757 36.3467 31.9055 36.3603 33.8285 36.3671C34.5395 36.3671 35.027 36.8651 35.0135 37.52C34.9999 38.1681 34.5124 38.6388 33.7879 38.6456C32.0477 38.6593 30.3142 38.6456 28.574 38.6524C27.7344 38.6524 27.5584 38.8162 27.5584 39.6825C27.5584 48.7214 27.5584 57.7602 27.5448 66.7991C27.5448 67.2425 27.7209 67.263 28.0662 67.263C32.5555 67.2562 37.038 67.2562 41.5274 67.2562C42.4956 67.2562 42.7462 67.4062 43.0576 68.3135C43.166 68.6342 43.3285 68.7297 43.6603 68.7297C46.9714 68.716 50.2757 68.716 53.5869 68.7297C53.9254 68.7297 54.0879 68.6273 54.1895 68.3135C54.4333 67.5427 54.9614 67.2493 55.7604 67.2493C60.1685 67.2698 64.5833 67.2493 68.9914 67.2698C69.4315 67.2698 69.5398 67.1607 69.5398 66.7172C69.5263 57.733 69.5331 48.7487 69.5263 39.7644C69.5263 38.8025 69.4315 38.707 68.4632 38.7002C66.7975 38.7002 65.1385 38.6934 63.4728 38.7002C62.8973 38.7002 62.4368 38.516 62.2269 37.943C61.9561 37.213 62.4436 36.4354 63.2494 36.4217C65.1927 36.3876 67.1428 36.3467 69.0794 36.4422C70.7383 36.524 71.7269 37.7042 71.7405 39.4233C71.7608 41.4971 71.7472 43.5641 71.7472 45.6379C71.7472 52.6439 71.754 59.6499 71.7337 66.6558C71.7337 67.147 71.842 67.2835 72.3363 67.263C73.4739 67.2221 74.6182 67.2425 75.7558 67.2493C76.5954 67.2562 76.9882 67.6586 76.9949 68.4977C77.0017 70.0053 76.9882 71.513 77.0017 73.0206C77.0017 73.5527 76.8189 73.9483 76.372 74.2553C74.7875 75.3604 73.115 76.0017 71.1107 75.988C63.5609 75.9335 56.011 75.9744 48.4543 75.9744ZM48.4678 73.7437C56.1125 73.7437 63.7572 73.7232 71.4087 73.7641C72.5936 73.771 73.5958 73.4094 74.5641 72.8091C74.7807 72.6727 74.862 72.5294 74.8552 72.277C74.8349 71.5402 74.8281 70.8103 74.8552 70.0736C74.8755 69.6643 74.774 69.5278 74.3338 69.5346C68.4429 69.5483 62.5587 69.5483 56.6678 69.5415C56.3427 69.5415 56.1464 69.6165 56.0448 69.9439C55.8078 70.7489 55.2526 71.0286 54.4333 71.0218C50.5669 71.0013 46.6938 71.015 42.8207 71.0081C41.7982 71.0081 41.6154 70.899 41.2633 69.9098C41.1482 69.596 40.9924 69.521 40.6945 69.5346C40.1934 69.5551 39.6856 69.5415 39.1777 69.5415C33.7202 69.5415 28.2626 69.5483 22.7982 69.5346C22.3648 69.5346 22.2226 69.637 22.243 70.0872C22.2836 70.8376 22.2565 71.5948 22.2497 72.3452C22.2497 72.543 22.2768 72.6863 22.4732 72.8091C23.3534 73.3617 24.254 73.7641 25.3442 73.7573C33.0633 73.7369 40.7622 73.7437 48.4678 73.7437Z" fill="#0B3B79"/>
<path d="M59.4314 30.5886C59.4314 30.1384 59.4179 29.6813 59.4382 29.2311C59.4517 28.9309 59.3434 28.8764 59.0793 28.9719C58.6595 29.1219 58.2329 29.2652 57.8063 29.388C57.5558 29.4562 57.4949 29.5517 57.5626 29.8246C57.7928 30.7523 57.9756 31.6938 58.1991 32.6283C58.4293 33.5902 58.2939 34.4975 57.8334 35.3571C57.6709 35.6504 57.6167 35.9369 57.61 36.2643C57.5693 38.3655 57.2646 40.4188 56.5266 42.3971C55.5041 45.1463 53.7165 47.2542 51.2315 48.755C49.1392 50.0171 47.0604 49.8943 45.09 48.4822C41.8263 46.1491 40.0048 42.9565 39.5512 38.9521C39.4631 38.1676 39.3006 37.3899 39.3277 36.5986C39.3345 36.3803 39.2058 36.2643 39.0839 36.1211C38.2646 35.1524 38.0412 34.02 38.2782 32.7921C38.461 31.8302 38.6709 30.8751 38.9214 29.9337C39.0095 29.5995 38.8876 29.5176 38.6303 29.4289C37.3099 28.9787 35.9827 28.5216 34.6623 28.0577C33.6534 27.703 33.1524 26.6934 33.4774 25.6633C33.6534 25.1107 33.9852 24.7355 34.554 24.5445C38.8605 23.0847 43.167 21.6112 47.4735 20.1377C48.0084 19.9535 48.5433 19.9808 49.0647 20.1581C53.378 21.6521 57.698 23.1461 62.0112 24.6469C62.7087 24.8856 63.1082 25.5132 63.1149 26.3045C63.1217 27.0686 62.7493 27.7235 62.0993 27.9622C61.7946 28.0782 61.7269 28.2351 61.7269 28.5353C61.7404 29.6268 61.7404 30.7182 61.7269 31.8097C61.7201 32.5806 61.3206 33.0581 60.6841 33.1195C60.0476 33.1809 59.5059 32.7034 59.4517 32.0076C59.4111 31.5369 59.4382 31.0593 59.4314 30.5886C59.4382 30.5886 59.4382 30.5886 59.4314 30.5886ZM41.5961 37.4718C41.508 37.9016 41.6435 38.27 41.6909 38.6383C42.0565 41.7832 43.3227 44.4232 45.9025 46.3606C47.5344 47.5817 48.7194 47.6772 50.3986 46.5243C53.4998 44.4027 54.915 41.3807 55.0775 37.6765C55.0911 37.3081 54.9963 37.2808 54.678 37.3968C53.1748 37.9562 51.631 38.4132 50.1752 39.0749C48.7465 39.723 47.4464 39.7366 46.0177 39.0886C44.5889 38.4473 43.0857 38.0107 41.5961 37.4718ZM36.6599 26.2704C36.775 26.4342 36.9104 26.441 37.0323 26.4819C39.9574 27.4915 42.9164 28.4125 45.7942 29.5517C47.4599 30.2134 48.9428 30.2544 50.595 29.5449C52.43 28.7604 54.3733 28.2146 56.2693 27.5598C56.2625 27.5256 56.2625 27.4984 56.2557 27.4643C56.0797 27.4643 55.9036 27.4643 55.7208 27.4643C53.554 27.4643 51.3872 27.4574 49.2137 27.4643C48.6584 27.4643 48.2183 27.2801 47.9881 26.7548C47.6495 25.9566 48.2183 25.1926 49.1595 25.1858C51.5091 25.179 53.8519 25.1858 56.2489 25.1858C56.1135 25.0221 55.9713 25.0016 55.8359 24.9538C53.4592 24.1284 51.0757 23.3166 48.7058 22.4775C48.347 22.3547 48.0355 22.3479 47.6834 22.4775C44.0202 23.7464 40.3502 25.0016 36.6599 26.2704ZM41.1424 30.2544C40.8919 31.3595 40.6142 32.4305 40.4111 33.5152C40.2824 34.2315 40.6345 34.709 41.3455 34.9682C43.167 35.6299 45.0087 36.2371 46.8031 36.967C47.7579 37.3558 48.5975 37.3831 49.5658 36.9806C51.306 36.2643 53.0936 35.6777 54.8609 35.0296C55.7953 34.6817 56.039 34.2178 55.8291 33.2491C55.6395 32.3896 55.4229 31.53 55.2536 30.6637C55.1791 30.2953 55.0504 30.2816 54.7322 30.3976C53.0665 30.9911 51.394 31.571 49.7147 32.1235C49.3694 32.2395 49.2678 32.41 49.2814 32.7648C49.3152 33.4197 49.3017 34.0814 49.2881 34.7431C49.2746 35.514 48.8277 36.0256 48.1777 36.0461C47.5006 36.0665 47.0333 35.5549 47.013 34.7499C46.9995 34.0541 46.9995 33.3583 47.013 32.6624C47.0198 32.4032 46.9453 32.2668 46.6812 32.1781C44.8462 31.5505 43.018 30.9093 41.1424 30.2544Z" fill="#0B3B79"/>
<path d="M47.6344 56.0119C46.0974 56.6463 44.6551 57.2398 43.206 57.8333C42.0346 58.3176 41.5742 58.0925 41.2153 56.8919C40.87 55.7254 40.5246 54.552 40.1725 53.3855C40.1184 53.2013 40.1116 53.0035 39.7798 53.1058C37.85 53.6993 35.9744 54.4156 34.241 55.4798C32.9951 56.2438 32.2841 57.308 32.0268 58.7611C31.7018 60.5961 31.4445 62.438 31.3564 64.3004C31.3226 65.0507 30.8486 65.5692 30.1918 65.5487C29.5418 65.5283 29.0678 64.9893 29.0949 64.239C29.1693 61.865 29.4673 59.5183 30.0428 57.2057C30.4694 55.4661 31.6882 54.3815 33.0899 53.4674C34.8571 52.3145 36.8005 51.5573 38.8115 50.9638C39.1501 50.8614 39.4345 50.8 39.2381 50.3021C39.0756 49.8927 39.2584 49.4834 39.5835 49.1765C40.1251 48.658 40.6668 48.1395 41.2356 47.6484C41.7773 47.1777 42.319 47.2323 42.9217 47.8121C44.6348 49.4698 46.3479 51.1207 48.0339 52.8056C48.3928 53.1604 48.5553 53.1399 48.8939 52.7988C50.5393 51.1548 52.2185 49.538 53.8842 47.9213C54.6562 47.1709 55.1775 47.164 55.9562 47.894C56.4234 48.3306 56.8907 48.7603 57.3579 49.1969C57.6897 49.5107 57.8319 49.9064 57.6693 50.3225C57.5068 50.7386 57.7235 50.7796 58.0214 50.8683C59.9986 51.4413 61.9013 52.1849 63.6889 53.2218C65.8151 54.4497 67.1423 56.1824 67.4808 58.686C67.7314 60.5143 68.0225 62.3357 68.0699 64.1844C68.0902 65.0235 67.7043 65.5283 67.0068 65.5556C66.2755 65.5828 65.8354 65.1053 65.7948 64.2526C65.7068 62.2402 65.4359 60.2482 65.0093 58.2767C64.7926 57.2603 64.278 56.4894 63.452 55.8891C61.5899 54.5452 59.4773 53.7675 57.3105 53.1058C56.9854 53.0035 56.9787 53.2081 56.9245 53.3991C56.5521 54.6612 56.1864 55.9232 55.814 57.1784C55.5432 58.0925 54.9473 58.379 54.0535 58.0175C52.8279 57.5195 51.5956 57.0283 50.3768 56.5099C49.9773 56.3393 49.8825 56.4007 49.8825 56.8441C49.9028 59.2932 49.896 61.7422 49.8892 64.1912C49.8892 65.0576 49.3746 65.5419 48.6095 65.4601C48.0001 65.3918 47.6209 64.9211 47.6209 64.1707C47.6141 61.6876 47.6209 59.1977 47.6209 56.7145C47.6344 56.5099 47.6344 56.2984 47.6344 56.0119ZM46.1854 54.17C44.804 52.8398 43.4837 51.5709 42.1701 50.3021C42.0549 50.1929 41.9601 50.1042 41.7909 50.2338C41.608 50.3703 41.608 50.5135 41.6622 50.7182C42.0888 52.178 42.5086 53.6379 42.9217 55.0978C43.0029 55.3979 43.1248 55.4184 43.3956 55.3024C44.2827 54.9136 45.19 54.5657 46.1854 54.17ZM50.7356 54.1632C51.3112 54.4019 51.7919 54.6066 52.2727 54.8044C52.767 55.0023 53.3832 55.4593 53.742 55.3092C54.1754 55.1319 54.1415 54.3337 54.3108 53.8153C54.6494 52.7852 54.9338 51.7414 55.252 50.7045C55.3197 50.4931 55.2791 50.3566 55.1031 50.227C54.9609 50.1179 54.8728 50.1861 54.7713 50.2816C53.4509 51.5573 52.117 52.8329 50.7356 54.1632Z" fill="#0B3B79"/>
<path d="M58.8417 63.4411C58.0765 63.4411 57.3114 63.4479 56.5462 63.4411C55.8149 63.4274 55.3545 62.984 55.3477 62.3155C55.341 61.6537 55.8082 61.1694 56.5259 61.1626C58.0901 61.1489 59.6542 61.1489 61.2251 61.1626C61.9226 61.1694 62.4236 61.6947 62.4101 62.3223C62.3966 62.9703 61.909 63.4206 61.1845 63.4342C60.4058 63.4479 59.6271 63.4411 58.8417 63.4411Z" fill="#0B3B79"/>
<path d="M61.5689 34.8443C61.535 35.4582 61.0137 35.9358 60.4178 35.9153C59.7948 35.8948 59.2802 35.3355 59.3141 34.7215C59.3412 34.0871 59.8829 33.6027 60.5126 33.63C61.1491 33.6709 61.6095 34.1962 61.5689 34.8443Z" fill="#0B3B79"/>
</g>
<defs>
<clipPath id="clip0_364_144830">
<rect width="57" height="56" fill="white" transform="translate(20 20)"/>
</clipPath>
</defs>
</svg>
