<svg width="96" height="96" viewBox="0 0 96 96" fill="none" xmlns="http://www.w3.org/2000/svg">
<circle cx="48" cy="48" r="48" fill="#D9D9D9"/>
<circle cx="48" cy="48" r="48" fill="white"/>
<path d="M21.899 24.6333C21.9687 24.3683 22.0385 24.1172 22.1222 23.8521C22.5547 22.6942 23.6568 21.9129 24.8984 21.8711C24.9961 21.8711 25.1077 21.8711 25.2053 21.8711C40.4117 21.8711 55.618 21.8711 70.8244 21.8711C71.8986 21.8711 72.7915 22.2059 73.4611 23.0569C73.9215 23.6428 74.1168 24.3125 74.1168 25.0519C74.1168 26.8097 74.1307 28.5535 74.1168 30.3113C74.0889 32.1668 72.8054 33.4363 70.95 33.4502C70.378 33.4502 69.792 33.4502 69.1643 33.4502C69.1643 33.6595 69.1363 33.8409 69.1363 34.0222C69.1363 35.9335 69.1503 37.8308 69.1363 39.7421C69.0666 47.1639 66.0532 53.1069 59.9846 57.3898C55.2972 60.6961 50.0098 61.8819 44.3737 60.7938C36.2125 59.2313 30.7577 54.3904 27.9397 46.5919C27.1584 44.4295 26.8794 42.1695 26.8794 39.8816C26.8794 37.775 26.8794 35.6684 26.8794 33.4781C26.4888 33.4781 26.1261 33.4502 25.7494 33.4781C23.9079 33.6177 22.4431 33.0317 21.8711 30.7856V24.6613L21.899 24.6333ZM29.9765 33.4781C29.9765 35.794 29.9486 38.0819 29.9904 40.3559C30.0184 41.4022 30.116 42.4625 30.3253 43.4948C32.2086 53.079 41.3464 59.3987 51.0003 57.8223C59.5382 56.4272 65.9695 49.0193 66.0951 40.3838C66.123 38.2075 66.0951 36.0311 66.0951 33.8548C66.0951 33.7432 66.0811 33.6316 66.0672 33.4781H29.9626H29.9765ZM71.0616 24.9682H25.01V30.3671H71.0616V24.9682Z" fill="#0B3B79"/>
<path d="M21.8984 58.7286C22.3309 57.78 22.8471 57.3754 23.5725 57.4452C24.3677 57.5289 24.8142 58.0171 25.0374 59.0216C26.4603 65.5506 30.4363 69.5544 36.9513 71.0053C37.7744 71.1867 38.472 71.4657 38.6254 72.3865C38.7649 73.2654 38.2348 73.7676 37.5373 74.1443H36.7142C36.6026 74.1024 36.491 74.0605 36.3794 74.0326C29.7109 72.5678 25.1071 68.7035 22.7494 62.2582C22.3867 61.2816 22.1914 60.2493 21.9124 59.2309V58.7147L21.8984 58.7286Z" fill="#0B3B79"/>
<path d="M58.5596 74.1328C57.862 73.7561 57.3179 73.2678 57.4714 72.3889C57.6249 71.4682 58.3085 71.1892 59.1316 71.0078C65.6466 69.5569 69.6086 65.553 71.0455 59.038C71.2966 57.8941 71.9523 57.3081 72.8452 57.4616C73.7241 57.6151 74.2542 58.3823 74.1008 59.2891C72.887 66.6273 67.4323 72.3471 60.15 73.9375C59.8849 73.9933 59.6338 74.077 59.3687 74.1467H58.5456L58.5596 74.1328Z" fill="#0B3B79"/>
<path d="M29.7237 56.8048C30.4631 56.8048 31.0491 57.2931 31.2165 58.0883C31.4536 59.1904 31.7885 60.2507 32.3884 61.2133C33.5881 63.1246 35.332 64.2267 37.4943 64.7428C37.7036 64.7986 37.9268 64.8126 38.1361 64.8824C38.9173 65.1056 39.3916 65.9008 39.2242 66.6681C39.0568 67.4632 38.2756 67.9794 37.4664 67.8539C32.7511 67.1284 29.0262 63.4873 28.245 58.7998C28.0636 57.6977 28.7193 56.7909 29.7237 56.8048Z" fill="#0B3B79"/>
<path d="M67.8662 58.547C67.6011 60.2629 66.9594 61.937 65.8712 63.4437C64.0576 65.9409 61.5744 67.3499 58.561 67.8661C57.7519 68.0056 56.9706 67.4336 56.8311 66.6384C56.6777 65.8432 57.2078 65.0899 58.0169 64.8667C58.7842 64.6574 59.5794 64.49 60.3049 64.1691C62.7742 63.0531 64.1971 61.086 64.7831 58.4633C64.8249 58.2959 64.8389 58.1285 64.8947 57.9611C65.1039 57.2077 65.8294 56.7194 66.5548 56.8171C67.364 56.9287 67.908 57.5983 67.8801 58.547H67.8662Z" fill="#0B3B79"/>
<path d="M48.0173 54.9335C42.9671 54.9335 38.8376 50.7761 38.8516 45.7259C38.8516 40.7037 42.995 36.5742 48.0312 36.5742C53.0814 36.5742 57.2248 40.7037 57.2248 45.7538C57.2248 50.804 53.0814 54.9335 48.0312 54.9335H48.0173ZM48.0591 51.8782C51.4073 51.8782 54.1556 49.116 54.1696 45.7678C54.1696 42.4056 51.4073 39.6294 48.0312 39.6434C44.683 39.6434 41.9347 42.4056 41.9208 45.7538C41.9208 49.116 44.683 51.8922 48.0591 51.8782Z" fill="#0B3B79"/>
<path d="M49.563 45.755C49.563 46.5781 48.8795 47.2896 48.0424 47.2896C47.2193 47.2896 46.5078 46.606 46.5078 45.769C46.5078 44.9459 47.1914 44.2344 48.0285 44.2344C48.8515 44.2344 49.563 44.918 49.563 45.755Z" fill="#0B3B79"/>
</svg>
