<svg width="96" height="96" viewBox="0 0 96 96" fill="none" xmlns="http://www.w3.org/2000/svg">
<circle cx="48" cy="48" r="48" fill="white"/>
<g clip-path="url(#clip0_364_144845)">
<path d="M44.2462 21C44.7225 21.2571 44.9018 21.6716 44.8759 22.2476C44.8462 22.9085 44.887 23.5734 44.8622 24.2342C44.8486 24.6016 44.9389 24.7308 45.2952 24.7214C46.2985 24.6958 47.303 24.7079 48.3063 24.7147C49.1314 24.7201 49.4061 25.0162 49.411 25.9004C49.4172 27.0108 49.4222 28.1198 49.4061 29.2301C49.4011 29.5505 49.4766 29.6581 49.7871 29.6635C51.1331 29.6891 51.1331 29.7012 51.1331 28.2476C51.1331 27.4778 51.1306 26.7079 51.1343 25.9381C51.1392 25.0067 51.3978 24.7174 52.2539 24.716C55.0175 24.712 57.7824 24.7147 60.5461 24.7147C62.8656 24.7147 65.1864 24.7133 67.506 24.7147C68.4808 24.7147 68.7332 24.9906 68.7332 26.0458C68.7332 41.8708 68.7369 57.6945 68.7196 73.5195C68.7183 74.0861 68.8668 74.2301 69.343 74.1655C69.6177 74.1279 69.9022 74.148 70.1806 74.1696C70.6519 74.2046 70.9933 74.5868 71.0007 75.0633C71.0069 75.5101 70.6902 75.9085 70.2511 75.9838C70.1063 76.0094 69.9554 76.0013 69.8082 76.0013C55.2625 76.0027 40.718 76.0027 26.1723 76.0013C26.009 76.0013 25.8407 76.004 25.6811 75.9677C25.2717 75.8721 24.9834 75.467 25.0007 75.0404C25.0193 74.5841 25.3471 74.2059 25.79 74.1723C26.1339 74.1454 26.484 74.1265 26.8255 74.1669C27.2176 74.2126 27.324 74.0417 27.2683 73.6581C27.2535 73.5532 27.2659 73.4441 27.2659 73.3365C27.2659 62.1305 27.2659 50.9246 27.2659 39.7187C27.2659 38.5532 27.4972 38.3015 28.571 38.3015C30.6283 38.3015 32.6843 38.2907 34.7416 38.3109C35.1164 38.3149 35.2389 38.2275 35.234 37.7914C35.2117 35.5182 35.2228 33.245 35.2241 30.9717C35.2253 29.9381 35.4764 29.6622 36.4166 29.6581C37.0253 29.6555 37.6352 29.6406 38.2426 29.6649C38.5419 29.677 38.6384 29.5908 38.6322 29.2517C38.6125 28.1427 38.6211 27.0323 38.6261 25.9219C38.6285 25.0417 38.9143 24.7241 39.7221 24.7174C40.7427 24.7093 41.7621 24.7039 42.7827 24.7227C43.0759 24.7281 43.1909 24.6581 43.1748 24.3122C43.1476 23.7416 43.1909 23.1655 43.1612 22.5949C43.1278 21.9812 43.212 21.432 43.6573 21.004C43.8515 21 44.0482 21 44.2462 21ZM67.0359 50.4361C67.0359 42.6851 67.0322 34.934 67.0445 27.183C67.0458 26.7227 66.9765 26.5532 66.4977 26.5559C62.1048 26.5787 57.7119 26.5774 53.319 26.5572C52.8947 26.5559 52.8205 26.6864 52.8217 27.1171C52.8365 32.5585 52.8316 38 52.8316 43.4428C52.8316 45.2867 52.8415 47.1306 52.8229 48.9744C52.8192 49.358 52.9219 49.4589 53.2633 49.4428C53.9041 49.4132 54.5474 49.4159 55.1882 49.4415C55.521 49.4549 55.6905 49.3957 55.7091 48.9731C55.7301 48.4953 56.0592 48.2396 56.4686 48.2086C56.8831 48.1777 57.2628 48.4038 57.3024 48.8668C57.3519 49.4468 57.6266 49.4926 58.0397 49.4374C58.2179 49.4132 58.4034 49.4159 58.5816 49.4374C58.9008 49.4751 59.0739 49.4092 59.1098 48.9892C59.1531 48.4926 59.5552 48.1736 59.9597 48.1965C60.4013 48.2221 60.7168 48.576 60.7626 49.1144C60.7774 49.2921 60.7725 49.4724 60.7725 49.6514C60.7725 57.6353 60.7762 65.6191 60.7638 73.6016C60.7626 74.0404 60.8578 74.1723 61.2735 74.1669C63.0178 74.1413 64.7621 74.1386 66.5052 74.1682C66.9406 74.1763 67.047 74.0579 67.0458 73.5814C67.0309 65.8668 67.0359 58.1521 67.0359 50.4361ZM28.9607 57.1454C28.9607 62.6406 28.9644 68.1359 28.952 73.6312C28.9508 74.0471 29.0386 74.1803 29.437 74.1669C30.4724 74.1346 31.5103 74.14 32.5458 74.1655C32.8785 74.1736 32.9639 74.0606 32.9589 73.7147C32.9416 72.6057 32.9478 71.4953 32.954 70.3849C32.9589 69.5276 33.2422 69.2167 34.0216 69.214C35.3713 69.2086 36.7197 69.21 38.0694 69.214C38.9044 69.2167 39.1988 69.5343 39.2013 70.4347C39.205 71.5087 39.2174 72.5828 39.1939 73.6568C39.1852 74.0417 39.2533 74.183 39.6442 74.1696C40.6636 74.1346 41.6842 74.1332 42.7035 74.1696C43.1179 74.1844 43.1736 74.0215 43.1736 73.6272C43.165 62.6366 43.1637 51.646 43.1773 40.6568C43.1773 40.2113 43.0474 40.1413 42.6813 40.1427C38.2883 40.1561 33.8954 40.1602 29.5025 40.1373C29.0201 40.1346 28.9532 40.3109 28.9545 40.7698C28.9656 46.2275 28.9607 51.6864 28.9607 57.1454ZM44.8684 62.6783C44.8684 66.3297 44.8746 69.9825 44.8598 73.6339C44.8585 74.0579 44.9587 74.1669 45.3484 74.1655C49.7747 74.1494 54.201 74.1494 58.6274 74.1669C59.0158 74.1682 59.0777 74.0404 59.0777 73.6554C59.0665 66.3513 59.0665 59.0485 59.0777 51.7443C59.0777 51.3688 58.996 51.2746 58.6484 51.2759C54.206 51.2894 49.7636 51.2907 45.3212 51.2759C44.9501 51.2746 44.8585 51.3742 44.861 51.7779C44.8746 55.4105 44.8684 59.0444 44.8684 62.6783ZM51.1281 40.5034C51.1281 37.6581 51.1244 34.8129 51.1343 31.9664C51.1355 31.6393 51.0861 31.5034 50.7384 31.5047C46.2639 31.5182 41.7893 31.5182 37.316 31.5047C36.9745 31.5034 36.9201 31.6258 36.9226 31.9569C36.9362 33.9071 36.9399 35.8587 36.9201 37.8089C36.9164 38.1992 36.9906 38.3149 37.3704 38.3109C39.5081 38.288 41.647 38.2974 43.786 38.3015C44.4948 38.3028 44.7559 38.5195 44.8548 39.2517C44.8932 39.533 45.0119 39.5518 45.2123 39.5491C45.9026 39.5424 46.5942 39.537 47.2845 39.5505C47.903 39.5612 48.2902 39.9354 48.2803 40.4805C48.2704 41.0242 47.877 41.3876 47.2585 41.397C46.6004 41.4078 45.9422 41.4145 45.2853 41.393C44.9822 41.3836 44.8449 41.4428 44.861 41.8237C44.8907 42.5734 44.8857 43.3271 44.8622 44.0781C44.8511 44.4213 44.9637 44.5034 45.2581 44.4953C45.9323 44.4751 46.6065 44.4899 47.2808 44.4886C47.5876 44.4886 47.8758 44.5478 48.075 44.8264C48.2803 45.1144 48.3397 45.4374 48.195 45.782C48.0329 46.1696 47.7286 46.3311 47.3624 46.3378C46.6548 46.3526 45.9472 46.3607 45.2408 46.3351C44.9266 46.3244 44.8523 46.4374 44.8622 46.7604C44.8845 47.4939 44.887 48.2288 44.861 48.961C44.8474 49.3351 44.9488 49.4455 45.2977 49.4428C47.0902 49.424 48.884 49.4213 50.6766 49.4441C51.0551 49.4495 51.1392 49.327 51.1368 48.9327C51.1207 46.1238 51.1281 43.3136 51.1281 40.5034ZM43.9988 29.6541C45.1171 29.6541 46.2367 29.6447 47.355 29.6608C47.6321 29.6649 47.7236 29.5814 47.7162 29.2719C47.6964 28.4845 47.6964 27.6972 47.7162 26.9098C47.7236 26.6083 47.616 26.5653 47.3748 26.5653C45.1369 26.5734 42.9002 26.576 40.6623 26.5639C40.3629 26.5626 40.311 26.6851 40.3172 26.9704C40.332 27.7214 40.3431 28.4751 40.3135 29.2248C40.2986 29.6057 40.4384 29.6649 40.7415 29.6595C41.8277 29.6447 42.9126 29.6541 43.9988 29.6541ZM37.4941 72.6137C37.4941 72.2019 37.4805 71.79 37.4991 71.3795C37.5114 71.1104 37.4137 71.0485 37.1849 71.0525C36.4451 71.0646 35.7053 71.0646 34.9655 71.0525C34.7453 71.0485 34.6451 71.0915 34.6501 71.3688C34.6674 72.1911 34.6587 73.0135 34.6538 73.8358C34.6525 74.0377 34.6698 74.1682 34.9136 74.1642C35.1486 74.1615 35.2352 74.0821 35.2253 73.825C35.2105 73.4495 35.2105 73.074 35.2253 72.6985C35.2513 72.0525 35.5791 71.6797 36.0888 71.6904C36.5638 71.6999 36.8941 72.0821 36.9226 72.6864C36.9399 73.0606 36.935 73.4374 36.9238 73.8129C36.9164 74.0471 36.9548 74.1682 37.2133 74.1642C37.483 74.1615 37.4978 74.0108 37.4941 73.7927C37.4892 73.3997 37.4941 73.0067 37.4941 72.6137Z" fill="#0B3B79"/>
<path d="M60.7848 37.4029C60.7711 37.6518 60.7711 37.9022 60.739 38.1471C60.6771 38.6236 60.3765 38.8699 59.972 38.9022C59.5835 38.9331 59.2495 38.7272 59.1481 38.2965C59.0033 37.6882 59.0021 37.0583 59.1481 36.4513C59.252 36.0233 59.5823 35.8147 59.9745 35.847C60.3815 35.8807 60.6796 36.1296 60.7402 36.6047C60.7724 36.8672 60.7699 37.135 60.7848 37.4029Z" fill="#0B3B79"/>
<path d="M64.1775 37.4249C64.1775 37.6389 64.1985 37.8542 64.1738 38.0655C64.1144 38.5716 63.7371 38.9336 63.3128 38.9188C62.8773 38.904 62.5285 38.538 62.5012 38.0225C62.479 37.5972 62.479 37.1678 62.5 36.7412C62.526 36.2203 62.8649 35.8569 63.3029 35.8367C63.7247 35.8166 64.1119 36.1773 64.1701 36.6793C64.1985 36.9242 64.175 37.1773 64.175 37.4262C64.1763 37.4249 64.1775 37.4249 64.1775 37.4249Z" fill="#0B3B79"/>
<path d="M64.1644 49.6975C64.1644 49.964 64.1953 50.2358 64.1582 50.4956C64.0889 50.972 63.7029 51.2991 63.2947 51.2749C62.8716 51.2493 62.5326 50.9061 62.5042 50.4175C62.4782 49.9747 62.4782 49.5265 62.5017 49.0837C62.5277 48.5723 62.8864 48.2035 63.3194 48.1955C63.7227 48.1874 64.0988 48.5319 64.1644 49.0057C64.1953 49.2318 64.1693 49.4673 64.1693 49.6975C64.1668 49.6975 64.1656 49.6975 64.1644 49.6975Z" fill="#0B3B79"/>
<path d="M57.3765 37.2773C57.3542 37.6797 57.4037 37.9839 57.3072 38.2787C57.1612 38.7241 56.8544 38.9449 56.4425 38.9018C56.0355 38.8601 55.7299 38.599 55.6978 38.1239C55.6644 37.6461 55.6644 37.1629 55.6916 36.6851C55.7188 36.2019 56.0726 35.8345 56.4907 35.8439C56.9311 35.8533 57.2404 36.0996 57.3307 36.5828C57.379 36.8399 57.3666 37.1118 57.3765 37.2773Z" fill="#0B3B79"/>
<path d="M62.5028 62.0393C62.5028 61.8253 62.4867 61.61 62.5065 61.3987C62.551 60.9195 62.895 60.5481 63.3106 60.5588C63.7498 60.5709 64.0739 60.8145 64.1506 61.2977C64.2335 61.824 64.236 62.3664 64.1494 62.8913C64.0702 63.3717 63.751 63.6207 63.3081 63.6275C62.8912 63.6342 62.5473 63.2654 62.5065 62.7863C62.4855 62.54 62.5028 62.2883 62.5028 62.0393Z" fill="#0B3B79"/>
<path d="M55.6641 31.1833C55.674 30.9343 55.6641 30.6826 55.6987 30.439C55.7606 30.0043 56.0006 29.7378 56.4088 29.6853C56.8344 29.6301 57.1721 29.8145 57.2884 30.26C57.4455 30.8643 57.4381 31.4982 57.297 32.1039C57.1931 32.5507 56.8616 32.7593 56.4348 32.7122C56.008 32.6651 55.7482 32.3932 55.6975 31.9289C55.6702 31.6839 55.6925 31.4323 55.6925 31.1833C55.6826 31.1833 55.6727 31.1833 55.6641 31.1833Z" fill="#0B3B79"/>
<path d="M62.5008 31.1893C62.5008 30.9578 62.4823 30.725 62.5045 30.4962C62.5528 30.0063 62.8175 29.7196 63.2691 29.6833C63.7206 29.6469 64.041 29.8892 64.1363 30.3629C64.2439 30.9026 64.2303 31.4639 64.1449 32.0063C64.0695 32.4894 63.6847 32.7707 63.2493 32.7169C62.799 32.6617 62.5441 32.371 62.5021 31.8824C62.4823 31.6536 62.4984 31.4208 62.4984 31.1893C62.4996 31.1893 62.5008 31.1893 62.5008 31.1893Z" fill="#0B3B79"/>
<path d="M64.2018 43.6353C64.187 43.852 64.2031 44.1266 64.1449 44.381C64.0361 44.8493 63.7379 45.1064 63.2839 45.0727C62.8348 45.0391 62.5491 44.7605 62.5132 44.2706C62.4798 43.8116 62.4823 43.346 62.507 42.8843C62.5355 42.3756 62.8534 42.0552 63.2913 42.0324C63.7255 42.0108 64.0806 42.3015 64.161 42.7874C64.2031 43.0485 64.1882 43.3204 64.2018 43.6353Z" fill="#0B3B79"/>
<path d="M64.1995 55.9146C64.1859 56.1797 64.1995 56.4516 64.1513 56.71C64.0634 57.1905 63.6997 57.4745 63.2618 57.4301C62.8078 57.3843 62.5406 57.0963 62.5072 56.6077C62.4775 56.1649 62.4787 55.7181 62.4998 55.2753C62.5257 54.7383 62.8511 54.4045 63.3076 54.391C63.7554 54.3776 64.1104 54.706 64.1711 55.2214C64.1983 55.4489 64.176 55.6831 64.176 55.9146C64.1834 55.9146 64.1921 55.9146 64.1995 55.9146Z" fill="#0B3B79"/>
<path d="M62.5039 68.2646C62.5039 68.0331 62.4841 67.8002 62.5076 67.5714C62.5571 67.0842 62.8181 66.8002 63.2696 66.7545C63.7051 66.71 64.0812 67.0008 64.1529 67.4839C64.2309 68.0102 64.2346 68.5512 64.1505 69.0761C64.0725 69.558 63.6915 69.8379 63.256 69.7868C62.8033 69.7329 62.5497 69.4449 62.5064 68.9563C62.4866 68.7275 62.5027 68.4947 62.5027 68.2632C62.5027 68.2646 62.5039 68.2646 62.5039 68.2646Z" fill="#0B3B79"/>
<path d="M60.7866 31.2228C60.773 31.4732 60.778 31.7262 60.7408 31.9712C60.674 32.4113 60.4204 32.6683 60.0122 32.7114C59.5804 32.7572 59.2551 32.5485 59.1462 32.0963C59.0027 31.5041 59.004 30.8864 59.1462 30.2928C59.2551 29.8393 59.5829 29.6374 60.0122 29.6818C60.4204 29.7235 60.6777 29.9752 60.7408 30.4193C60.778 30.6845 60.773 30.955 60.7866 31.2228Z" fill="#0B3B79"/>
<path d="M55.6878 43.582C55.6878 43.333 55.6668 43.0813 55.6927 42.8364C55.741 42.372 55.9934 42.0948 56.4226 42.0463C56.8729 41.9952 57.2057 42.2146 57.3071 42.691C57.4296 43.2644 57.4309 43.8619 57.3047 44.4339C57.1995 44.909 56.8643 45.1257 56.4152 45.0719C55.9872 45.0194 55.7373 44.7395 55.6903 44.2751C55.668 44.0463 55.6878 43.8135 55.6878 43.582Z" fill="#0B3B79"/>
<path d="M60.7861 43.5824C60.7725 43.8327 60.7775 44.0858 60.7404 44.3307C60.6748 44.7695 60.4249 45.0306 60.0154 45.0737C59.5849 45.1194 59.2571 44.9162 59.147 44.4653C59.0023 43.8731 59.0047 43.2554 59.1445 42.6618C59.2522 42.2083 59.5775 42.0037 60.008 42.0441C60.4187 42.0831 60.6711 42.3415 60.7391 42.7789C60.78 43.0427 60.7725 43.3132 60.7861 43.5824Z" fill="#0B3B79"/>
<path d="M35.2109 52.144C35.2245 51.9139 35.2233 51.6622 35.2592 51.4186C35.3297 50.9448 35.6353 50.7026 36.041 50.681C36.4295 50.6608 36.7548 50.8708 36.8538 51.3069C36.9886 51.8991 36.9886 52.5101 36.8563 53.1023C36.7536 53.5599 36.4171 53.7766 36.0039 53.7362C35.5969 53.6958 35.305 53.4401 35.253 52.9623C35.2245 52.6972 35.2245 52.4293 35.2109 52.144Z" fill="#0B3B79"/>
<path d="M36.9173 64.5755C36.921 64.877 36.9593 65.1811 36.8616 65.4745C36.7218 65.8958 36.4311 66.1165 36.0377 66.0937C35.6282 66.0694 35.309 65.8258 35.2645 65.3521C35.22 64.877 35.2175 64.3924 35.2422 63.9147C35.2695 63.3911 35.6233 63.0344 36.0575 63.0237C36.4756 63.0129 36.8492 63.375 36.9123 63.8824C36.9408 64.1098 36.9173 64.344 36.9173 64.5755Z" fill="#0B3B79"/>
<path d="M33.4917 52.217C33.4917 52.4485 33.5078 52.6813 33.488 52.9101C33.4471 53.4108 33.1527 53.6679 32.7247 53.7392C32.3437 53.8025 31.9379 53.4902 31.855 53.0447C31.7548 52.5023 31.761 51.9424 31.8476 51.4C31.9255 50.9169 32.2558 50.6759 32.695 50.6719C33.1156 50.6679 33.4484 51.038 33.4904 51.5225C33.5102 51.7513 33.4942 51.9842 33.4942 52.2156C33.4929 52.217 33.4917 52.217 33.4917 52.217Z" fill="#0B3B79"/>
<path d="M40.3012 52.2418C40.3012 52.4733 40.3186 52.7061 40.2975 52.9349C40.2493 53.4356 39.9474 53.7061 39.5182 53.7384C39.1062 53.7694 38.7722 53.5406 38.6807 53.0789C38.5656 52.5029 38.5631 51.9094 38.6831 51.3333C38.7796 50.8717 39.1161 50.6483 39.5268 50.6832C39.9549 50.7196 40.2555 50.9928 40.2988 51.4948C40.3198 51.7411 40.3025 51.9928 40.3012 52.2418Z" fill="#0B3B79"/>
<path d="M40.3008 64.5935C40.3008 64.825 40.3181 65.0578 40.2971 65.2866C40.2513 65.7859 39.9569 66.0618 39.5251 66.0968C39.1107 66.1318 38.7779 65.9044 38.6827 65.4454C38.5627 64.8707 38.5664 64.2758 38.6802 63.6998C38.7717 63.2368 39.1095 63.012 39.5177 63.0417C39.9457 63.0726 40.2513 63.3418 40.2958 63.8452C40.3193 64.0941 40.3008 64.3445 40.3008 64.5935Z" fill="#0B3B79"/>
<path d="M33.4918 64.5904C33.4918 64.8044 33.5067 65.0184 33.4894 65.2311C33.4498 65.7264 33.1356 66.0709 32.7112 66.1059C32.3067 66.1396 31.9022 65.8166 31.8354 65.3441C31.7624 64.834 31.7649 64.3118 31.8329 63.8017C31.896 63.3266 32.298 62.9996 32.7013 63.0292C33.1244 63.0602 33.4473 63.4074 33.4869 63.8973C33.5067 64.1261 33.4906 64.3589 33.4918 64.5904Z" fill="#0B3B79"/>
<path d="M36.9098 58.371C36.9122 58.655 36.9593 58.943 36.8801 59.2243C36.7465 59.698 36.4558 59.9403 36.003 59.9026C35.5712 59.8676 35.2941 59.5998 35.257 59.1274C35.2211 58.6657 35.2174 58.1973 35.2434 57.7344C35.2731 57.2081 35.5824 56.8905 36.0203 56.8649C36.4756 56.838 36.8294 57.1462 36.9048 57.6751C36.937 57.9026 36.9098 58.1395 36.9098 58.371Z" fill="#0B3B79"/>
<path d="M40.3063 46.0291C40.3063 46.2606 40.3237 46.4935 40.3026 46.7223C40.2569 47.2108 39.9996 47.5016 39.5468 47.5433C39.0952 47.585 38.7724 47.3481 38.6771 46.873C38.5658 46.3158 38.5658 45.7371 38.6783 45.1799C38.7748 44.7034 39.0989 44.4719 39.5505 44.5123C39.9798 44.55 40.2408 44.8192 40.2965 45.2835C40.3249 45.5285 40.3014 45.7802 40.3014 46.0291C40.3026 46.0291 40.3051 46.0291 40.3063 46.0291Z" fill="#0B3B79"/>
<path d="M35.2109 46.0251C35.2233 45.7747 35.2208 45.523 35.253 45.2754C35.3149 44.8043 35.5821 44.5432 36.0126 44.5109C36.4431 44.4786 36.7585 44.698 36.8587 45.1556C36.9849 45.733 36.9874 46.3306 36.8563 46.908C36.7536 47.3629 36.4357 47.5809 36.0052 47.5446C35.5734 47.5082 35.3111 47.2431 35.2505 46.7734C35.2196 46.5271 35.2233 46.2754 35.2109 46.0251Z" fill="#0B3B79"/>
<path d="M33.4923 46.0447C33.4923 46.2587 33.5071 46.4727 33.4898 46.684C33.449 47.1941 33.1484 47.5185 32.7117 47.5454C32.2762 47.5723 31.9064 47.287 31.8358 46.8011C31.7616 46.2924 31.7653 45.7688 31.8334 45.2601C31.8989 44.7729 32.2651 44.4808 32.6993 44.501C33.1373 44.5225 33.4453 44.8428 33.4886 45.3502C33.5084 45.579 33.4923 45.8119 33.4923 46.0434C33.4923 46.0447 33.4923 46.0447 33.4923 46.0447Z" fill="#0B3B79"/>
<path d="M33.4923 58.4209C33.4911 58.6349 33.5071 58.8489 33.4886 59.0602C33.4441 59.5676 33.1385 59.8879 32.6993 59.9094C32.2663 59.931 31.8977 59.6376 31.8334 59.1517C31.7653 58.6416 31.7616 58.1194 31.8358 57.6106C31.9064 57.1261 32.2775 56.8381 32.7117 56.865C33.1484 56.8919 33.449 57.2149 33.4898 57.7264C33.5084 57.9579 33.4923 58.1907 33.4923 58.4209Z" fill="#0B3B79"/>
<path d="M40.3039 58.3698C40.3039 58.6188 40.3261 58.8705 40.2989 59.1154C40.2482 59.5798 39.9934 59.8543 39.5641 59.9001C39.1138 59.9472 38.786 59.7265 38.682 59.25C38.5608 58.6942 38.5707 58.1141 38.6734 57.5569C38.7612 57.0818 39.0804 56.8355 39.5332 56.8705C39.9847 56.9055 40.2507 57.1894 40.3014 57.678C40.3249 57.9055 40.3051 58.1396 40.3051 58.3698C40.3051 58.3698 40.3051 58.3698 40.3039 58.3698Z" fill="#0B3B79"/>
<path d="M51.1328 62.6924C51.1328 59.9737 51.1328 57.2536 51.134 54.5349C51.134 54.3209 51.1303 54.1029 51.1613 53.8929C51.2256 53.4434 51.5077 53.2038 51.8973 53.1554C52.2734 53.1083 52.5654 53.3034 52.7348 53.6789C52.8388 53.9091 52.8338 54.1634 52.8338 54.4151C52.8326 59.9427 52.8326 65.4703 52.8326 70.9992C52.8326 71.2321 52.8412 71.4649 52.7559 71.687C52.5889 72.1204 52.2883 72.3169 51.8602 72.2577C51.4507 72.2011 51.2107 71.936 51.1551 71.4932C51.1303 71.2994 51.134 71.1002 51.134 70.9037C51.1328 68.1661 51.1328 65.4286 51.1328 62.6924Z" fill="#0B3B79"/>
<path d="M56.2281 62.7622C56.2281 65.4809 56.2281 68.2009 56.2269 70.9196C56.2269 71.1161 56.2269 71.3153 56.1997 71.5078C56.1378 71.9492 55.8904 72.2076 55.4834 72.2574C55.0554 72.3099 54.7572 72.1054 54.5989 71.6679C54.5247 71.4634 54.5234 71.2494 54.5234 71.034C54.5247 65.4889 54.5247 59.9425 54.5234 54.3974C54.5234 54.1821 54.5259 53.9694 54.5952 53.7622C54.7375 53.3382 55.0356 53.1215 55.4278 53.1511C55.836 53.1821 56.1354 53.4311 56.1985 53.9089C56.2257 54.1202 56.2269 54.3368 56.2269 54.5508C56.2281 57.2884 56.2281 60.0246 56.2281 62.7622Z" fill="#0B3B79"/>
<path d="M49.4125 62.736C49.4125 65.5261 49.4137 68.3174 49.4113 71.1075C49.41 71.7764 49.2108 72.129 48.7915 72.2421C48.3016 72.374 47.8698 72.0913 47.7523 71.5409C47.7127 71.3524 47.7127 71.1505 47.7127 70.9554C47.7102 65.4641 47.7115 59.9715 47.7115 54.4803C47.7115 54.409 47.7103 54.3376 47.7115 54.2663C47.7276 53.5651 48.0727 53.1236 48.5898 53.1411C49.0921 53.1586 49.4088 53.5705 49.41 54.2582C49.4162 57.0833 49.4125 59.9096 49.4125 62.736Z" fill="#0B3B79"/>
<path d="M44.0408 34.6043C45.1406 34.6043 46.2416 34.5855 47.3414 34.6111C48.0997 34.6286 48.4981 35.3554 48.1393 36.0014C47.9587 36.3271 47.6717 36.4523 47.3488 36.4536C45.1319 36.4617 42.9151 36.4671 40.6994 36.4523C40.1192 36.4482 39.7704 36.0525 39.7815 35.5034C39.7914 34.9704 40.1217 34.6191 40.6932 34.6097C41.8079 34.5909 42.925 34.6043 44.0408 34.6043Z" fill="#0B3B79"/>
</g>
<defs>
<clipPath id="clip0_364_144845">
<rect width="46" height="55" fill="white" transform="translate(25 21)"/>
</clipPath>
</defs>
</svg>
