<svg width="96" height="96" viewBox="0 0 96 96" fill="none" xmlns="http://www.w3.org/2000/svg">
<circle cx="48" cy="48" r="48" fill="white"/>
<path d="M21.8711 21.9142C22.0437 21.8999 22.2018 21.8711 22.3744 21.8711C26.2571 21.8711 30.1398 21.8711 34.0081 21.8711C34.195 21.8711 34.3676 21.8711 34.5833 21.8711V25.1786H25.1929V34.4683H21.8711V21.9142Z" fill="#0B3B79"/>
<path d="M21.8711 61.3281H25.1929V70.6034H34.5689V73.8965C34.4251 73.8965 34.2957 73.9253 34.1663 73.9253C30.1829 73.9253 26.1996 73.9253 22.2162 73.9253C22.1012 73.9253 21.9861 73.8965 21.8711 73.8821V61.3281Z" fill="#0B3B79"/>
<path d="M48.0709 36.2527C51.5366 36.2958 54.5133 37.6763 57.1881 39.8477C59.8628 42.0192 61.9336 44.7083 63.7023 47.6275C63.7886 47.7713 63.803 48.0301 63.7167 48.1596C61.4159 51.9847 58.5686 55.3066 54.7146 57.6362C49.8972 60.541 45.1373 60.239 40.5213 57.1616C37.0412 54.8464 34.4096 51.7403 32.2814 48.1739C32.2094 48.0445 32.1807 47.8001 32.2526 47.6706C34.6397 43.7304 37.5014 40.2216 41.6286 37.9352C43.613 36.8279 45.7413 36.2527 48.0566 36.2383L48.0709 36.2527ZM36.0346 47.9151C37.8753 50.5179 39.9173 52.9051 42.6352 54.6019C45.9139 56.644 49.3076 56.9172 52.7302 55.0046C55.7788 53.3077 57.9646 50.7049 59.9922 47.9295C58.2234 45.4561 56.2965 43.1696 53.7655 41.4727C50.0698 38.9993 46.3165 38.8699 42.5345 41.2714C39.8598 42.9826 37.8609 45.341 36.0346 47.9007V47.9151Z" fill="#0B3B79"/>
<path d="M74.1275 21.9141V34.4825H70.8344V25.2072H61.4297V21.9284H74.1275V21.9141Z" fill="#0B3B79"/>
<path d="M61.4284 73.899V70.6347H70.79V61.3594H74.1119V73.899H61.4141H61.4284Z" fill="#0B3B79"/>
<path d="M22 49.6537V46.375H27.9247V49.6537H22Z" fill="#0B3B79"/>
<path d="M74.0263 46.3906V49.6693H68.1016V46.3906H74.0263Z" fill="#0B3B79"/>
<path d="M46.375 27.9272V22.0312H49.625V27.9272H46.375Z" fill="#0B3B79"/>
<path d="M46.3906 74.0119V68.1016H49.6262V74.0119H46.3906Z" fill="#0B3B79"/>
<path d="M48.0441 42.9378C50.7619 42.9522 53.0196 45.1811 53.0053 47.8558C53.0053 50.7319 50.8195 52.889 47.9434 52.8602C45.1536 52.8314 42.9966 50.6025 43.0397 47.7983C43.0828 45.1092 45.3406 42.909 48.0584 42.9378H48.0441ZM49.669 47.9278C49.669 46.9643 48.9356 46.2452 48.0009 46.2596C47.0662 46.274 46.3759 46.993 46.3759 47.9278C46.3759 48.8337 47.1237 49.5815 48.0297 49.5815C48.9356 49.5815 49.6834 48.8337 49.6834 47.9278H49.669Z" fill="#0B3B79"/>
</svg>
