<svg width="61" height="61" viewBox="0 0 61 61" fill="none" xmlns="http://www.w3.org/2000/svg">
<path d="M29.4131 60.0156C29.0812 59.8246 28.7196 59.6696 28.4221 59.4363C27.8022 58.9494 27.5078 58.2872 27.5094 57.495C27.5125 56.6402 27.5094 55.7839 27.5094 54.9369C15.8147 53.8755 6.3227 44.2144 5.1 32.4962C4.22642 32.4962 3.33718 32.5134 2.44951 32.4915C1.28473 32.4633 0.392366 31.7526 0.0902132 30.6551C-0.326225 29.1444 0.747748 27.6101 2.31017 27.5365C3.22289 27.4927 4.14031 27.5287 5.10783 27.5287C5.78258 21.6203 8.14501 16.5447 12.3172 12.3647C16.4941 8.17997 21.565 5.80502 27.5157 5.11774C27.5157 4.19719 27.4937 3.2829 27.5219 2.37175C27.5548 1.30717 28.2577 0.424195 29.2628 0.11578C30.293 -0.198897 31.4358 0.133001 31.9978 1.04885C32.2781 1.50443 32.4174 2.09308 32.4691 2.63476C32.5458 3.44416 32.4894 4.26607 32.4894 4.9831C45.2832 7.26098 52.7321 14.7256 55.0194 27.5162C55.5376 27.5162 56.1622 27.5616 56.7775 27.5068C58.3274 27.3674 59.4233 27.9451 60.0025 29.4199V30.5925C59.417 32.1048 58.2773 32.6402 56.7196 32.5056C56.1231 32.4539 55.5188 32.4978 55.0194 32.4978C52.7337 45.2884 45.2816 52.7451 32.4894 55.034C32.4894 55.7839 32.4879 56.6387 32.4894 57.4935C32.491 58.2622 32.217 58.9166 31.6205 59.3956C31.3106 59.6461 30.9333 59.8105 30.5857 60.014H29.4131V60.0156ZM49.7779 32.5354C48.1998 31.9952 47.4718 31.2375 47.5157 30.0289C47.5329 29.5639 47.7066 29.0708 47.9321 28.6559C48.3188 27.9467 49.0342 27.6555 49.7904 27.5162C48.7399 17.9976 40.61 10.94 32.5004 10.2402C32.0714 11.7025 31.3638 12.4414 30.1646 12.4868C28.6084 12.5463 27.8006 11.6148 27.4781 10.1995C17.9924 11.3377 11.0366 19.2344 10.2194 27.4802C11.7928 28.014 12.5254 28.7764 12.491 29.9866C12.4503 31.452 11.5658 32.2254 10.2053 32.5103C11.2589 42.0618 19.4436 49.0802 27.4969 49.7737C27.9117 48.3193 28.6288 47.5725 29.8311 47.5271C31.3904 47.4676 32.192 48.4038 32.516 49.816C42.0722 48.6622 48.9544 40.7263 49.7763 32.5338L49.7779 32.5354Z" fill="white"/>
<path d="M42.4976 29.6453C42.8014 36.4367 37.3329 42.2214 30.3348 42.5126C23.5873 42.7944 17.8323 37.376 17.5019 30.4328C17.1794 23.6304 22.6072 17.8316 29.6037 17.5091C36.4014 17.1944 42.1845 22.6378 42.4976 29.6437V29.6453Z" fill="white"/>
</svg>
