<svg width="56" height="70" viewBox="0 0 56 70" fill="none" xmlns="http://www.w3.org/2000/svg">
<g clip-path="url(#clip0_364_160847)">
<path d="M22.0283 64.5703C22.045 67.4053 19.6591 69.7644 16.7624 69.7761C13.8472 69.7878 11.4163 67.427 11.418 64.5853C11.4196 61.7771 13.8472 59.4012 16.7206 59.3945C19.6007 59.3879 22.0116 61.7387 22.0266 64.5703H22.0283ZM16.729 61.4148C14.9074 61.4164 13.4432 62.8256 13.4382 64.5803C13.4332 66.3284 14.8907 67.7592 16.7056 67.7876C18.4971 67.816 20.0398 66.3267 20.0314 64.577C20.0248 62.8323 18.5405 61.4131 16.7273 61.4148H16.729Z" fill="white"/>
<path d="M28.9846 65.527C28.9846 63.9542 28.9846 62.3815 28.9846 60.8087C28.9846 59.9055 29.3403 59.4079 29.9847 59.4062C30.6375 59.4062 30.9865 59.8854 30.9882 60.802C30.9898 63.3398 30.9948 65.8759 30.9815 68.4137C30.9815 68.7126 30.9498 69.0499 30.8128 69.3036C30.4522 69.9698 29.5857 69.9297 29.0815 69.2402C27.8777 67.594 26.6856 65.9411 25.4868 64.2915C25.3816 64.1462 25.2664 64.0093 25.0728 63.7639C25.0728 65.1397 25.0728 66.3835 25.0728 67.6274C25.0728 68.0047 25.0878 68.382 25.0661 68.7577C25.031 69.3754 24.617 69.7795 24.0577 69.7728C23.5167 69.7661 23.1093 69.3838 23.0926 68.7794C23.0642 67.7342 23.0776 66.689 23.0759 65.6422C23.0759 64.0644 23.0726 62.4883 23.0759 60.9106C23.0776 60.226 23.2896 59.8554 23.7421 59.7051C24.2313 59.5415 24.6353 59.7151 25.0444 60.2761C26.3233 62.0359 27.5989 63.7956 28.8761 65.5571L28.9813 65.527H28.9846Z" fill="white"/>
<path d="M40.5331 63.5929C41.3228 62.3874 42.0808 61.2287 42.8388 60.0717C43.3497 59.2937 43.8789 59.0883 44.4316 59.4506C44.9825 59.8129 45.0109 60.4006 44.5134 61.1636C43.5951 62.5694 42.6685 63.9685 41.7652 65.3827C41.6283 65.5981 41.5482 65.8819 41.5382 66.139C41.5098 66.9271 41.5365 67.7151 41.5248 68.5032C41.5148 69.1977 41.1208 69.6468 40.5397 69.6569C39.957 69.6669 39.5513 69.2311 39.533 68.5299C39.5146 67.7769 39.5547 67.0206 39.5146 66.2676C39.4979 65.9453 39.4078 65.5881 39.2358 65.3193C38.3041 63.8617 37.3308 62.4308 36.3824 60.985C35.9817 60.3722 36.0652 59.7779 36.5678 59.4489C37.072 59.1184 37.633 59.277 38.0504 59.8947C38.7766 60.975 39.4896 62.0635 40.2108 63.1471C40.3027 63.2857 40.4045 63.4176 40.5297 63.5895L40.5331 63.5929Z" fill="white"/>
<path d="M34.1176 67.6797C35.1377 67.6797 36.0927 67.6646 37.0494 67.6847C37.6939 67.698 38.123 68.1405 38.0979 68.7048C38.0762 69.2174 37.6855 69.6414 37.1296 69.6515C35.7939 69.6765 34.4565 69.6748 33.1209 69.6548C32.5465 69.6465 32.2226 69.3059 32.1341 68.7315C32.1191 68.6297 32.1091 68.5278 32.1091 68.4243C32.1091 65.7847 32.0991 63.1467 32.1124 60.5071C32.1174 59.5537 32.8537 59.0178 33.5767 59.4118C34.0274 59.6572 34.1209 60.078 34.1209 60.5488C34.1176 62.7076 34.1209 64.8664 34.1209 67.0269C34.1209 67.2139 34.1209 67.4008 34.1209 67.6797H34.1176Z" fill="white"/>
<path d="M27.9858 48.0106C19.1737 48.0106 10.3615 48.0106 1.54939 48.0106C0.258788 48.0106 0.0016696 47.7585 0.0016696 46.4963C0 34.8258 0 23.157 0 11.4898C0 10.266 0.267136 10.0039 1.51433 10.0039C19.1803 10.0039 36.8464 10.0039 54.5124 10.0039C55.7345 10.0039 56 10.2727 56 11.5182C56 23.1871 56 34.8559 56 46.523C56 47.7452 55.7295 48.0106 54.4857 48.0106C45.6518 48.0106 36.8197 48.0106 27.9858 48.0106ZM14.0013 29.0006C13.9245 30.5216 14.3585 31.9157 15.3186 33.1546C15.4755 33.3582 15.5556 33.6354 15.6241 33.8909C16.4172 36.8444 17.7929 39.464 20.0035 41.6127C24.5982 46.0789 31.1714 46.1424 35.8429 41.7613C38.142 39.6042 39.5478 36.9312 40.3759 33.9192C40.4661 33.5903 40.6147 33.2497 40.8233 32.9826C42.4312 30.9223 42.4312 27.0572 40.8016 25.0036C40.603 24.7548 40.4644 24.4326 40.3809 24.122C39.6212 21.3204 38.3457 18.806 36.3104 16.709C31.6105 11.8638 24.7668 11.762 19.9367 16.4719C17.7612 18.594 16.4222 21.1902 15.6308 24.097C15.5607 24.3524 15.4939 24.6363 15.3369 24.8383C14.3886 26.0554 13.9411 27.4245 14.0029 29.0023L14.0013 29.0006ZM11.971 12.0475H6.05062V13.9725H11.971V12.0475ZM11.971 16.0479H6.05062V17.9729H11.971V16.0479ZM6.02892 21.9632H11.9493V20.0365H6.02892V21.9632ZM48.021 37.9597H53.9648V36.0463H48.021V37.9597ZM48.026 41.9667H53.9464V40.0433H48.026V41.9667ZM48.026 45.9671H53.9464V44.0437H48.026V45.9671ZM3.95862 13.9742V12.0508H2.03023V13.9742H3.95695H3.95862ZM3.95194 17.9812V16.0362H2.03691V17.9812H3.95194ZM3.9486 21.9916V20.0465H2.04693V21.9916H3.94693H3.9486ZM44.0306 37.9663H45.954V36.038H44.0306V37.9663ZM45.9691 41.9834V40.0467H44.0423V41.9834H45.9691ZM45.9741 44.0403H44.0373V45.9671H45.9741V44.0403Z" fill="white"/>
<path d="M11.9978 50.0385H13.9979C13.9979 50.9568 13.9946 51.8467 13.9979 52.7349C14.003 53.6682 14.3435 54.0071 15.2852 54.0071C23.7601 54.0088 32.2366 54.0088 40.7115 54.0071C41.6515 54.0071 41.9904 53.6649 41.9954 52.7282C42.0004 51.855 41.9954 50.9801 41.9954 50.0569H43.9522C43.9656 50.1787 43.9923 50.3173 43.9939 50.4542C43.9973 51.8918 44.0006 53.3293 43.9939 54.7651C43.9906 55.655 43.6367 55.9973 42.7367 56.0073C42.6533 56.0073 42.5698 56.0073 42.4863 56.0073C32.8243 56.0073 23.1607 56.0073 13.4987 56.0073C12.2649 56.0073 11.9961 55.7402 11.9961 54.5097C11.9961 53.0338 11.9961 51.5595 11.9961 50.0352L11.9978 50.0385Z" fill="white"/>
<path d="M43.9946 7.98699H42.0011C42.0011 7.16388 42.0011 6.34076 42.0011 5.51932C42.0011 4.27213 41.7374 4.00166 40.5169 4.00166C32.1622 4.00166 23.8092 4.00166 15.4545 4.00166C14.2741 4.00166 14.002 4.28048 14.002 5.48593C14.002 6.29568 14.002 7.10544 14.002 7.9586H12.0018C12.0018 7.37591 12.0018 6.79823 12.0018 6.22222C12.0018 4.55596 11.9968 2.88803 12.0035 1.22178C12.0068 0.361932 12.3608 0.00964657 13.2173 0.00296818C14.1305 -0.00371022 15.0438 0.00296818 15.9471 0.00296818C16.3428 2.15675 17.3646 3.00324 19.515 3.00324C25.2234 3.00324 30.9317 3.00324 36.6401 3.00324C38.6319 3.00324 39.7388 2.04489 40.0327 0.0146554C41.0562 0.0146554 42.093 -0.0187366 43.1248 0.0280122C43.6374 0.0513865 43.9813 0.423707 43.9863 0.941283C44.008 3.27037 43.9963 5.60113 43.9963 7.98866L43.9946 7.98699ZM41.0528 1.01474V2.95983H42.9528V1.01474H41.0528Z" fill="white"/>
<path d="M39.9733 6.04688V7.96858H16.0312V6.04688H39.9733Z" fill="white"/>
<path d="M16.0312 51.9674V50.0391H39.9516V51.9674H16.0312Z" fill="white"/>
<path d="M18.0234 0.0195312H37.9618C37.9334 0.625595 37.6045 0.921114 37.0552 0.992907C36.7881 1.02797 36.5142 1.00459 36.2438 1.00459C30.6039 1.00459 24.964 1.00459 19.3241 1.00459C18.4509 1.00459 18.2054 0.824278 18.0234 0.0212008V0.0195312Z" fill="white"/>
<path d="M40 29.0541C40.0685 30.2362 39.7262 31.2546 38.8981 32.1295C38.676 32.3649 38.5909 32.7556 38.5091 33.0912C37.9197 35.472 36.8979 37.6292 35.2734 39.4874C31.2146 44.1322 24.9219 44.174 20.8063 39.5776C19.1451 37.7227 18.1199 35.5455 17.4905 33.1513C17.3703 32.6922 17.1482 32.208 16.836 31.859C15.6923 30.5818 15.694 27.4546 16.8176 26.1741C17.1399 25.8067 17.3669 25.3042 17.4955 24.825C18.1633 22.3306 19.2419 20.0617 21.0417 18.18C25.1606 13.8758 31.1194 13.9559 35.1298 18.362C36.8211 20.2203 37.8562 22.4175 38.5024 24.8267C38.6309 25.3059 38.883 25.7784 39.1786 26.1791C39.7412 26.9387 39.9967 27.6867 40 29.0524V29.0541Z" fill="white"/>
</g>
<defs>
<clipPath id="clip0_364_160847">
<rect width="56" height="69.7775" fill="white"/>
</clipPath>
</defs>
</svg>
