<svg width="180" height="180" viewBox="0 0 180 180" fill="none" xmlns="http://www.w3.org/2000/svg">
<circle cx="90" cy="90" r="85" stroke="white" stroke-width="10"/>
<path d="M83.6368 119.522C81.3726 119.552 79.4229 119.991 77.5077 120.937C72.6163 123.351 69.7919 128.434 69.7919 134.839C69.7919 141.259 72.5704 146.191 77.4786 148.499C78.8045 149.122 80.1336 149.461 82.1514 149.699C83.1725 149.74 84.1277 149.812 85.1222 149.699C87.14 149.461 88.4691 149.122 89.795 148.499C94.7036 146.191 97.4821 141.259 97.4821 134.839C97.4821 128.434 94.6573 123.351 89.7663 120.937C87.8507 119.991 85.9014 119.552 83.6368 119.522ZM85.584 124.037C88.5208 124.812 90.6517 127.438 91.4679 131.267C92.042 133.956 91.8853 137.064 91.0643 139.512C89.7856 143.323 87.01 145.476 83.6368 145.441C80.2636 145.476 77.488 143.323 76.2097 139.512C75.3895 137.064 75.2324 133.956 75.8057 131.267C76.6223 127.438 78.7532 124.812 81.69 124.037C83.0216 123.758 84.3483 123.808 85.584 124.037ZM64.1352 119.522C63.5545 119.522 62.9869 119.692 62.5041 120.012C62.0212 120.332 61.6449 120.786 61.4227 121.318C61.2005 121.849 61.1423 122.434 61.2556 122.998C61.3689 123.562 61.6485 124.081 62.0591 124.487C62.4698 124.894 62.9929 125.171 63.5624 125.284C64.1319 125.396 64.7223 125.338 65.2588 125.118C65.7952 124.898 66.2538 124.525 66.5764 124.047C66.899 123.568 67.0712 123.006 67.0712 122.431C67.0712 121.659 66.7619 120.919 66.2113 120.374C65.6607 119.828 64.9139 119.522 64.1352 119.522ZM61.392 128.397V149.76H66.8784V128.397H61.392ZM105.46 149.715C103.109 149.316 100.848 149.007 98.9286 147.927C98.9032 147.905 100.062 143.616 100.114 143.539C103.199 144.577 107.541 146.032 110.469 144.699C112.065 143.907 112.851 142.445 112.587 140.757C112.29 138.86 110.964 137.767 107.324 136.419C103.264 134.915 100.885 133.067 99.9112 130.664C99.4326 129.482 99.2743 127.978 99.4892 126.664C100.088 123.009 102.962 120.467 107.372 119.69C108.649 119.465 111.382 119.463 112.726 119.685C114.664 120.006 116.886 120.732 116.886 121.044C116.886 121.159 115.751 125.125 115.692 125.213C113.777 124.461 111.628 123.924 109.81 123.912C107.238 123.88 104.449 125.393 104.941 128.065C105.289 129.74 106.368 130.557 110.338 132.155C113.262 133.334 114.665 134.146 115.867 135.355C117.539 137.009 118.067 138.948 118.079 140.871C118.084 142.472 117.933 143.22 117.356 144.456C115.955 147.459 113.106 149.2 108.808 149.679C108.004 149.768 106.11 149.788 105.462 149.715H105.46Z" fill="white"/>
<g clip-path="url(#clip0_364_159482)">
<path d="M110.248 68.4211C110.216 62.5015 112.889 58.0336 118.301 54.7431C115.273 50.4043 110.699 48.0171 104.66 47.5493C98.9426 47.0977 92.694 50.8881 90.4071 50.8881C87.9914 50.8881 82.4513 47.7106 78.103 47.7106C69.1165 47.8558 59.5664 54.8883 59.5664 69.1953C59.5664 73.4213 60.3394 77.787 61.8855 82.2926C63.9469 88.2122 71.3873 102.729 79.1498 102.487C83.2082 102.39 86.0749 99.5997 91.3573 99.5997C96.4786 99.5997 99.1359 102.487 103.661 102.487C111.488 102.374 118.22 89.1799 120.185 83.2442C109.685 78.2924 110.248 68.7275 110.248 68.4211ZM101.133 41.9362C105.529 36.7102 105.127 31.9519 104.998 30.2422C101.117 30.468 96.6235 32.8875 94.0629 35.8714C91.2445 39.0651 89.5857 43.0169 89.94 47.4687C94.1434 47.7913 97.9763 45.6299 101.133 41.9362Z" fill="white"/>
</g>
<defs>
<clipPath id="clip0_364_159482">
<rect width="64.5584" height="72.4867" fill="white" transform="translate(57.5977 30.2422)"/>
</clipPath>
</defs>
</svg>
