<svg width="48" height="49" viewBox="0 0 48 49" fill="none" xmlns="http://www.w3.org/2000/svg">
<path d="M21.6133 33.6144C21.6133 29.7403 21.6577 25.8661 21.5943 21.9933C21.5638 20.1241 22.8531 19.1711 24.3873 19.1812C30.5443 19.2231 36.7013 19.199 42.8583 19.199C44.6476 19.199 45.6133 20.1533 45.6133 21.9285C45.6145 29.7073 45.6145 37.4873 45.6133 45.2661C45.6133 47.0566 44.6615 48.007 42.8748 48.007C36.6861 48.007 30.4973 48.007 24.3086 48.007C22.5676 48.007 21.6146 47.0629 21.6133 45.3308C21.6108 41.4249 21.6133 37.5203 21.6133 33.6144Z" fill="white"/>
<path d="M14.3893 0.00373781C17.5223 0.00373781 20.6567 0.00246885 23.7898 0.00373781C25.4052 0.00373781 26.3924 0.970689 26.3949 2.5772C26.4026 6.12015 26.3988 9.6631 26.3949 13.206C26.3949 14.0778 26.0726 14.3963 25.1907 14.3951C23.9776 14.3925 22.7733 14.3976 21.6033 14.8151C18.7723 15.8265 16.8485 18.4634 16.8155 21.4695C16.794 23.5012 16.8117 25.5315 16.8079 27.5631C16.8079 28.4679 16.4602 28.8092 15.544 28.8105C12.0328 28.8105 8.52157 28.8131 5.01034 28.8105C3.41272 28.8092 2.39881 27.8156 2.39754 26.2244C2.39247 18.3517 2.39247 10.4778 2.39754 2.60512C2.40008 0.980841 3.4013 0.00500678 5.03699 0.00373781C8.15484 0.00246885 11.2727 0.00373781 14.3905 0.00373781H14.3893Z" fill="white"/>
<path d="M40.7908 10.437C40.5903 10.2974 40.4304 10.2162 40.3086 10.0956C38.3239 8.1186 36.3354 6.14536 34.366 4.15308C33.1351 2.90823 33.4523 0.960364 34.9789 0.235785C35.9294 -0.214697 36.9826 -0.0142008 37.7884 0.790323C39.7718 2.76864 41.7488 4.7533 43.7284 6.73543C43.8477 6.85598 43.9733 6.97018 44.1307 7.11865C44.7449 6.4994 45.3489 5.90425 45.9352 5.29388C46.3146 4.89796 46.7346 4.68224 47.2828 4.88781C47.7802 5.07435 47.9972 5.46012 47.9985 6.14155C47.9998 8.43965 48.001 10.7365 47.9985 13.0346C47.9985 13.9761 47.5924 14.3886 46.6509 14.3898C44.3375 14.3949 42.0242 14.386 39.7109 14.3949C39.1576 14.3974 38.7109 14.2375 38.4863 13.7033C38.2592 13.164 38.4673 12.7313 38.8619 12.3481C39.471 11.7567 40.0687 11.154 40.7895 10.437H40.7908Z" fill="white"/>
<path d="M3.92113 40.8381C3.25239 41.5157 2.65217 42.1159 2.06337 42.7263C1.68268 43.1222 1.25377 43.329 0.710652 43.1095C0.1485 42.8811 -0.00250661 42.4217 3.1318e-05 41.852C0.010183 39.5539 0.00383821 37.2558 0.00510718 34.9577C0.00510718 34.0123 0.402293 33.6151 1.35782 33.6126C3.65592 33.6088 5.95402 33.6177 8.25211 33.6062C8.82188 33.6037 9.29266 33.7471 9.51727 34.308C9.74188 34.8676 9.50585 35.3054 9.09597 35.6962C8.49321 36.2711 7.91076 36.8662 7.1773 37.5933C7.36257 37.6986 7.54276 37.757 7.66331 37.8763C9.6632 39.861 11.6618 41.8469 13.6452 43.8481C14.9586 45.1729 14.4853 47.3123 12.7633 47.8669C11.7849 48.1816 10.936 47.9265 10.2165 47.207C8.24577 45.2376 6.27633 43.2681 4.30817 41.2949C4.18635 41.1731 4.08483 41.0309 3.92113 40.8355V40.8381Z" fill="white"/>
</svg>
