<svg width="44" height="67" viewBox="0 0 44 67" fill="none" xmlns="http://www.w3.org/2000/svg">
<path d="M14.4619 66.3271C13.0687 65.6106 12.7745 64.9737 13.1501 63.4542C15.239 55.0242 17.3296 46.5942 19.4185 38.1642C19.4687 37.96 19.5085 37.7523 19.5725 37.4547C19.2506 37.4547 19.0014 37.4547 18.7505 37.4547C13.2678 37.4547 7.78334 37.4045 2.30238 37.4858C0.682498 37.5101 -0.502995 36.2415 0.213493 34.4139C4.48473 23.497 8.69194 12.5576 12.9216 1.62508C13.4131 0.356513 13.9375 0 15.3169 0C21.0159 0 26.7149 0 32.4139 0C34.3038 0 35.1622 1.30491 34.4007 3.03383C32.0055 8.47844 29.6033 13.9196 27.2064 19.3625C27.0974 19.6117 26.9987 19.8644 26.8637 20.1915C27.1908 20.1915 27.4227 20.1915 27.6546 20.1915C32.3828 20.1915 37.1092 20.1897 41.8373 20.1915C42.9813 20.1915 43.7272 20.7366 43.9539 21.711C44.1079 22.3738 43.8552 22.9293 43.5056 23.4728C40.5064 28.1351 37.5141 32.801 34.5184 37.4651C28.6325 46.6306 22.7413 55.7926 16.8641 64.9633C16.4798 65.5621 16.042 66.0588 15.3722 66.3236H14.4654L14.4619 66.3271Z" fill="white"/>
</svg>
