<svg width="56" height="63" viewBox="0 0 56 63" fill="none" xmlns="http://www.w3.org/2000/svg">
<path d="M28.4953 62.6754H27.5164C26.6333 62.3708 25.7434 62.0867 24.874 61.7547C18.9389 59.4991 13.7842 56.066 9.4407 51.4316C6.5108 48.3031 4.11828 44.8393 2.74574 40.7251C1.2671 36.3029 0.524356 31.7437 0.206037 27.1127C-0.208119 21.1091 0.02463 15.1159 0.702341 9.13968C0.84952 7.83902 1.34582 7.28111 2.62594 6.92514C10.755 4.66611 18.8876 2.41392 27.0167 0.14119C27.691 -0.0470632 28.3208 -0.0470632 28.995 0.14119C37.1242 2.41049 45.2567 4.66611 53.3858 6.92514C54.683 7.28453 55.1656 7.85614 55.3162 9.20129C55.8468 13.935 56.0898 18.679 55.97 23.4435C55.857 28.0026 55.4086 32.5207 54.3442 36.9669C53.5706 40.198 52.5404 43.3367 50.7092 46.1331C46.2082 53.006 40.0985 57.9725 32.5547 61.1796C31.2301 61.7444 29.8507 62.1825 28.4953 62.6788V62.6754ZM25.5962 31.997C25.3737 31.6992 25.2574 31.5007 25.0999 31.3433C22.9812 29.2177 20.8625 27.0922 18.7336 24.9769C17.6622 23.9124 16.5361 23.9158 15.4614 24.97C14.8487 25.569 14.2394 26.1749 13.6439 26.791C12.6787 27.7938 12.6787 28.9302 13.6678 29.9228C17.1283 33.3935 20.5921 36.8608 24.0628 40.3178C25.028 41.2796 26.1952 41.2899 27.1536 40.3349C32.8354 34.6668 38.507 28.9918 44.1751 23.31C45.1061 22.379 45.0958 21.2153 44.1922 20.2603C43.7986 19.8461 43.3639 19.4696 42.984 19.0418C41.3034 17.1456 40.2012 17.1935 38.3906 19.0486C34.3585 23.1868 30.2341 27.2359 26.1473 31.3227C25.9898 31.4802 25.8598 31.6684 25.5928 31.997H25.5962Z" fill="white"/>
</svg>
