<svg width="40" height="45" viewBox="0 0 40 45" fill="none" xmlns="http://www.w3.org/2000/svg">
<path d="M20.3538 44.7681H19.6546C19.0238 44.5505 18.3881 44.3476 17.7672 44.1105C13.5278 42.4993 9.84586 40.0471 6.74336 36.7368C4.65057 34.5022 2.94163 32.0281 1.96124 29.0894C0.905071 25.9306 0.37454 22.6741 0.14717 19.3662C-0.148656 15.078 0.0175929 10.797 0.501672 6.52834C0.6068 5.5993 0.961303 5.20079 1.87567 4.94653C7.68218 3.33293 13.4911 1.72423 19.2976 0.10085C19.7793 -0.0336166 20.2291 -0.0336166 20.7107 0.10085C26.5173 1.72178 32.3262 3.33293 38.1327 4.94653C39.0593 5.20324 39.404 5.61153 39.5116 6.57235C39.8905 9.95357 40.0641 13.3421 39.9786 16.7453C39.8979 20.0019 39.5776 23.2291 38.8173 26.4049C38.2647 28.7129 37.5288 30.9548 36.2208 32.9522C33.0059 37.8615 28.6418 41.4089 23.2534 43.6997C22.3072 44.1031 21.322 44.4161 20.3538 44.7706V44.7681ZM18.283 22.855C18.1241 22.6423 18.041 22.5005 17.9285 22.388C16.4152 20.8698 14.9018 19.3515 13.3811 17.8406C12.6159 17.0803 11.8115 17.0827 11.0438 17.8357C10.6062 18.2636 10.171 18.6963 9.74563 19.1364C9.05618 19.8527 9.05618 20.6644 9.76274 21.3734C12.2345 23.8525 14.7087 26.3291 17.1877 28.7984C17.8772 29.4854 18.7109 29.4928 19.3954 28.8106C23.4539 24.762 27.505 20.7084 31.5536 16.65C32.2186 15.985 32.2113 15.1538 31.5659 14.4716C31.2847 14.1758 30.9742 13.9069 30.7028 13.6013C29.5024 12.2468 28.7152 12.2811 27.4218 13.6062C24.5418 16.562 21.5958 19.4542 18.6766 22.3734C18.5642 22.4858 18.4713 22.6203 18.2806 22.855H18.283Z" fill="white"/>
</svg>
