<svg width="40" height="50" viewBox="0 0 40 50" fill="none" xmlns="http://www.w3.org/2000/svg">
<g clip-path="url(#clip0_492_114)">
<path d="M15.7345 46.1215C15.7464 48.1465 14.0422 49.8316 11.9731 49.84C9.89089 49.8483 8.15451 48.162 8.1557 46.1323C8.15689 44.1264 9.89089 42.4293 11.9433 42.4246C14.0005 42.4198 15.7226 44.0989 15.7333 46.1215H15.7345ZM11.9493 43.8676C10.6482 43.8688 9.60229 44.8753 9.59871 46.1287C9.59513 47.3773 10.6362 48.3993 11.9326 48.4196C13.2122 48.4399 14.3141 47.3761 14.3082 46.1263C14.3034 44.8801 13.2432 43.8664 11.9481 43.8676H11.9493Z" fill="white"/>
<path d="M20.7033 46.8051C20.7033 45.6817 20.7033 44.5583 20.7033 43.4349C20.7033 42.7897 20.9573 42.4343 21.4176 42.4331C21.8839 42.4331 22.1332 42.7754 22.1344 43.4301C22.1356 45.2428 22.1391 47.0543 22.1296 48.867C22.1296 49.0805 22.107 49.3214 22.0092 49.5027C21.7516 49.9785 21.1326 49.9499 20.7725 49.4573C19.9126 48.2815 19.0611 47.1008 18.2049 45.9226C18.1297 45.8188 18.0474 45.721 17.9091 45.5457C17.9091 46.5284 17.9091 47.4169 17.9091 48.3053C17.9091 48.5748 17.9198 48.8444 17.9043 49.1127C17.8793 49.5539 17.5835 49.8425 17.184 49.8378C16.7976 49.833 16.5066 49.5599 16.4947 49.1282C16.4744 48.3816 16.484 47.6351 16.4828 46.8874C16.4828 45.7604 16.4804 44.6346 16.4828 43.5076C16.484 43.0187 16.6354 42.7539 16.9586 42.6466C17.308 42.5297 17.5966 42.6537 17.8888 43.0544C18.8023 44.3114 19.7135 45.5684 20.6258 46.8265L20.7009 46.8051H20.7033Z" fill="white"/>
<path d="M28.9522 45.4236C29.5162 44.5626 30.0577 43.7349 30.5991 42.9085C30.964 42.3527 31.3421 42.206 31.7368 42.4648C32.1304 42.7236 32.1506 43.1434 31.7952 43.6884C31.1393 44.6925 30.4775 45.6919 29.8323 46.702C29.7345 46.8559 29.6772 47.0586 29.6701 47.2423C29.6498 47.8052 29.6689 48.368 29.6605 48.9309C29.6534 49.427 29.3719 49.7479 28.9569 49.755C28.5407 49.7622 28.2509 49.4509 28.2378 48.95C28.2247 48.4122 28.2533 47.8719 28.2247 47.3341C28.2128 47.1039 28.1484 46.8487 28.0255 46.6567C27.3601 45.6156 26.6648 44.5936 25.9874 43.5608C25.7012 43.1231 25.7608 42.6986 26.1198 42.4636C26.48 42.2275 26.8807 42.3408 27.1788 42.782C27.6976 43.5536 28.2068 44.3312 28.722 45.1052C28.7876 45.2042 28.8603 45.2984 28.9498 45.4212L28.9522 45.4236Z" fill="white"/>
<path d="M24.3697 48.3426C25.0984 48.3426 25.7805 48.3319 26.4639 48.3462C26.9242 48.3557 27.2307 48.6718 27.2128 49.0749C27.1973 49.441 26.9183 49.7439 26.5211 49.751C25.5671 49.7689 24.6118 49.7677 23.6578 49.7534C23.2475 49.7475 23.0162 49.5042 22.953 49.0939C22.9422 49.0212 22.9351 48.9484 22.9351 48.8745C22.9351 46.9891 22.9279 45.1048 22.9375 43.2193C22.941 42.5384 23.467 42.1556 23.9833 42.437C24.3053 42.6123 24.3721 42.9128 24.3721 43.2492C24.3697 44.7911 24.3721 46.3331 24.3721 47.8763C24.3721 48.0099 24.3721 48.1435 24.3721 48.3426H24.3697Z" fill="white"/>
<path d="M19.9899 34.2932C13.6955 34.2932 7.40109 34.2932 1.10671 34.2932C0.184848 34.2932 0.00119257 34.1131 0.00119257 33.2115C0 24.8754 0 16.5406 0 8.2069C0 7.33274 0.190811 7.14551 1.08166 7.14551C13.7002 7.14551 26.3188 7.14551 38.9374 7.14551C39.8104 7.14551 40 7.33751 40 8.22717C40 16.562 40 24.8969 40 33.2306C40 34.1036 39.8068 34.2932 38.9183 34.2932C32.6084 34.2932 26.2998 34.2932 19.9899 34.2932ZM10.0009 20.7146C9.94604 21.801 10.2561 22.7968 10.9418 23.6817C11.0539 23.8272 11.1112 24.0251 11.1601 24.2076C11.7265 26.3173 12.7092 28.1884 14.2882 29.7232C17.5701 32.9134 22.2653 32.9587 25.6021 29.8294C27.2443 28.2886 28.2484 26.3793 28.8399 24.2279C28.9043 23.9929 29.0105 23.7497 29.1595 23.5589C30.308 22.0872 30.308 19.3264 29.144 17.8596C29.0021 17.6819 28.9031 17.4517 28.8435 17.2299C28.3009 15.2287 27.3898 13.4327 25.936 11.9349C22.5789 8.47403 17.6906 8.40128 14.2405 11.7655C12.6866 13.2813 11.7301 15.1357 11.1648 17.212C11.1148 17.3945 11.0671 17.5972 10.955 17.7415C10.2776 18.6109 9.95796 19.5888 10.0021 20.7158L10.0009 20.7146ZM8.55073 8.60521H4.32187V9.98025H8.55073V8.60521ZM8.55073 11.4626H4.32187V12.8376H8.55073V11.4626ZM4.30637 15.6879H8.53522V14.3117H4.30637V15.6879ZM34.3007 27.1139H38.5463V25.7472H34.3007V27.1139ZM34.3043 29.9761H38.5331V28.6022H34.3043V29.9761ZM34.3043 32.8335H38.5331V31.4596H34.3043V32.8335ZM2.82758 9.98144V8.6076H1.45017V9.98144H2.82639H2.82758ZM2.82281 12.8436V11.4543H1.45494V12.8436H2.82281ZM2.82043 15.7082V14.3188H1.46209V15.7082H2.81924H2.82043ZM31.4505 27.1187H32.8243V25.7413H31.4505V27.1187ZM32.835 29.988V28.6046H31.4588V29.988H32.835ZM32.8386 31.4572H31.4552V32.8335H32.8386V31.4572Z" fill="white"/>
<path d="M8.56986 35.7419H9.99856C9.99856 36.3978 9.99617 37.0334 9.99856 37.6679C10.0021 38.3345 10.2454 38.5766 10.918 38.5766C16.9715 38.5778 23.0262 38.5778 29.0797 38.5766C29.7511 38.5766 29.9932 38.3322 29.9968 37.6631C30.0003 37.0394 29.9968 36.4145 29.9968 35.755H31.3945C31.404 35.8421 31.4231 35.941 31.4243 36.0388C31.4267 37.0656 31.429 38.0924 31.4243 39.1181C31.4219 39.7537 31.1691 39.9982 30.5263 40.0053C30.4666 40.0053 30.407 40.0053 30.3474 40.0053C23.446 40.0053 16.5434 40.0053 9.64198 40.0053C8.76067 40.0053 8.56866 39.8145 8.56866 38.9356C8.56866 37.8814 8.56866 36.8283 8.56866 35.7395L8.56986 35.7419Z" fill="white"/>
<path d="M31.4247 5.70499H30.0008C30.0008 5.11705 30.0008 4.52912 30.0008 3.94237C30.0008 3.05152 29.8124 2.85833 28.9406 2.85833C22.973 2.85833 17.0066 2.85833 11.0389 2.85833C10.1958 2.85833 10.0014 3.05749 10.0014 3.91852C10.0014 4.49692 10.0014 5.07531 10.0014 5.68472H8.5727C8.5727 5.26851 8.5727 4.85588 8.5727 4.44444C8.5727 3.25426 8.56912 2.06288 8.57389 0.872697C8.57628 0.258523 8.8291 0.00689041 9.44089 0.00212013C10.0932 -0.00265016 10.7456 0.00212013 11.3907 0.00212013C11.6734 1.54054 12.4032 2.14517 13.9393 2.14517C18.0167 2.14517 22.0941 2.14517 26.1715 2.14517C27.5942 2.14517 28.3849 1.46063 28.5948 0.0104681C29.3258 0.0104681 30.0664 -0.0133833 30.8034 0.0200087C31.1695 0.0367047 31.4152 0.302648 31.4188 0.672345C31.4343 2.33598 31.4259 4.00081 31.4259 5.70618L31.4247 5.70499ZM29.3234 0.724818V2.11416H30.6806V0.724818H29.3234Z" fill="white"/>
<path d="M28.5523 4.31909V5.69174H11.4509V4.31909H28.5523Z" fill="white"/>
<path d="M11.4509 37.1196V35.7422H28.5368V37.1196H11.4509Z" fill="white"/>
<path d="M12.8739 0.013916H27.1156C27.0953 0.446819 26.8604 0.657904 26.468 0.709184C26.2772 0.734228 26.0816 0.717532 25.8884 0.717532C21.8599 0.717532 17.8314 0.717532 13.8029 0.717532C13.1792 0.717532 13.0039 0.588735 12.8739 0.0151086V0.013916Z" fill="white"/>
<path d="M28.5714 20.7529C28.6203 21.5972 28.3758 22.3247 27.7843 22.9496C27.6257 23.1178 27.5649 23.3968 27.5064 23.6365C27.0855 25.3371 26.3556 26.8779 25.1952 28.2053C22.2961 31.523 17.8013 31.5528 14.8616 28.2697C13.675 26.9447 12.9428 25.3896 12.4932 23.6795C12.4073 23.3515 12.2487 23.0057 12.0257 22.7564C11.2088 21.8441 11.21 19.6104 12.0126 18.6957C12.2427 18.4333 12.4049 18.0744 12.4968 17.7321C12.9738 15.9504 13.7442 14.3297 15.0298 12.9857C17.9718 9.91124 22.2281 9.96849 25.0927 13.1157C26.3008 14.443 27.0401 16.0124 27.5017 17.7333C27.5935 18.0756 27.7736 18.4131 27.9847 18.6993C28.3866 19.2419 28.569 19.7762 28.5714 20.7517V20.7529Z" fill="white"/>
</g>
<defs>
<clipPath id="clip0_492_114">
<rect width="40" height="49.8411" fill="white"/>
</clipPath>
</defs>
</svg>
