<svg width="180" height="180" viewBox="0 0 180 180" fill="none" xmlns="http://www.w3.org/2000/svg">
<circle cx="90" cy="90" r="85" stroke="white" stroke-width="10"/>
<path d="M43.5474 124.22C40.7203 124.22 38.8179 126.439 38.8179 129.293C38.8179 132.147 40.7203 134.366 43.5474 134.366C46.3746 134.366 48.277 132.147 48.277 129.293C48.2506 126.439 46.3482 124.22 43.5474 124.22ZM42.9133 121.076C45.1856 121.076 47.088 122.238 47.9863 123.507V121.393H51.474V137.22H48.779C48.569 137.219 48.3677 137.135 48.2192 136.987C48.0707 136.838 47.987 136.637 47.9863 136.427V135.106C47.088 136.374 45.212 137.537 42.9133 137.537C38.5801 137.537 35.2773 133.838 35.2773 129.319C35.2773 124.801 38.5537 121.076 42.9133 121.076ZM55.4373 121.393H58.925V123.533C59.8762 121.948 61.6729 121.076 63.7339 121.076C67.4065 121.076 69.7845 123.665 69.7845 127.681V137.22H67.1159C66.9058 137.219 66.7046 137.135 66.5561 136.987C66.4076 136.838 66.3238 136.637 66.3232 136.427V128.263C66.3232 125.752 65.055 124.246 63.0205 124.246C60.7217 124.246 58.925 126.043 58.925 129.425V137.22H56.2564C56.0464 137.219 55.8451 137.135 55.6966 136.987C55.5481 136.838 55.4644 136.637 55.4638 136.427L55.4373 121.393ZM80.7761 124.22C77.9489 124.22 76.0465 126.439 76.0465 129.293C76.0465 132.147 77.9489 134.366 80.7761 134.366C83.6032 134.366 85.5056 132.147 85.5056 129.293C85.5056 126.439 83.6032 124.22 80.7761 124.22ZM80.1419 121.076C82.4142 121.076 84.3166 122.238 85.215 123.507V113.466H88.7027V137.22H86.034C85.824 137.219 85.6228 137.135 85.4742 136.987C85.3257 136.838 85.242 136.637 85.2414 136.427V135.106C84.343 136.374 82.4671 137.537 80.1684 137.537C75.8351 137.537 72.5324 133.838 72.5324 129.319C72.5324 124.801 75.8087 121.076 80.1419 121.076ZM92.666 121.393H96.1537V124.22C96.46 123.355 97.0246 122.604 97.7713 122.07C98.5179 121.536 99.4105 121.245 100.328 121.234C100.781 121.226 101.233 121.27 101.676 121.366V124.933C101.114 124.745 100.525 124.647 99.932 124.643C97.9504 124.643 96.1273 126.334 96.1273 129.478V137.193H93.4586C93.2486 137.193 93.0473 137.109 92.8988 136.96C92.7503 136.812 92.6666 136.611 92.666 136.401V121.393ZM111.056 134.287C113.83 134.287 115.812 132.094 115.812 129.293C115.812 126.466 113.856 124.299 111.056 124.299C108.229 124.299 106.273 126.492 106.273 129.293C106.3 132.12 108.229 134.287 111.056 134.287ZM111.056 137.537C109.43 137.524 107.845 137.03 106.5 136.117C105.154 135.204 104.11 133.913 103.497 132.407C102.885 130.901 102.732 129.248 103.058 127.655C103.384 126.063 104.174 124.602 105.329 123.458C106.485 122.314 107.952 121.538 109.548 121.227C111.144 120.917 112.796 121.085 114.296 121.712C115.795 122.339 117.076 123.396 117.976 124.75C118.876 126.104 119.355 127.694 119.352 129.319C119.358 130.407 119.146 131.484 118.73 132.489C118.314 133.493 117.702 134.405 116.929 135.17C116.157 135.935 115.24 136.539 114.231 136.945C113.222 137.351 112.143 137.553 111.056 137.537ZM122.179 121.393H125.667V137.22H122.998C122.788 137.219 122.587 137.135 122.439 136.987C122.29 136.838 122.206 136.637 122.206 136.427L122.179 121.393ZM123.923 117.932C123.301 117.926 122.707 117.676 122.267 117.236C121.827 116.797 121.578 116.202 121.572 115.58C121.584 114.965 121.838 114.38 122.277 113.95C122.717 113.52 123.308 113.28 123.923 113.281C124.54 113.281 125.131 113.526 125.567 113.962C126.003 114.398 126.248 114.99 126.248 115.606C126.248 116.223 126.003 116.814 125.567 117.251C125.131 117.687 124.54 117.932 123.923 117.932ZM136.791 124.22C133.964 124.22 132.061 126.439 132.061 129.293C132.061 132.147 133.964 134.366 136.791 134.366C139.618 134.366 141.52 132.147 141.52 129.293C141.467 126.439 139.618 124.22 136.791 124.22ZM136.157 121.076C138.429 121.076 140.331 122.238 141.23 123.507V113.466H144.717V137.22H142.049C141.839 137.219 141.637 137.135 141.489 136.987C141.34 136.838 141.257 136.637 141.256 136.427V135.106C140.358 136.374 138.482 137.537 136.183 137.537C131.85 137.537 128.547 133.838 128.547 129.319C128.547 124.801 131.823 121.076 136.157 121.076Z" fill="white"/>
<path d="M116.816 60.3559L125.931 44.5819C126.176 44.1479 126.239 43.6351 126.108 43.1544C125.978 42.6738 125.663 42.2641 125.232 42.014C124.801 41.7638 124.289 41.6934 123.807 41.818C123.325 41.9426 122.911 42.2521 122.655 42.6795L113.434 58.6384C106.073 55.3293 98.0942 53.6182 90.0238 53.6182C81.9534 53.6182 73.9746 55.3293 66.6139 58.6384L57.3926 42.6795C57.1368 42.2521 56.723 41.9426 56.2407 41.818C55.7584 41.6934 55.2464 41.7638 54.8156 42.014C54.3849 42.2641 54.07 42.6738 53.939 43.1544C53.8081 43.6351 53.8718 44.1479 54.1162 44.5819L63.2318 60.3559C47.5107 68.8637 36.8362 84.6905 35.2773 103.371H144.664C143.106 84.6905 132.405 68.8637 116.816 60.3559ZM64.8172 87.7819C63.9183 87.7819 63.0397 87.5154 62.2923 87.016C61.545 86.5166 60.9625 85.8069 60.6185 84.9765C60.2745 84.146 60.1845 83.2323 60.3599 82.3507C60.5352 81.4692 60.9681 80.6594 61.6037 80.0238C62.2392 79.3882 63.049 78.9554 63.9306 78.7801C64.8121 78.6047 65.7259 78.6947 66.5563 79.0387C67.3867 79.3826 68.0965 79.9651 68.5958 80.7125C69.0952 81.4598 69.3617 82.3385 69.3617 83.2373C69.3617 84.4426 68.8829 85.5986 68.0307 86.4508C67.1784 87.3031 66.0225 87.7819 64.8172 87.7819ZM115.178 87.7819C114.279 87.7819 113.4 87.5154 112.653 87.016C111.905 86.5166 111.323 85.8069 110.979 84.9765C110.635 84.146 110.545 83.2323 110.72 82.3507C110.896 81.4692 111.328 80.6594 111.964 80.0238C112.6 79.3882 113.409 78.9554 114.291 78.7801C115.172 78.6047 116.086 78.6947 116.917 79.0387C117.747 79.3826 118.457 79.9651 118.956 80.7125C119.456 81.4598 119.722 82.3385 119.722 83.2373C119.722 84.4426 119.243 85.5986 118.391 86.4508C117.539 87.3031 116.383 87.7819 115.178 87.7819Z" fill="white"/>
</svg>
