<svg width="180" height="180" viewBox="0 0 180 180" fill="none" xmlns="http://www.w3.org/2000/svg">
<circle cx="90" cy="90" r="85" stroke="white" stroke-width="10"/>
<path d="M130 129.968H97.0309V115.709H87.6297V92.3603H82.9425V120.437H50V59.4961H82.9894V87.5728H87.6892V64.2256H129.948V82.873H97.0012V68.9254H92.4078V111.095H130V129.968ZM59.5656 87.5681H73.5303V82.9763H59.5656V87.5681ZM59.5875 92.3446V96.9364H73.5507V92.3446H59.5875ZM73.5569 106.345V101.729H59.5828V106.345H73.5569ZM64.2528 78.192H68.8431V73.6033H64.2528V78.192Z" fill="white"/>
<path d="M97.0859 50H115.895V59.4356H97.0859V50Z" fill="white"/>
<path d="M115.902 97.0508V106.333H97.0938V97.0508H115.902Z" fill="white"/>
<path d="M129.965 50.0195V59.4551H120.688V50.0195H129.965Z" fill="white"/>
<path d="M120.66 106.334V97.0547H129.953V106.334H120.66Z" fill="white"/>
</svg>
