<svg width="32" height="49" viewBox="0 0 32 49" fill="none" xmlns="http://www.w3.org/2000/svg">
<path d="M10.5178 48.2379C9.50454 47.7168 9.29057 47.2536 9.5637 46.1485C11.0829 40.0176 12.6033 33.8867 14.1225 27.7558C14.159 27.6073 14.188 27.4562 14.2346 27.2398C14.0004 27.2398 13.8192 27.2398 13.6367 27.2398C9.64929 27.2398 5.66061 27.2033 1.67446 27.2624C0.496362 27.28 -0.365815 26.3574 0.155267 25.0283C3.26162 17.0887 6.32141 9.13278 9.39756 1.18187C9.75501 0.259282 10.1364 0 11.1395 0C15.2843 0 19.429 0 23.5738 0C24.9482 0 25.5725 0.949024 25.0187 2.20642C23.2767 6.16614 21.5297 10.1233 19.7865 14.0818C19.7072 14.2631 19.6354 14.4468 19.5373 14.6847C19.7751 14.6847 19.9438 14.6847 20.1125 14.6847C23.5511 14.6847 26.9885 14.6834 30.4271 14.6847C31.2591 14.6847 31.8016 15.0812 31.9665 15.7898C32.0785 16.2719 31.8947 16.6759 31.6405 17.0711C29.4592 20.4619 27.283 23.8552 25.1043 27.2473C20.8236 33.9131 16.5392 40.5764 12.2648 47.246C11.9853 47.6815 11.6669 48.0428 11.1798 48.2353H10.5203L10.5178 48.2379Z" fill="white"/>
</svg>
