<svg width="60" height="61" viewBox="0 0 60 61" fill="none" xmlns="http://www.w3.org/2000/svg">
<path d="M27.0166 42.0182C27.0166 37.1755 27.0722 32.3328 26.9928 27.4917C26.9548 25.1552 28.5664 23.964 30.4841 23.9767C38.1804 24.029 45.8766 23.9989 53.5729 23.9989C55.8095 23.9989 57.0166 25.1917 57.0166 27.4108C57.0181 37.1342 57.0181 46.8593 57.0166 56.5827C57.0166 58.8209 55.8269 60.0089 53.5935 60.0089C45.8576 60.0089 38.1217 60.0089 30.3857 60.0089C28.2095 60.0089 27.0182 58.8288 27.0166 56.6636C27.0135 51.7813 27.0166 46.9005 27.0166 42.0182Z" fill="white"/>
<path d="M17.9866 0.00461123C21.9029 0.00461123 25.8209 0.00302502 29.7372 0.00461123C31.7565 0.00461123 32.9905 1.2133 32.9937 3.22144C33.0032 7.65013 32.9985 12.0788 32.9937 16.5075C32.9937 17.5972 32.5908 17.9954 31.4884 17.9938C29.972 17.9906 28.4667 17.997 27.0042 18.5188C23.4654 19.783 21.0607 23.0792 21.0194 26.8369C20.9925 29.3764 21.0147 31.9143 21.0099 34.4538C21.0099 35.5848 20.5753 36.0115 19.43 36.0131C15.041 36.0131 10.652 36.0163 6.26295 36.0131C4.26591 36.0115 2.99853 34.7695 2.99695 32.7804C2.9906 22.9396 2.9906 13.0972 2.99695 3.25633C3.00012 1.22599 4.25164 0.00619744 6.29626 0.00461123C10.1936 0.00302502 14.0909 0.00461123 17.9882 0.00461123H17.9866Z" fill="white"/>
<path d="M50.9887 13.0462C50.7381 12.8718 50.5382 12.7702 50.3859 12.6196C47.9051 10.1482 45.4195 7.68169 42.9577 5.19135C41.4191 3.63528 41.8157 1.20046 43.7239 0.294732C44.9119 -0.268372 46.2285 -0.017751 47.2357 0.987904C49.715 3.4608 52.1863 5.94163 54.6608 8.41928C54.8099 8.56997 54.9669 8.71273 55.1636 8.89832C55.9313 8.12425 56.6863 7.38032 57.4192 6.61735C57.8934 6.12245 58.4185 5.8528 59.1037 6.10976C59.7255 6.34294 59.9968 6.82514 59.9983 7.67694C59.9999 10.5496 60.0015 13.4206 59.9983 16.2932C59.9983 17.4702 59.4908 17.9857 58.3138 17.9873C55.4221 17.9936 52.5305 17.9825 49.6388 17.9936C48.9472 17.9968 48.3889 17.7969 48.1081 17.1291C47.8242 16.455 48.0843 15.9141 48.5777 15.4351C49.339 14.6959 50.0861 13.9425 50.9871 13.0462H50.9887Z" fill="white"/>
<path d="M4.90142 51.0476C4.06549 51.8947 3.31521 52.645 2.57921 53.4079C2.10335 53.9028 1.56721 54.1614 0.888315 53.887C0.185625 53.6014 -0.00313327 53.0272 3.91475e-05 52.315C0.0127288 49.4424 0.00479777 46.5698 0.00638397 43.6972C0.00638397 42.5154 0.502867 42.019 1.69728 42.0158C4.5699 42.011 7.44252 42.0221 10.3151 42.0079C11.0273 42.0047 11.6158 42.1839 11.8966 42.885C12.1773 43.5845 11.8823 44.1318 11.37 44.6203C10.6165 45.3389 9.88845 46.0828 8.97162 46.9917C9.20321 47.1234 9.42845 47.1963 9.57914 47.3454C12.079 49.8263 14.5773 52.3087 17.0565 54.8101C18.6982 56.4661 18.1066 59.1405 15.9541 59.8336C14.7311 60.227 13.67 59.9082 12.7706 59.0088C10.3072 56.547 7.84542 54.0852 5.38521 51.6187C5.23293 51.4664 5.10604 51.2887 4.90142 51.0445V51.0476Z" fill="white"/>
</svg>
