<svg width="48" height="49" viewBox="0 0 48 49" fill="none" xmlns="http://www.w3.org/2000/svg">
<path d="M23.5295 48.0104C23.264 47.8576 22.9747 47.7337 22.7367 47.547C22.2408 47.1576 22.0053 46.6278 22.0066 45.9941C22.0091 45.3103 22.0066 44.6252 22.0066 43.9477C12.6512 43.0985 5.05794 35.37 4.07983 25.9959C3.38099 25.9959 2.66963 26.0096 1.95952 25.9921C1.02774 25.9696 0.313879 25.401 0.0721675 24.5231C-0.260969 23.3145 0.598173 22.0871 1.84806 22.0283C2.57821 21.9932 3.31211 22.022 4.08609 22.022C4.62587 17.2955 6.51573 13.2352 9.85336 9.89134C13.1947 6.5437 17.2512 4.64382 22.0116 4.09402C22.0116 3.35761 21.9941 2.62621 22.0166 1.89732C22.0429 1.04569 22.6052 0.339341 23.4093 0.0926198C24.2333 -0.159111 25.1476 0.106396 25.5972 0.839046C25.8214 1.20349 25.9328 1.67439 25.9742 2.10772C26.0355 2.75521 25.9904 3.41271 25.9904 3.98631C36.225 5.80854 42.1839 11.78 44.0136 22.012C44.4282 22.012 44.9279 22.0483 45.4201 22.0045C46.6599 21.893 47.5366 22.3552 48 23.5349V24.473C47.5316 25.6828 46.6199 26.1111 45.3737 26.0034C44.8966 25.9621 44.4131 25.9971 44.0136 25.9971C42.1851 36.2292 36.2237 42.1943 25.9904 44.0253C25.9904 44.6252 25.9892 45.309 25.9904 45.9928C25.9917 46.6077 25.7725 47.1313 25.2954 47.5145C25.0474 47.7149 24.7456 47.8464 24.4675 48.0092H23.5295V48.0104ZM39.8206 26.0272C38.5582 25.5951 37.9758 24.9889 38.0109 24.0221C38.0247 23.6501 38.1637 23.2556 38.344 22.9237C38.6534 22.3564 39.2257 22.1235 39.8306 22.012C38.9903 14.3975 32.4866 8.75167 25.9992 8.19185C25.6561 9.36158 25.09 9.95271 24.1306 9.98903C22.8858 10.0366 22.2395 9.29145 21.9815 8.15928C14.3933 9.06977 8.8289 15.3868 8.17515 21.9832C9.43381 22.4103 10.0199 23.0202 9.99237 23.9883C9.95981 25.1605 9.25221 25.7792 8.16388 26.0071C9.00674 33.648 15.5543 39.2625 21.9966 39.8173C22.3284 38.6538 22.902 38.0564 23.8639 38.0201C25.1113 37.9725 25.7525 38.7214 26.0117 39.8511C33.6563 38.9281 39.1619 32.5797 39.8194 26.0259L39.8206 26.0272Z" fill="white"/>
<path d="M33.9969 23.715C34.2398 29.1479 29.8652 33.7755 24.267 34.0085C18.8692 34.2339 14.2654 29.8994 14.0012 24.345C13.7432 18.9033 18.0852 14.2645 23.6822 14.0065C29.1201 13.7547 33.7464 18.1093 33.9969 23.7138V23.715Z" fill="white"/>
</svg>
