<svg width="22" height="20" viewBox="0 0 22 20" fill="none" xmlns="http://www.w3.org/2000/svg">
<path d="M20.332 8.66573H4.5187L9.3587 2.8524C9.58502 2.58011 9.6939 2.22907 9.66139 1.8765C9.62889 1.52393 9.45765 1.19872 9.18537 0.972399C8.91308 0.746081 8.56203 0.637198 8.20947 0.669705C7.8569 0.702211 7.53168 0.873443 7.30536 1.14573L0.638698 9.14573C0.593846 9.20936 0.553737 9.27621 0.518698 9.34573C0.518698 9.4124 0.518698 9.4524 0.425365 9.51907C0.364929 9.67194 0.333286 9.83468 0.332031 9.99907C0.333286 10.1635 0.364929 10.3262 0.425365 10.4791C0.425365 10.5457 0.425364 10.5857 0.518698 10.6524C0.553737 10.7219 0.593846 10.7888 0.638698 10.8524L7.30536 18.8524C7.43073 19.0029 7.58771 19.1239 7.76516 19.2069C7.94261 19.2899 8.13615 19.3327 8.33203 19.3324C8.64357 19.333 8.94548 19.2245 9.18537 19.0257C9.32038 18.9138 9.43198 18.7763 9.51378 18.6212C9.59558 18.4661 9.64598 18.2963 9.66208 18.1217C9.67818 17.9471 9.65967 17.771 9.60761 17.6035C9.55555 17.436 9.47097 17.2805 9.3587 17.1457L4.5187 11.3324H20.332C20.6857 11.3324 21.0248 11.1919 21.2748 10.9419C21.5249 10.6918 21.6654 10.3527 21.6654 9.99907C21.6654 9.64544 21.5249 9.3063 21.2748 9.05626C21.0248 8.80621 20.6857 8.66573 20.332 8.66573Z" fill="black"/>
</svg>
