<svg width="16" height="18" viewBox="0 0 16 18" fill="none" xmlns="http://www.w3.org/2000/svg">
<path d="M13 3.00098H16V18.001H0V3.00098H3V2.00098C3 1.59098 3.15 1.24098 3.44 0.940977C3.73 0.650977 4.09 0.500977 4.5 0.500977C4.91 0.500977 5.27 0.650977 5.56 0.940977C5.85 1.24098 6 1.59098 6 2.00098V3.00098H10V2.00098C10 1.59098 10.15 1.24098 10.44 0.940977C10.73 0.650977 11.09 0.500977 11.5 0.500977C11.91 0.500977 12.27 0.650977 12.56 0.940977C12.85 1.24098 13 1.59098 13 2.00098V3.00098ZM4 2.00098V4.50098C3.99878 4.56697 4.01088 4.63254 4.03557 4.69375C4.06027 4.75497 4.09705 4.81058 4.14373 4.85725C4.1904 4.90392 4.24601 4.94071 4.30722 4.9654C4.36844 4.9901 4.434 5.0022 4.5 5.00098C4.566 5.0022 4.63156 4.9901 4.69278 4.9654C4.75399 4.94071 4.8096 4.90392 4.85627 4.85725C4.90295 4.81058 4.93973 4.75497 4.96443 4.69375C4.98912 4.63254 5.00122 4.56697 5 4.50098V2.00098C5 1.86098 4.95 1.74098 4.85 1.65098C4.76 1.55098 4.64 1.50098 4.5 1.50098C4.36 1.50098 4.24 1.55098 4.15 1.65098C4.05 1.74098 4 1.86098 4 2.00098ZM11 2.00098V4.50098C11 4.64098 11.05 4.76098 11.14 4.86098C11.24 4.95098 11.36 5.00098 11.5 5.00098C11.64 5.00098 11.76 4.95098 11.86 4.86098C11.95 4.76098 12 4.64098 12 4.50098V2.00098C12.0012 1.93498 11.9891 1.86941 11.9644 1.8082C11.9397 1.74698 11.9029 1.69138 11.8563 1.6447C11.8096 1.59803 11.754 1.56124 11.6928 1.53655C11.6316 1.51185 11.566 1.49976 11.5 1.50098C11.434 1.49976 11.3684 1.51185 11.3072 1.53655C11.246 1.56124 11.1904 1.59803 11.1437 1.6447C11.0971 1.69138 11.0603 1.74698 11.0356 1.8082C11.0109 1.86941 10.9988 1.93498 11 2.00098ZM15 17.001V7.00098H1V17.001H15ZM5 8.00098V10.001H3V8.00098H5ZM7 8.00098H9V10.001H7V8.00098ZM11 10.001V8.00098H13V10.001H11ZM5 11.001V13.001H3V11.001H5ZM7 11.001H9V13.001H7V11.001ZM11 13.001V11.001H13V13.001H11ZM5 14.001V16.001H3V14.001H5ZM9 16.001H7V14.001H9V16.001ZM13 16.001H11V14.001H13V16.001Z" fill="black" fill-opacity="0.56"/>
</svg>
